{"glyphs":{"0":{"ha":2544,"x_min":78,"x_max":2473,"o":"m 1894 567 q 1925 600 1908 591 q 1954 601 1942 608 q 1973 576 1966 593 q 1973 533 1980 559 q 1750 -7 1877 150 q 1734 -24 1739 -19 q 1688 -55 1713 -45 q 1643 -60 1663 -64 q 1610 -42 1624 -56 q 1597 -4 1596 -29 q 1615 52 1598 22 q 1627 70 1618 58 q 1641 92 1635 82 q 1651 112 1647 102 q 1654 130 1656 123 q 1642 139 1652 137 q 1509 134 1608 145 q 1301 95 1411 123 q 1187 62 1272 87 q 1088 33 1124 43 q 982 3 1053 22 q 865 -24 911 -16 q 752 -44 820 -33 q 639 -55 684 -56 q 540 -49 594 -53 q 453 -26 486 -45 q 390 20 419 -7 q 350 92 361 47 q 343 194 338 136 q 407 116 363 146 q 515 75 451 86 q 653 63 580 63 q 819 75 726 64 q 781 110 798 90 q 759 149 764 131 q 762 323 747 182 q 787 488 764 345 q 808 698 810 631 q 787 750 807 735 q 742 755 768 764 q 696 721 717 746 q 643 624 671 691 q 616 543 628 586 q 688 480 665 524 q 702 391 712 437 q 668 332 694 353 q 614 311 643 311 q 558 329 586 311 q 519 380 531 347 q 520 487 507 414 q 383 441 497 483 q 211 399 269 400 q 118 433 156 397 q 78 543 81 468 q 148 502 102 512 q 248 498 193 491 q 353 517 302 505 q 457 542 405 529 q 536 555 510 554 q 540 567 538 559 q 544 579 543 575 q 601 703 567 648 q 682 796 635 760 q 728 824 702 813 q 784 834 755 834 q 835 819 814 835 q 881 713 874 789 q 880 592 886 656 q 860 442 873 527 q 842 319 846 357 q 841 301 842 311 q 838 273 840 292 q 837 239 837 255 q 838 209 837 224 q 842 185 839 193 q 852 178 846 176 q 859 183 855 178 q 866 197 862 187 q 874 216 871 207 q 885 244 878 226 q 897 276 892 262 q 956 440 917 327 q 1030 640 995 554 q 1106 795 1065 725 q 1251 913 1171 905 q 1333 884 1301 918 q 1348 825 1359 854 q 1347 822 1348 823 q 1315 836 1333 836 q 1279 826 1297 836 q 1240 796 1261 815 q 1203 755 1220 777 q 1168 708 1185 733 q 1237 689 1196 692 q 1322 695 1278 687 q 1422 720 1366 704 q 1527 753 1478 736 q 1636 788 1576 770 q 1741 817 1696 806 q 1792 825 1766 822 q 1849 829 1819 829 q 1904 824 1879 829 q 1952 808 1929 819 q 1988 779 1975 797 q 2007 733 2001 760 q 2002 670 2012 707 q 1693 706 1988 759 q 1714 679 1710 696 q 1715 644 1719 662 q 1700 600 1711 627 q 1662 504 1680 551 q 1634 428 1644 456 q 1605 346 1624 399 q 1577 267 1586 293 q 1527 207 1558 215 q 1491 224 1502 200 q 1487 238 1488 231 q 1423 192 1457 200 q 1369 210 1390 184 q 1356 285 1349 235 q 1366 342 1362 323 q 1378 394 1373 372 q 1382 407 1380 401 q 1385 418 1383 414 q 1387 424 1386 422 q 1350 376 1369 406 q 1308 309 1323 335 q 1271 239 1283 264 q 1218 182 1250 194 q 1181 195 1191 173 q 1181 235 1175 210 q 1185 252 1182 240 q 1190 271 1187 264 q 1147 216 1166 235 q 1072 203 1103 173 q 1054 306 1040 233 q 1071 376 1059 333 q 1093 449 1082 418 q 1102 473 1093 450 q 1143 517 1116 514 q 1177 498 1166 520 q 1176 452 1187 478 q 1133 338 1145 380 q 1133 269 1108 248 q 1229 417 1162 292 l 1238 433 q 1240 441 1239 436 q 1242 450 1241 447 q 1273 527 1258 494 q 1305 553 1284 551 q 1340 537 1327 555 q 1341 492 1352 519 q 1331 468 1335 476 q 1313 429 1318 439 q 1298 396 1306 415 q 1291 378 1291 379 q 1319 423 1307 406 q 1350 465 1332 441 q 1381 501 1371 491 q 1440 532 1412 532 q 1476 504 1468 532 q 1468 425 1485 476 q 1447 364 1457 396 q 1428 256 1415 258 q 1477 307 1439 254 q 1493 328 1485 317 q 1522 375 1506 347 q 1641 696 1556 471 q 1497 665 1590 686 q 1404 644 1405 644 q 1265 625 1310 622 q 1164 702 1180 630 q 1116 619 1135 657 q 1049 470 1081 546 q 975 278 1021 403 q 909 103 929 154 q 905 95 907 101 q 901 85 903 88 q 1279 153 1016 102 q 1446 179 1369 170 q 1584 189 1522 188 q 1680 177 1645 189 q 1713 140 1714 165 q 1695 96 1712 129 q 1664 36 1678 62 q 1655 7 1650 9 q 1702 58 1664 5 q 1787 202 1754 128 q 1854 383 1820 277 q 1861 410 1858 396 q 1832 359 1848 384 q 1813 330 1820 340 q 1790 298 1807 321 q 1760 263 1773 275 q 1730 241 1747 251 q 1697 233 1712 231 q 1661 269 1671 237 q 1666 353 1651 302 q 1685 418 1681 404 q 1712 482 1695 449 q 1731 518 1723 505 q 1768 542 1746 542 q 1800 524 1791 542 q 1797 482 1808 506 q 1780 451 1786 463 q 1754 391 1765 420 q 1740 321 1725 315 q 1792 388 1754 327 q 1829 448 1806 410 q 1864 512 1841 469 q 1894 567 1885 550 m 650 370 q 671 408 667 382 q 659 459 675 434 q 605 492 642 485 q 612 379 583 414 q 647 368 628 358 q 650 370 649 369 m 2297 316 q 2320 266 2287 264 q 2399 313 2353 267 q 2459 399 2441 354 q 2457 390 2458 396 q 2451 364 2456 383 q 2440 328 2446 345 q 2422 288 2433 310 q 2397 248 2410 265 q 2363 216 2383 231 q 2321 197 2344 202 q 2261 205 2288 190 q 2217 300 2215 229 q 2223 349 2218 328 q 2247 420 2232 386 q 2282 491 2264 461 q 2323 549 2302 526 q 2380 586 2348 578 q 2434 580 2412 594 q 2464 535 2456 566 q 2451 453 2473 503 q 2409 386 2432 409 q 2363 361 2385 363 q 2336 371 2345 359 q 2335 401 2326 383 q 2354 397 2340 393 q 2379 418 2365 400 q 2400 456 2392 435 q 2411 494 2407 476 q 2406 515 2414 511 q 2394 509 2403 517 q 2369 478 2384 501 q 2336 422 2353 456 q 2297 316 2307 368 m 2209 534 q 2229 473 2229 515 q 2213 386 2228 431 q 2168 299 2197 341 q 2105 240 2138 258 q 2063 229 2085 229 q 2028 242 2041 228 q 2024 283 2015 256 q 2063 276 2037 260 q 2111 332 2089 292 q 2153 453 2146 397 q 2144 486 2159 488 q 2098 440 2129 481 q 2047 351 2070 401 q 1933 45 1973 198 q 1900 3 1923 9 q 1867 21 1878 -1 q 1868 90 1854 47 q 1928 264 1888 151 q 1980 413 1967 378 q 2016 519 2009 498 q 2025 545 2020 531 q 2033 567 2030 559 q 2066 594 2043 595 q 2096 572 2088 593 q 2095 538 2102 557 q 2087 514 2090 524 q 2131 547 2107 538 q 2175 551 2155 555 q 2209 534 2195 547 m 1207 550 q 1201 544 1207 550 q 1177 538 1195 538 q 1147 550 1160 538 q 1135 581 1135 563 q 1147 611 1135 598 q 1177 623 1160 623 q 1207 611 1195 623 q 1220 581 1220 598 q 1207 550 1220 563 m 1470 1026 l 1468 987 l 1441 988 l 1447 1094 l 1530 1090 l 1529 1066 l 1472 1069 l 1471 1050 l 1523 1047 l 1522 1023 l 1470 1026 m 1669 979 q 1660 972 1669 979 q 1627 969 1650 966 q 1590 991 1604 972 q 1579 1032 1575 1010 q 1601 1068 1582 1055 q 1644 1078 1621 1081 q 1681 1056 1667 1074 q 1692 1015 1695 1037 q 1669 979 1689 992 m 1660 1041 q 1656 1047 1660 1041 q 1640 1054 1653 1052 q 1618 1048 1628 1056 q 1606 1028 1608 1040 q 1611 1005 1604 1015 q 1631 993 1619 995 q 1653 998 1643 991 q 1665 1019 1663 1006 q 1660 1041 1667 1031 m 1908 905 l 1934 983 l 1904 994 l 1911 1016 l 1997 987 l 1990 964 l 1959 975 l 1933 897 l 1908 905 m 1773 1007 l 1759 946 l 1733 952 l 1756 1056 l 1782 1050 l 1814 979 l 1828 1040 l 1853 1034 l 1830 930 l 1805 936 l 1773 1007 m 815 900 l 778 888 l 744 988 l 781 1001 q 828 1001 806 1010 q 857 970 849 992 q 852 929 864 949 q 815 900 841 909 m 792 979 l 777 974 l 795 919 l 811 924 q 829 939 824 929 q 831 962 835 949 q 816 979 827 974 q 792 979 805 984 m 1004 952 l 922 934 l 899 1038 l 981 1056 l 986 1033 l 930 1020 l 934 1004 l 985 1015 l 989 992 l 939 981 l 943 963 l 999 975 l 1004 952 m 1080 966 l 1055 962 l 1038 1067 l 1064 1072 l 1103 1021 l 1125 1080 l 1151 1084 l 1167 979 l 1141 976 l 1132 1036 l 1109 977 l 1071 1027 l 1080 966 m 1275 985 q 1234 999 1252 983 q 1215 1037 1217 1015 q 1230 1077 1214 1059 q 1270 1095 1246 1094 q 1311 1081 1293 1096 q 1329 1043 1329 1065 q 1314 1003 1331 1021 q 1275 985 1298 985 m 1292 1063 q 1287 1067 1292 1063 q 1270 1071 1282 1072 q 1250 1061 1258 1070 q 1242 1038 1241 1051 q 1252 1017 1242 1025 q 1274 1009 1261 1008 q 1294 1019 1286 1010 q 1302 1042 1303 1029 q 1292 1063 1301 1055 m 706 905 q 545 827 622 871 l 530 851 q 696 931 612 897 l 706 905 m 2207 851 l 2192 827 q 2030 905 2115 871 l 2041 931 q 2207 851 2123 899 z "},"1":{"ha":2544,"x_min":78,"x_max":2473,"o":"m 1894 567 q 1925 600 1908 591 q 1954 601 1942 608 q 1973 576 1966 593 q 1973 533 1980 559 q 1749 -7 1878 151 q 1734 -24 1744 -13 q 1688 -55 1713 -45 q 1643 -60 1663 -64 q 1609 -42 1623 -55 q 1596 -4 1596 -29 q 1615 52 1597 22 q 1626 70 1617 58 q 1640 92 1634 82 q 1651 112 1647 102 q 1654 130 1656 123 q 1642 139 1652 137 q 1509 134 1608 145 q 1301 95 1411 123 q 1187 62 1272 87 q 1089 33 1124 43 q 982 4 1053 23 q 866 -24 911 -16 q 752 -44 820 -33 q 639 -54 684 -56 q 540 -49 594 -53 q 453 -26 486 -45 q 390 20 419 -7 q 350 92 361 47 q 343 194 338 136 q 407 116 363 146 q 515 75 451 86 q 653 63 580 63 q 819 75 726 64 q 781 110 798 90 q 759 149 764 131 q 762 323 747 182 q 787 488 764 345 q 808 698 810 631 q 787 750 807 735 q 742 755 768 764 q 696 721 717 746 q 643 624 671 691 q 616 543 628 586 q 688 480 665 524 q 702 391 712 437 q 668 332 694 353 q 614 311 643 311 q 558 329 586 311 q 519 380 531 347 q 520 487 507 414 q 383 441 497 483 q 211 399 269 400 q 118 433 156 397 q 78 543 81 468 q 148 502 102 512 q 248 498 193 491 q 353 517 302 505 q 457 542 405 529 q 536 555 510 554 q 540 567 538 559 q 544 579 543 575 q 601 703 567 648 q 682 796 635 760 q 728 824 702 813 q 784 834 755 834 q 835 819 814 835 q 881 713 874 789 q 880 592 886 656 q 860 442 873 527 q 842 319 846 357 q 841 301 842 311 q 838 273 840 292 q 837 239 837 255 q 838 209 837 224 q 842 185 839 193 q 852 178 846 176 q 859 183 855 178 q 866 197 862 187 q 874 216 871 207 q 885 244 878 226 q 897 276 892 262 q 956 440 917 327 q 1030 640 995 554 q 1106 795 1065 725 q 1251 913 1171 905 q 1333 884 1301 918 q 1348 825 1359 854 q 1347 822 1348 823 q 1315 836 1333 836 q 1279 826 1297 836 q 1240 796 1261 815 q 1203 755 1220 777 q 1168 708 1185 733 q 1237 689 1196 692 q 1322 695 1278 687 q 1422 720 1366 704 q 1527 753 1478 736 q 1636 788 1576 770 q 1741 817 1696 806 q 1792 825 1766 822 q 1849 829 1819 829 q 1904 824 1879 829 q 1952 808 1929 819 q 1988 779 1975 797 q 2007 733 2001 760 q 2002 670 2012 707 q 1693 706 1988 759 q 1717 663 1717 691 q 1701 600 1718 635 q 1577 267 1661 503 q 1527 207 1558 215 q 1491 224 1502 200 q 1487 238 1488 231 q 1423 192 1457 200 q 1369 210 1390 184 q 1356 285 1349 235 q 1366 342 1362 323 q 1378 394 1373 372 q 1382 407 1380 401 q 1385 418 1383 414 q 1387 424 1386 422 q 1350 376 1369 406 q 1308 309 1323 335 q 1271 239 1283 264 q 1218 182 1250 194 q 1181 195 1191 173 q 1181 235 1175 210 q 1185 252 1182 240 q 1190 271 1187 264 q 1147 216 1166 235 q 1072 203 1103 173 q 1054 306 1040 233 q 1071 376 1059 333 q 1093 449 1082 418 q 1102 473 1093 450 q 1143 517 1116 514 q 1177 498 1166 520 q 1176 452 1187 478 q 1133 338 1145 380 q 1133 269 1108 248 q 1229 417 1162 292 l 1238 433 q 1240 441 1239 436 q 1242 450 1241 447 q 1273 527 1258 494 q 1305 553 1284 551 q 1340 537 1327 555 q 1341 492 1352 519 q 1331 468 1335 476 q 1313 429 1318 439 q 1298 396 1306 415 q 1291 378 1291 379 q 1319 423 1307 406 q 1350 465 1332 441 q 1381 501 1371 491 q 1440 532 1412 532 q 1476 504 1468 532 q 1468 425 1485 476 q 1447 364 1457 396 q 1428 256 1415 258 q 1477 307 1439 254 q 1493 328 1485 317 q 1522 375 1506 347 q 1641 696 1556 471 q 1497 665 1590 686 q 1404 644 1405 644 q 1265 625 1310 622 q 1164 702 1180 630 q 1116 619 1135 657 q 1049 470 1081 546 q 975 278 1021 403 q 909 103 929 154 q 905 95 907 101 q 901 85 903 88 q 1279 153 1016 102 q 1446 179 1369 170 q 1584 189 1522 188 q 1680 177 1645 189 q 1713 140 1714 165 q 1695 96 1712 129 q 1664 36 1678 62 q 1655 7 1650 9 q 1702 58 1664 5 q 1787 202 1754 128 q 1854 383 1820 277 q 1861 410 1858 396 q 1832 359 1848 384 q 1813 330 1820 340 q 1790 298 1807 321 q 1760 263 1773 275 q 1730 241 1747 251 q 1697 233 1712 231 q 1661 269 1671 237 q 1666 353 1651 302 q 1685 418 1681 404 q 1712 482 1695 449 q 1731 518 1723 505 q 1768 542 1746 542 q 1800 524 1791 542 q 1797 482 1808 506 q 1780 451 1786 463 q 1754 391 1765 420 q 1740 321 1725 315 q 1792 388 1754 327 q 1829 448 1806 410 q 1864 512 1841 469 q 1894 567 1885 550 m 650 370 q 671 408 667 382 q 659 459 675 434 q 605 492 642 485 q 612 379 583 414 q 647 368 628 358 q 650 370 649 369 m 2297 316 q 2319 266 2287 264 q 2399 313 2352 267 q 2458 399 2440 354 q 2457 390 2458 396 q 2451 364 2456 383 q 2439 328 2445 345 q 2421 288 2433 310 q 2397 248 2410 265 q 2363 216 2383 231 q 2321 197 2344 202 q 2261 205 2288 190 q 2217 300 2215 229 q 2223 349 2218 328 q 2247 420 2232 386 q 2282 491 2264 461 q 2323 549 2302 526 q 2380 586 2348 578 q 2434 580 2412 594 q 2464 535 2456 566 q 2451 453 2473 503 q 2409 386 2432 409 q 2363 361 2385 363 q 2336 371 2345 359 q 2335 401 2326 383 q 2354 397 2340 393 q 2379 418 2365 400 q 2400 456 2392 435 q 2411 494 2407 476 q 2406 515 2414 511 q 2394 509 2403 517 q 2369 478 2384 501 q 2336 422 2353 456 q 2297 316 2307 368 m 2209 534 q 2229 473 2229 515 q 2213 386 2228 431 q 2168 299 2197 341 q 2105 240 2138 258 q 2063 229 2085 229 q 2028 242 2041 228 q 2024 283 2015 256 q 2063 276 2037 260 q 2111 332 2089 292 q 2153 453 2146 397 q 2144 486 2159 488 q 2098 440 2129 481 q 2047 351 2070 401 q 1933 45 1973 198 q 1900 3 1923 9 q 1867 21 1878 -1 q 1868 90 1854 47 q 1928 264 1888 151 q 1980 413 1967 378 q 2016 519 2009 498 q 2025 545 2020 531 q 2033 567 2030 559 q 2066 594 2043 595 q 2096 572 2088 593 q 2095 538 2102 557 q 2087 514 2090 524 q 2131 547 2107 538 q 2175 551 2155 555 q 2209 534 2195 547 m 1207 550 q 1201 544 1207 550 q 1177 538 1195 538 q 1147 550 1160 538 q 1135 581 1135 563 q 1147 611 1135 598 q 1177 623 1160 623 q 1207 611 1195 623 q 1220 581 1220 598 q 1207 550 1220 563 m 1470 1026 l 1468 987 l 1441 988 l 1447 1094 l 1530 1090 l 1529 1066 l 1472 1069 l 1471 1050 l 1523 1047 l 1522 1023 l 1470 1026 m 1669 979 q 1660 972 1669 979 q 1627 969 1650 966 q 1590 991 1604 972 q 1579 1032 1575 1010 q 1601 1068 1582 1055 q 1644 1078 1621 1081 q 1681 1056 1667 1074 q 1692 1015 1695 1037 q 1669 979 1689 992 m 1660 1041 q 1656 1047 1660 1041 q 1640 1054 1653 1052 q 1618 1048 1628 1056 q 1606 1028 1608 1040 q 1611 1005 1604 1015 q 1631 993 1619 995 q 1653 998 1643 991 q 1665 1019 1663 1006 q 1660 1041 1667 1031 m 1908 905 l 1934 983 l 1904 994 l 1911 1016 l 1997 987 l 1990 964 l 1959 975 l 1933 897 l 1908 905 m 1773 1007 l 1759 946 l 1733 952 l 1756 1056 l 1782 1050 l 1814 979 l 1828 1040 l 1853 1034 l 1830 930 l 1805 936 l 1773 1007 m 1004 952 l 922 934 l 899 1038 l 981 1056 l 986 1033 l 930 1020 l 934 1004 l 985 1015 l 989 992 l 939 981 l 943 963 l 999 975 l 1004 952 m 1275 985 q 1234 999 1252 983 q 1215 1037 1217 1015 q 1230 1077 1214 1059 q 1270 1095 1246 1094 q 1311 1081 1293 1096 q 1329 1043 1329 1065 q 1314 1003 1331 1021 q 1275 985 1298 985 m 1292 1063 q 1287 1067 1292 1063 q 1270 1071 1282 1072 q 1250 1061 1258 1070 q 1242 1038 1241 1051 q 1252 1017 1242 1025 q 1274 1009 1261 1008 q 1294 1019 1286 1010 q 1302 1042 1303 1029 q 1292 1063 1301 1055 m 815 900 l 778 888 l 744 988 l 781 1001 q 828 1001 806 1010 q 857 970 849 992 q 852 929 864 949 q 815 900 841 909 m 792 979 l 777 974 l 795 919 l 811 924 q 829 939 824 929 q 831 962 835 949 q 816 979 827 974 q 792 979 805 984 m 1080 966 l 1055 962 l 1038 1067 l 1064 1072 l 1103 1021 l 1125 1080 l 1151 1084 l 1167 979 l 1141 976 l 1132 1036 l 1109 977 l 1071 1027 l 1080 966 m 706 905 q 545 827 622 871 l 530 851 q 696 931 614 899 l 706 905 m 2207 851 l 2192 827 q 2030 905 2115 871 l 2040 931 q 2207 851 2124 897 z "},"2":{"ha":2544,"x_min":78,"x_max":2473,"o":"m 1894 567 q 1925 600 1908 591 q 1954 601 1942 608 q 1973 576 1966 593 q 1973 533 1980 559 q 1749 -7 1878 151 q 1734 -24 1744 -13 q 1688 -55 1713 -45 q 1643 -60 1663 -64 q 1609 -42 1623 -55 q 1596 -4 1596 -29 q 1615 52 1597 22 q 1626 70 1617 58 q 1640 92 1634 82 q 1651 112 1647 102 q 1654 130 1656 123 q 1642 139 1652 137 q 1509 134 1608 145 q 1301 95 1411 123 q 1187 62 1272 87 q 1089 33 1124 43 q 982 4 1053 23 q 866 -24 911 -16 q 752 -44 820 -33 q 639 -54 684 -56 q 540 -49 594 -53 q 453 -26 486 -45 q 390 20 419 -7 q 350 92 361 47 q 343 194 338 136 q 407 116 363 146 q 515 75 451 86 q 653 63 580 63 q 819 75 726 64 q 781 110 798 90 q 759 149 764 131 q 762 323 747 182 q 787 488 764 345 q 808 698 810 631 q 787 750 807 735 q 742 755 768 764 q 696 721 717 746 q 643 624 671 691 q 616 543 628 586 q 688 480 665 524 q 702 391 712 437 q 668 332 694 353 q 614 311 643 311 q 558 329 586 311 q 519 380 531 347 q 520 487 507 414 q 383 441 497 483 q 211 399 269 400 q 118 433 156 397 q 78 543 81 468 q 148 502 102 512 q 248 498 193 491 q 353 517 302 505 q 457 542 405 529 q 536 555 510 554 q 540 567 538 559 q 544 579 543 575 q 601 703 567 648 q 682 796 635 760 q 728 824 702 813 q 784 834 755 834 q 835 819 814 835 q 881 713 874 789 q 880 592 886 656 q 860 442 873 527 q 842 319 846 357 q 841 301 842 311 q 838 273 840 292 q 837 239 837 255 q 838 209 837 224 q 842 185 839 193 q 852 178 846 176 q 859 183 855 178 q 866 197 862 187 q 874 216 871 207 q 885 244 878 226 q 897 276 892 262 q 956 440 917 327 q 1030 640 995 554 q 1106 795 1065 725 q 1251 913 1171 905 q 1333 884 1301 918 q 1348 825 1359 854 q 1347 822 1348 823 q 1315 836 1333 836 q 1279 826 1297 836 q 1240 796 1261 815 q 1203 755 1220 777 q 1168 708 1185 733 q 1237 689 1196 692 q 1322 695 1278 687 q 1422 720 1366 704 q 1527 753 1478 736 q 1636 788 1576 770 q 1741 817 1696 806 q 1792 825 1766 822 q 1849 829 1819 829 q 1904 824 1879 829 q 1952 808 1929 819 q 1988 779 1975 797 q 2007 733 2001 760 q 2002 670 2012 707 q 1693 706 1988 759 q 1717 663 1717 691 q 1701 600 1718 635 q 1577 267 1661 503 q 1527 207 1558 215 q 1491 224 1502 200 q 1487 238 1488 231 q 1423 192 1457 200 q 1369 210 1390 184 q 1356 285 1349 235 q 1366 342 1362 323 q 1378 394 1373 372 q 1382 407 1380 401 q 1385 418 1383 414 q 1387 424 1386 422 q 1350 376 1369 406 q 1308 309 1323 335 q 1271 239 1283 264 q 1218 182 1250 194 q 1181 195 1191 173 q 1181 235 1175 210 q 1185 252 1182 240 q 1190 271 1187 264 q 1147 216 1166 235 q 1072 203 1103 173 q 1054 306 1040 233 q 1071 376 1059 333 q 1093 449 1082 418 q 1102 473 1093 450 q 1143 517 1116 514 q 1177 498 1166 520 q 1176 452 1187 478 q 1133 338 1145 380 q 1133 269 1108 248 q 1229 417 1162 292 l 1238 433 q 1240 441 1239 436 q 1242 450 1241 447 q 1273 527 1258 494 q 1305 553 1284 551 q 1340 537 1327 555 q 1341 492 1352 519 q 1331 468 1335 476 q 1313 429 1318 439 q 1298 396 1306 415 q 1291 378 1291 379 q 1319 423 1307 406 q 1350 465 1332 441 q 1381 501 1367 487 q 1440 532 1412 532 q 1476 504 1468 532 q 1468 425 1485 476 q 1447 364 1457 396 q 1428 256 1415 258 q 1477 307 1439 254 q 1493 328 1485 317 q 1522 375 1506 347 q 1641 696 1556 471 q 1497 665 1590 686 q 1404 644 1405 644 q 1265 625 1310 622 q 1164 702 1180 630 q 1116 619 1135 657 q 1049 470 1081 546 q 975 278 1021 403 q 909 103 929 154 q 905 95 907 101 q 901 85 903 88 q 1279 153 1016 102 q 1446 179 1369 170 q 1584 189 1522 188 q 1680 177 1645 189 q 1713 140 1714 165 q 1695 96 1712 129 q 1664 36 1678 62 q 1655 7 1650 9 q 1702 58 1664 5 q 1787 202 1754 128 q 1854 383 1820 277 q 1862 410 1860 401 q 1832 359 1851 389 q 1817 336 1821 342 q 1799 309 1813 330 q 1775 279 1784 289 q 1751 256 1765 269 q 1724 237 1737 242 q 1698 233 1710 232 q 1662 269 1671 237 q 1666 353 1652 302 q 1686 418 1676 391 q 1712 482 1698 453 q 1731 518 1723 505 q 1768 542 1746 542 q 1800 524 1791 542 q 1797 482 1808 506 q 1780 451 1786 463 q 1754 391 1765 420 q 1740 321 1725 315 q 1792 388 1754 327 q 1829 448 1806 410 q 1864 512 1841 469 q 1894 567 1885 550 m 650 370 q 671 408 667 382 q 659 459 675 434 q 605 492 642 485 q 612 379 583 414 q 647 368 628 358 q 650 370 649 369 m 2297 316 q 2320 266 2287 264 q 2399 313 2353 267 q 2459 399 2441 354 q 2457 390 2458 396 q 2451 364 2456 383 q 2440 328 2446 345 q 2422 288 2433 310 q 2397 248 2410 265 q 2363 216 2383 231 q 2321 197 2344 202 q 2261 205 2288 190 q 2217 300 2215 229 q 2223 349 2218 328 q 2247 420 2232 386 q 2282 491 2264 461 q 2323 549 2302 526 q 2380 586 2348 578 q 2434 580 2412 594 q 2464 535 2456 566 q 2451 453 2473 503 q 2409 386 2432 409 q 2363 361 2385 363 q 2336 371 2345 359 q 2336 401 2327 383 q 2354 397 2341 393 q 2379 418 2365 400 q 2400 456 2392 435 q 2411 494 2407 476 q 2406 515 2414 511 q 2394 509 2403 517 q 2369 478 2384 501 q 2336 422 2353 456 q 2297 316 2307 368 m 2210 534 q 2230 473 2232 515 q 2213 386 2228 431 q 2168 299 2198 341 q 2105 240 2138 258 q 2063 229 2085 229 q 2028 242 2041 228 q 2024 283 2015 256 q 2063 276 2037 260 q 2111 332 2089 292 q 2153 453 2146 397 q 2144 486 2159 488 q 2098 440 2129 481 q 2047 351 2072 404 q 1933 45 1972 195 q 1900 3 1923 9 q 1867 21 1878 -1 q 1868 90 1854 47 q 1927 261 1887 150 q 1980 413 1967 373 q 2000 472 1988 435 q 2016 519 2012 509 q 2025 545 2020 531 q 2033 567 2030 559 q 2066 594 2043 595 q 2096 572 2088 593 q 2095 538 2102 557 q 2087 514 2090 524 q 2131 547 2107 538 q 2176 551 2156 555 q 2210 534 2195 547 m 1207 550 q 1201 544 1207 550 q 1177 538 1195 538 q 1147 550 1160 538 q 1135 581 1135 563 q 1147 611 1135 598 q 1177 623 1160 623 q 1207 611 1195 623 q 1220 581 1220 598 q 1207 550 1220 563 m 1470 1026 l 1468 987 l 1441 988 l 1447 1094 l 1531 1090 l 1529 1066 l 1472 1069 l 1471 1050 l 1523 1047 l 1522 1023 l 1470 1026 m 1669 979 q 1660 972 1669 979 q 1627 969 1650 966 q 1590 991 1604 972 q 1579 1032 1575 1010 q 1601 1068 1582 1055 q 1644 1078 1621 1081 q 1681 1056 1667 1074 q 1692 1015 1695 1037 q 1669 979 1689 992 m 1660 1041 q 1656 1047 1660 1041 q 1640 1054 1653 1052 q 1618 1048 1628 1056 q 1606 1028 1608 1040 q 1611 1005 1604 1015 q 1631 993 1619 995 q 1653 998 1643 991 q 1665 1019 1663 1006 q 1660 1041 1667 1031 m 1908 905 l 1934 983 l 1904 994 l 1911 1016 l 1997 987 l 1990 964 l 1959 975 l 1933 897 l 1908 905 m 1773 1007 l 1759 946 l 1733 952 l 1756 1056 l 1782 1050 l 1814 979 l 1828 1040 l 1853 1034 l 1830 930 l 1805 936 l 1773 1007 m 1275 985 q 1234 999 1252 983 q 1215 1037 1217 1015 q 1230 1077 1214 1059 q 1270 1095 1246 1094 q 1311 1081 1293 1096 q 1329 1043 1329 1065 q 1314 1003 1331 1021 q 1275 985 1298 985 m 1292 1063 q 1287 1067 1292 1063 q 1270 1071 1282 1072 q 1250 1061 1258 1070 q 1242 1038 1242 1051 q 1252 1017 1243 1025 q 1274 1009 1261 1008 q 1294 1019 1286 1010 q 1302 1042 1303 1029 q 1292 1063 1301 1055 m 1004 952 l 922 934 l 899 1038 l 981 1056 l 986 1033 l 930 1020 l 934 1004 l 985 1015 l 989 992 l 939 981 l 943 963 l 999 975 l 1004 952 m 815 900 l 779 888 l 744 988 l 781 1001 q 828 1001 806 1010 q 857 970 849 992 q 852 929 864 949 q 815 900 841 909 m 792 979 l 777 974 l 795 919 l 811 924 q 829 939 824 929 q 831 962 835 949 q 816 979 827 974 q 792 979 805 984 m 1080 966 l 1055 962 l 1038 1067 l 1064 1072 l 1103 1021 l 1125 1080 l 1151 1084 l 1167 979 l 1141 976 l 1132 1036 l 1109 977 l 1071 1027 l 1080 966 m 706 905 q 545 827 622 871 l 530 851 q 696 931 612 897 l 706 905 m 2207 851 l 2192 827 q 2030 905 2115 871 l 2041 931 q 2207 851 2123 899 z "},"3":{"ha":2544,"x_min":78,"x_max":2473,"o":"m 1894 567 q 1925 600 1908 591 q 1954 601 1942 608 q 1973 576 1966 593 q 1973 533 1980 559 q 1749 -7 1878 151 q 1741 -16 1746 -10 q 1734 -24 1736 -22 q 1688 -55 1713 -45 q 1643 -60 1663 -64 q 1609 -42 1623 -56 q 1596 -4 1596 -29 q 1615 52 1597 22 q 1626 70 1617 58 q 1640 92 1634 82 q 1651 112 1647 102 q 1654 130 1656 123 q 1642 139 1652 137 q 1509 134 1608 145 q 1301 95 1411 123 q 1187 62 1272 87 q 1089 33 1124 43 q 982 4 1053 23 q 866 -24 911 -16 q 752 -44 820 -33 q 639 -54 684 -56 q 540 -49 594 -53 q 453 -26 486 -45 q 390 20 419 -7 q 350 92 361 47 q 343 194 338 136 q 407 116 363 146 q 515 75 451 86 q 653 63 580 63 q 819 75 726 64 q 781 110 798 90 q 759 149 764 131 q 762 323 747 182 q 787 488 764 345 q 808 698 810 631 q 787 750 807 735 q 742 755 768 764 q 696 721 717 746 q 643 624 671 691 q 616 543 628 586 q 688 480 665 524 q 702 391 712 437 q 668 332 694 353 q 614 311 643 311 q 558 329 586 311 q 519 380 531 347 q 520 487 507 414 q 383 441 497 483 q 211 399 269 400 q 118 433 156 397 q 78 543 81 468 q 148 502 102 512 q 248 498 193 491 q 353 517 302 505 q 457 542 405 529 q 536 555 510 554 q 540 567 538 559 q 544 579 543 575 q 601 703 567 648 q 682 796 635 760 q 728 824 702 813 q 784 834 755 834 q 835 819 814 835 q 881 713 874 789 q 880 591 886 656 q 860 441 873 526 q 842 318 846 357 q 841 301 842 310 q 838 273 840 292 q 837 239 837 254 q 838 209 837 224 q 842 185 839 193 q 852 178 846 176 q 859 183 855 178 q 866 197 862 187 q 874 216 871 207 q 885 244 878 226 q 897 276 892 262 q 956 440 917 327 q 1030 640 995 554 q 1106 795 1065 725 q 1251 913 1171 905 q 1333 884 1301 918 q 1348 825 1359 854 q 1347 822 1348 823 q 1315 836 1333 836 q 1279 826 1297 836 q 1240 796 1261 815 q 1203 755 1220 777 q 1168 708 1185 733 q 1237 689 1196 692 q 1322 695 1278 687 q 1422 720 1366 704 q 1527 753 1478 736 q 1636 788 1576 770 q 1741 817 1696 806 q 1792 825 1766 822 q 1849 829 1819 829 q 1904 824 1879 829 q 1952 808 1929 819 q 1988 779 1975 797 q 2007 733 2001 760 q 2002 670 2012 707 q 1693 706 1988 759 q 1717 663 1717 691 q 1701 600 1718 635 q 1577 267 1661 503 q 1527 207 1558 215 q 1491 224 1502 200 q 1487 238 1488 231 q 1423 192 1457 200 q 1369 210 1390 184 q 1356 285 1349 235 q 1366 342 1362 323 q 1378 394 1373 372 q 1382 407 1380 401 q 1385 418 1383 414 q 1387 424 1386 422 q 1350 376 1369 406 q 1308 309 1323 335 q 1271 238 1285 268 q 1218 182 1250 193 q 1181 195 1191 172 q 1181 235 1175 210 q 1185 252 1182 240 q 1190 271 1187 264 q 1147 216 1165 233 q 1072 203 1103 172 q 1054 306 1040 233 q 1071 376 1059 333 q 1093 449 1082 418 q 1102 473 1093 450 q 1143 517 1116 514 q 1177 498 1166 520 q 1176 452 1187 478 q 1133 338 1145 380 q 1133 269 1108 248 q 1229 417 1162 292 l 1238 433 q 1240 441 1239 436 q 1242 450 1241 447 q 1273 527 1258 494 q 1305 553 1284 551 q 1340 537 1327 555 q 1341 492 1352 519 q 1331 468 1335 476 q 1313 429 1318 439 q 1298 396 1306 415 q 1291 378 1291 379 q 1319 423 1307 406 q 1350 465 1332 441 q 1381 501 1367 487 q 1440 532 1412 532 q 1476 504 1468 532 q 1468 425 1485 476 q 1447 364 1457 396 q 1428 256 1415 258 q 1477 307 1439 254 q 1493 328 1485 317 q 1522 375 1506 347 q 1641 696 1556 471 q 1497 665 1590 686 q 1404 644 1405 644 q 1265 625 1310 622 q 1164 702 1180 630 q 1116 619 1135 657 q 1049 470 1081 546 q 975 278 1021 403 q 909 103 929 154 q 905 95 907 101 q 901 85 903 88 q 1279 153 1016 102 q 1446 179 1369 170 q 1584 189 1522 188 q 1680 177 1645 189 q 1713 140 1714 165 q 1695 96 1712 129 q 1664 36 1678 62 q 1655 7 1650 9 q 1702 58 1664 5 q 1787 202 1754 128 q 1854 383 1820 277 q 1862 410 1860 401 q 1832 359 1851 389 q 1817 336 1821 342 q 1799 309 1813 330 q 1775 279 1784 289 q 1751 256 1765 269 q 1724 237 1737 242 q 1698 233 1710 232 q 1662 269 1671 237 q 1666 353 1652 302 q 1686 418 1676 391 q 1712 482 1698 453 q 1731 518 1723 505 q 1768 542 1746 542 q 1800 524 1791 542 q 1797 482 1808 506 q 1780 451 1786 463 q 1754 391 1765 420 q 1740 321 1725 315 q 1792 388 1754 327 q 1829 448 1806 410 q 1864 512 1841 469 q 1894 567 1885 550 m 650 370 q 671 408 667 382 q 659 459 675 434 q 605 492 642 485 q 612 379 583 414 q 647 368 628 358 q 650 370 649 369 m 2297 316 q 2320 266 2287 264 q 2399 313 2353 267 q 2459 399 2441 354 q 2457 390 2458 396 q 2451 364 2456 383 q 2440 328 2446 345 q 2422 288 2433 310 q 2397 248 2410 265 q 2363 216 2383 231 q 2321 197 2344 202 q 2261 205 2288 190 q 2217 300 2215 229 q 2223 349 2218 328 q 2247 420 2232 386 q 2282 491 2264 461 q 2323 549 2302 526 q 2380 586 2348 578 q 2434 580 2412 594 q 2464 535 2456 566 q 2451 453 2473 503 q 2409 386 2432 409 q 2363 361 2385 363 q 2336 371 2345 359 q 2336 401 2327 383 q 2354 397 2341 393 q 2379 418 2365 400 q 2400 456 2392 435 q 2411 494 2407 476 q 2406 515 2414 511 q 2394 509 2403 517 q 2369 478 2384 501 q 2336 422 2353 456 q 2297 316 2307 368 m 2210 534 q 2230 473 2232 515 q 2213 386 2228 431 q 2168 299 2198 341 q 2105 240 2138 258 q 2063 229 2085 229 q 2028 242 2041 228 q 2024 283 2015 256 q 2063 276 2037 260 q 2111 332 2089 292 q 2153 453 2146 397 q 2144 486 2159 488 q 2098 440 2129 481 q 2047 351 2072 404 q 1933 45 1972 195 q 1900 3 1923 9 q 1867 21 1878 -1 q 1868 90 1854 47 q 1927 261 1887 150 q 1980 413 1967 373 q 2000 472 1988 435 q 2016 519 2012 509 q 2025 545 2020 531 q 2033 567 2030 559 q 2066 594 2043 595 q 2096 572 2088 593 q 2095 538 2102 557 q 2087 514 2090 524 q 2131 547 2107 538 q 2176 551 2156 555 q 2210 534 2195 547 m 1207 550 q 1201 544 1207 550 q 1177 538 1195 538 q 1147 550 1160 538 q 1135 581 1135 563 q 1147 611 1135 598 q 1177 623 1160 623 q 1207 611 1195 623 q 1220 581 1220 598 q 1207 550 1220 563 m 1908 905 l 1934 983 l 1904 994 l 1911 1016 l 1997 987 l 1990 964 l 1959 975 l 1933 897 l 1908 905 m 1773 1007 l 1759 946 l 1733 952 l 1756 1056 l 1783 1050 l 1814 979 l 1828 1040 l 1853 1034 l 1830 930 l 1805 936 l 1773 1007 m 1669 979 q 1660 972 1669 979 q 1627 969 1650 966 q 1590 991 1604 972 q 1579 1032 1576 1010 q 1602 1068 1583 1055 q 1644 1078 1621 1081 q 1681 1056 1667 1074 q 1692 1015 1695 1037 q 1669 979 1689 992 m 1660 1041 q 1656 1047 1660 1041 q 1640 1054 1653 1052 q 1618 1048 1628 1056 q 1606 1028 1608 1040 q 1611 1005 1604 1015 q 1631 993 1619 995 q 1653 998 1643 991 q 1666 1019 1664 1006 q 1660 1041 1668 1031 m 1470 1026 l 1468 987 l 1441 988 l 1447 1094 l 1531 1090 l 1529 1066 l 1472 1069 l 1471 1050 l 1523 1047 l 1522 1023 l 1470 1026 m 1004 952 l 922 934 l 899 1038 l 981 1056 l 986 1033 l 930 1020 l 934 1004 l 985 1015 l 989 992 l 939 981 l 943 963 l 999 975 l 1004 952 m 815 900 l 779 888 l 744 988 l 781 1001 q 828 1001 806 1010 q 857 970 849 992 q 852 929 864 949 q 815 900 841 909 m 792 979 l 777 974 l 795 919 l 811 924 q 829 939 824 929 q 831 962 835 949 q 816 979 827 974 q 792 979 805 984 m 1275 985 q 1234 999 1252 983 q 1215 1037 1217 1015 q 1230 1077 1214 1059 q 1270 1095 1246 1094 q 1311 1081 1293 1096 q 1329 1043 1329 1065 q 1314 1003 1331 1021 q 1275 985 1298 985 m 1292 1063 q 1287 1067 1292 1063 q 1270 1071 1282 1072 q 1250 1061 1258 1070 q 1242 1038 1242 1051 q 1252 1017 1243 1025 q 1274 1009 1261 1008 q 1294 1019 1286 1010 q 1302 1042 1303 1029 q 1292 1063 1301 1055 m 1080 966 l 1055 962 l 1038 1067 l 1064 1072 l 1103 1021 l 1125 1080 l 1151 1084 l 1167 979 l 1141 976 l 1132 1036 l 1110 977 l 1072 1027 l 1080 966 m 706 905 q 545 827 622 871 l 530 851 q 696 931 612 897 l 706 905 m 2207 851 l 2192 827 q 2030 905 2115 871 l 2041 931 q 2207 851 2123 899 z "},"4":{"ha":2544,"x_min":78,"x_max":2473,"o":"m 1894 567 q 1925 600 1908 591 q 1954 601 1942 608 q 1973 576 1966 593 q 1973 533 1980 559 q 1749 -7 1878 151 q 1741 -16 1746 -10 q 1734 -24 1736 -22 q 1688 -55 1713 -45 q 1643 -60 1663 -64 q 1609 -42 1623 -56 q 1596 -4 1596 -29 q 1615 52 1597 22 q 1626 70 1617 58 q 1640 92 1634 82 q 1651 112 1647 102 q 1654 130 1656 123 q 1642 139 1652 137 q 1509 134 1608 145 q 1301 95 1411 123 q 1187 62 1272 87 q 1089 33 1124 43 q 982 4 1053 23 q 866 -24 911 -16 q 752 -44 820 -33 q 639 -54 684 -56 q 540 -49 594 -53 q 453 -26 486 -45 q 390 20 419 -7 q 350 92 361 47 q 343 194 338 136 q 407 116 363 146 q 515 75 451 86 q 653 63 580 63 q 819 75 726 64 q 781 110 798 90 q 759 149 764 131 q 762 323 747 182 q 787 488 764 345 q 808 698 810 631 q 787 750 807 735 q 742 755 768 764 q 696 721 717 746 q 643 624 671 691 q 616 543 628 586 q 688 480 665 524 q 702 391 712 437 q 668 332 694 353 q 614 311 643 311 q 558 329 586 311 q 519 380 531 347 q 520 487 507 414 q 383 441 497 483 q 211 399 269 400 q 118 433 156 397 q 78 543 81 468 q 148 502 102 512 q 248 498 193 491 q 353 517 302 505 q 457 542 405 529 q 536 555 510 554 q 540 567 538 559 q 544 579 543 575 q 601 703 567 648 q 682 796 635 760 q 728 824 702 813 q 784 834 755 834 q 835 819 814 835 q 881 713 874 789 q 880 591 886 656 q 860 441 873 526 q 842 318 846 357 q 841 301 842 310 q 838 273 840 292 q 837 239 837 254 q 838 209 837 224 q 842 185 839 193 q 852 178 846 176 q 859 183 855 178 q 866 197 862 187 q 874 216 871 207 q 885 244 878 226 q 897 276 892 262 q 956 440 917 327 q 1030 640 995 554 q 1106 795 1065 725 q 1251 913 1171 905 q 1333 884 1301 918 q 1348 825 1359 854 q 1347 822 1348 823 q 1315 836 1333 836 q 1279 826 1297 836 q 1240 796 1261 815 q 1203 755 1220 777 q 1168 708 1185 733 q 1237 689 1196 692 q 1322 695 1278 687 q 1422 720 1366 704 q 1527 753 1478 736 q 1636 788 1576 770 q 1741 817 1696 806 q 1792 825 1766 822 q 1849 829 1819 829 q 1904 824 1879 829 q 1952 808 1929 819 q 1988 779 1975 797 q 2007 733 2001 760 q 2002 670 2012 707 q 1693 706 1988 759 q 1717 663 1717 691 q 1701 600 1718 635 q 1577 267 1661 503 q 1527 207 1558 215 q 1491 224 1502 200 q 1487 238 1488 231 q 1423 192 1457 200 q 1369 210 1390 184 q 1356 285 1349 235 q 1366 342 1362 323 q 1378 394 1373 372 q 1382 407 1380 401 q 1385 418 1383 414 q 1387 424 1386 422 q 1350 376 1369 406 q 1308 309 1323 335 q 1271 238 1285 268 q 1218 182 1250 193 q 1181 195 1191 172 q 1181 235 1175 210 q 1185 252 1182 240 q 1190 271 1187 264 q 1147 216 1165 233 q 1072 203 1103 172 q 1054 306 1040 233 q 1071 376 1059 333 q 1093 449 1082 418 q 1102 473 1093 450 q 1143 517 1116 514 q 1177 498 1166 520 q 1176 452 1187 478 q 1133 338 1145 380 q 1133 269 1108 248 q 1229 417 1162 292 l 1238 433 q 1240 441 1239 436 q 1242 450 1241 447 q 1273 527 1258 494 q 1305 553 1284 551 q 1340 537 1327 555 q 1341 492 1352 519 q 1331 468 1335 476 q 1313 429 1318 439 q 1298 396 1306 415 q 1291 378 1291 379 q 1319 423 1307 406 q 1350 465 1332 441 q 1381 501 1367 487 q 1440 532 1412 532 q 1476 504 1468 532 q 1468 425 1485 476 q 1447 364 1457 396 q 1428 256 1415 258 q 1477 307 1439 254 q 1493 328 1485 317 q 1522 375 1506 347 q 1641 696 1556 471 q 1497 665 1590 686 q 1404 644 1405 644 q 1265 625 1310 622 q 1164 702 1180 630 q 1116 619 1135 657 q 1049 470 1081 546 q 975 278 1021 403 q 909 103 929 154 q 905 95 907 101 q 901 85 903 88 q 1279 153 1016 102 q 1446 179 1369 170 q 1584 189 1522 188 q 1680 177 1645 189 q 1713 140 1714 165 q 1695 96 1712 129 q 1664 36 1678 62 q 1655 7 1650 9 q 1702 58 1664 5 q 1787 202 1754 128 q 1854 383 1820 277 q 1862 410 1860 401 q 1832 359 1851 389 q 1817 336 1821 342 q 1799 309 1813 330 q 1775 279 1784 289 q 1751 256 1765 269 q 1724 237 1737 242 q 1698 233 1710 232 q 1662 269 1671 237 q 1666 353 1652 302 q 1686 418 1676 391 q 1712 482 1698 453 q 1731 518 1723 505 q 1768 542 1746 542 q 1800 524 1791 542 q 1797 482 1808 506 q 1780 451 1786 463 q 1754 391 1765 420 q 1740 321 1725 315 q 1792 388 1754 327 q 1829 448 1806 410 q 1864 512 1841 469 q 1894 567 1885 550 m 650 370 q 671 408 667 382 q 659 459 675 434 q 605 492 642 485 q 612 379 583 414 q 647 368 628 358 q 650 370 649 369 m 2297 316 q 2320 266 2287 264 q 2399 313 2353 267 q 2459 399 2441 354 q 2457 390 2458 396 q 2451 364 2456 383 q 2440 328 2446 345 q 2422 288 2433 310 q 2397 248 2410 265 q 2363 216 2383 231 q 2321 197 2344 202 q 2261 205 2288 190 q 2217 300 2215 229 q 2223 349 2218 328 q 2247 420 2232 386 q 2282 491 2264 461 q 2323 549 2302 526 q 2380 586 2348 578 q 2434 580 2412 594 q 2464 535 2456 566 q 2451 453 2473 503 q 2409 386 2432 409 q 2363 361 2385 363 q 2336 371 2345 359 q 2335 401 2326 383 q 2354 397 2340 393 q 2379 418 2365 400 q 2400 456 2392 435 q 2411 494 2407 476 q 2406 515 2414 511 q 2394 509 2403 517 q 2369 478 2384 501 q 2336 422 2353 456 q 2297 316 2307 368 m 2209 534 q 2229 473 2229 515 q 2213 386 2228 431 q 2168 299 2197 341 q 2105 240 2138 258 q 2063 229 2085 229 q 2028 242 2041 228 q 2024 283 2015 256 q 2063 276 2037 260 q 2111 332 2089 292 q 2153 453 2146 397 q 2144 486 2159 488 q 2098 440 2129 481 q 2047 351 2070 401 q 1933 45 1973 198 q 1900 3 1923 9 q 1867 21 1878 -1 q 1868 90 1854 47 q 1928 264 1888 151 q 1980 413 1967 378 q 2016 519 2009 498 q 2025 545 2020 531 q 2033 567 2030 559 q 2066 594 2043 595 q 2096 572 2088 593 q 2095 538 2102 557 q 2087 514 2090 524 q 2131 547 2107 538 q 2175 551 2155 555 q 2209 534 2195 547 m 1207 550 q 1201 544 1207 550 q 1177 538 1195 538 q 1147 550 1160 538 q 1135 581 1135 563 q 1147 611 1135 598 q 1177 623 1160 623 q 1207 611 1195 623 q 1220 581 1220 598 q 1207 550 1220 563 m 1908 905 l 1934 983 l 1904 994 l 1911 1016 l 1997 987 l 1990 964 l 1959 975 l 1933 897 l 1908 905 m 1470 1026 l 1468 987 l 1441 988 l 1447 1094 l 1530 1090 l 1529 1066 l 1472 1069 l 1471 1050 l 1523 1047 l 1522 1023 l 1470 1026 m 1669 979 q 1660 972 1669 979 q 1627 969 1650 966 q 1590 991 1604 972 q 1579 1032 1575 1010 q 1601 1068 1582 1055 q 1644 1078 1621 1081 q 1681 1056 1667 1074 q 1692 1015 1695 1037 q 1669 979 1689 992 m 1660 1041 q 1656 1047 1660 1041 q 1640 1054 1653 1052 q 1618 1048 1628 1056 q 1606 1028 1608 1040 q 1611 1005 1604 1015 q 1631 993 1619 995 q 1653 998 1643 991 q 1665 1019 1663 1006 q 1660 1041 1667 1031 m 1773 1007 l 1759 946 l 1733 952 l 1756 1056 l 1782 1050 l 1814 979 l 1828 1040 l 1853 1034 l 1830 930 l 1805 936 l 1773 1007 m 1004 952 l 922 934 l 899 1038 l 981 1056 l 986 1033 l 930 1020 l 934 1004 l 985 1015 l 989 992 l 939 981 l 943 963 l 999 975 l 1004 952 m 815 900 l 778 888 l 744 988 l 781 1001 q 828 1001 806 1010 q 857 970 849 992 q 852 929 864 949 q 815 900 841 909 m 792 979 l 777 974 l 795 919 l 811 924 q 829 939 824 929 q 831 962 835 949 q 816 979 827 974 q 792 979 805 984 m 1080 966 l 1055 962 l 1038 1067 l 1064 1072 l 1103 1021 l 1125 1080 l 1151 1084 l 1167 979 l 1141 976 l 1132 1036 l 1109 977 l 1071 1027 l 1080 966 m 1275 985 q 1234 999 1252 983 q 1215 1037 1217 1015 q 1230 1077 1214 1059 q 1270 1095 1246 1094 q 1311 1081 1293 1096 q 1329 1043 1329 1065 q 1314 1003 1331 1021 q 1275 985 1298 985 m 1292 1063 q 1287 1067 1292 1063 q 1270 1071 1282 1072 q 1250 1061 1258 1070 q 1242 1038 1241 1051 q 1252 1017 1242 1025 q 1274 1009 1261 1008 q 1294 1019 1286 1010 q 1302 1042 1303 1029 q 1292 1063 1301 1055 m 706 905 q 545 827 622 871 l 530 851 q 696 931 614 899 l 706 905 m 2207 851 l 2192 827 q 2030 905 2115 871 l 2041 931 q 2207 851 2123 899 z "},"5":{"ha":2544,"x_min":78,"x_max":2473,"o":"m 1894 567 q 1925 600 1908 591 q 1954 601 1942 608 q 1973 576 1966 593 q 1973 533 1980 559 q 1750 -7 1877 150 q 1742 -15 1747 -9 q 1734 -24 1737 -21 q 1696 -51 1716 -41 q 1657 -61 1675 -60 q 1625 -53 1639 -61 q 1603 -32 1610 -45 q 1598 4 1595 -18 q 1615 52 1600 26 q 1627 70 1618 58 q 1641 92 1635 82 q 1651 112 1647 102 q 1654 130 1656 123 q 1642 139 1652 137 q 1509 134 1608 145 q 1301 95 1411 123 q 1187 62 1272 87 q 1089 33 1124 43 q 982 4 1053 23 q 866 -24 911 -16 q 752 -44 820 -33 q 639 -54 684 -56 q 540 -49 594 -53 q 453 -26 486 -45 q 390 20 419 -7 q 350 92 361 47 q 343 194 338 136 q 407 116 363 146 q 516 75 451 86 q 653 63 581 63 q 819 75 726 64 q 782 111 799 90 q 759 149 764 132 q 762 323 747 182 q 787 488 764 345 q 808 698 810 631 q 788 749 807 735 q 743 755 768 764 q 696 721 718 746 q 643 624 670 689 q 616 543 628 586 q 688 480 665 524 q 702 391 712 437 q 668 332 694 353 q 614 311 643 311 q 558 329 586 311 q 519 380 531 347 q 520 487 507 414 q 383 441 497 483 q 211 399 269 400 q 118 433 156 397 q 78 543 81 468 q 148 502 102 512 q 248 498 193 491 q 353 517 302 505 q 457 542 405 529 q 536 555 510 554 q 540 567 538 559 q 544 579 543 575 q 601 703 567 648 q 682 796 635 760 q 728 824 702 813 q 784 834 755 834 q 835 819 814 835 q 881 713 874 789 q 880 592 886 656 q 860 442 873 527 q 842 319 846 357 q 841 301 842 311 q 838 273 840 292 q 837 239 837 255 q 838 209 837 224 q 842 185 839 193 q 852 178 846 176 q 859 183 855 178 q 866 197 862 187 q 874 216 871 207 q 885 244 878 226 q 897 276 892 262 q 956 440 917 327 q 1030 640 995 554 q 1106 795 1065 725 q 1251 913 1171 905 q 1333 884 1301 918 q 1348 825 1359 854 q 1347 822 1348 823 q 1315 836 1333 836 q 1279 826 1297 836 q 1240 796 1261 815 q 1203 755 1220 777 q 1168 708 1185 733 q 1237 689 1196 692 q 1322 695 1278 687 q 1422 720 1366 704 q 1527 753 1478 736 q 1636 788 1576 770 q 1741 817 1696 806 q 1792 825 1766 822 q 1849 829 1819 829 q 1904 824 1879 829 q 1952 808 1929 819 q 1988 779 1975 797 q 2007 733 2001 760 q 2002 670 2012 707 q 1693 706 1988 759 q 1717 663 1717 691 q 1701 600 1718 635 q 1577 267 1661 503 q 1527 207 1558 215 q 1491 224 1502 200 q 1487 238 1488 231 q 1423 192 1457 200 q 1369 210 1390 184 q 1356 285 1349 235 q 1366 342 1362 323 q 1378 394 1373 372 q 1382 407 1380 401 q 1385 418 1383 414 q 1387 424 1386 422 q 1350 376 1369 406 q 1308 309 1323 335 q 1271 239 1283 264 q 1218 182 1250 194 q 1181 195 1191 173 q 1181 235 1175 210 q 1185 252 1182 240 q 1190 271 1187 264 q 1147 216 1166 235 q 1072 203 1103 173 q 1054 306 1040 233 q 1071 376 1059 333 q 1093 449 1082 418 q 1102 473 1093 450 q 1143 517 1116 514 q 1177 498 1166 520 q 1176 452 1187 478 q 1133 338 1145 380 q 1133 269 1108 248 q 1229 417 1162 292 l 1238 433 q 1240 441 1239 436 q 1242 450 1241 447 q 1273 527 1258 494 q 1305 553 1284 551 q 1340 537 1327 555 q 1341 492 1352 519 q 1331 468 1335 476 q 1313 429 1318 439 q 1298 396 1306 415 q 1291 378 1291 379 q 1319 423 1307 406 q 1350 465 1332 441 q 1381 501 1367 487 q 1440 532 1412 532 q 1476 504 1468 532 q 1468 425 1485 476 q 1447 364 1457 396 q 1428 256 1415 258 q 1477 307 1439 254 q 1493 328 1485 317 q 1522 375 1506 347 q 1641 696 1556 471 q 1497 665 1590 686 q 1404 644 1405 644 q 1265 625 1310 622 q 1164 702 1180 630 q 1116 619 1135 657 q 1049 470 1081 546 q 975 278 1021 403 q 909 103 929 154 q 905 95 907 101 q 901 85 903 88 q 1279 153 1016 102 q 1446 179 1369 170 q 1584 189 1522 188 q 1680 177 1645 189 q 1713 140 1714 165 q 1695 96 1712 129 q 1664 36 1678 62 q 1655 7 1650 9 q 1702 58 1664 5 q 1787 202 1754 128 q 1854 383 1820 277 q 1862 410 1860 401 q 1832 359 1851 389 q 1817 336 1821 342 q 1799 309 1813 330 q 1775 279 1784 289 q 1751 256 1765 269 q 1724 237 1737 242 q 1698 233 1710 232 q 1662 269 1671 237 q 1666 353 1652 302 q 1686 418 1676 391 q 1712 482 1698 453 q 1731 518 1723 505 q 1768 542 1746 542 q 1800 524 1791 542 q 1797 482 1808 506 q 1780 451 1786 463 q 1754 391 1765 420 q 1740 321 1725 315 q 1792 388 1754 327 q 1829 448 1806 410 q 1864 512 1841 469 q 1894 567 1885 550 m 650 370 q 671 408 667 382 q 659 459 675 434 q 605 492 642 485 q 612 379 583 414 q 647 368 628 358 q 650 370 649 369 m 2297 316 q 2320 266 2287 264 q 2399 313 2353 267 q 2459 399 2441 354 q 2457 390 2458 396 q 2451 364 2456 383 q 2440 328 2446 345 q 2422 288 2433 310 q 2397 248 2410 265 q 2363 216 2383 231 q 2321 197 2344 202 q 2261 205 2288 190 q 2217 300 2215 229 q 2223 349 2218 328 q 2247 420 2232 386 q 2282 491 2264 461 q 2323 549 2302 526 q 2380 586 2348 578 q 2434 580 2412 594 q 2464 535 2456 566 q 2451 453 2473 503 q 2409 386 2432 409 q 2363 361 2385 363 q 2336 371 2345 359 q 2335 401 2326 383 q 2354 397 2340 393 q 2379 418 2365 400 q 2400 456 2392 435 q 2411 494 2407 476 q 2406 515 2414 511 q 2394 509 2403 517 q 2369 478 2384 501 q 2336 422 2353 456 q 2297 316 2307 368 m 2210 534 q 2230 473 2232 515 q 2213 386 2228 431 q 2168 299 2198 341 q 2105 240 2138 258 q 2063 229 2085 229 q 2028 242 2041 228 q 2024 283 2015 256 q 2063 276 2037 260 q 2111 332 2089 292 q 2153 453 2146 397 q 2144 486 2159 488 q 2098 440 2129 481 q 2047 351 2072 404 q 1933 45 1972 195 q 1900 3 1923 9 q 1867 21 1878 -1 q 1868 90 1854 47 q 1927 261 1887 150 q 1980 413 1967 373 q 2000 472 1988 435 q 2016 519 2012 509 q 2025 545 2020 531 q 2033 567 2030 559 q 2066 594 2043 595 q 2096 572 2088 593 q 2095 538 2102 557 q 2087 514 2090 524 q 2131 547 2107 538 q 2176 551 2156 555 q 2210 534 2195 547 m 1207 550 q 1201 544 1207 550 q 1177 538 1195 538 q 1147 550 1160 538 q 1135 581 1135 563 q 1147 611 1135 598 q 1177 623 1160 623 q 1207 611 1195 623 q 1220 581 1220 598 q 1207 550 1220 563 m 1669 979 q 1660 972 1669 979 q 1627 969 1650 966 q 1590 991 1604 972 q 1579 1032 1575 1010 q 1601 1068 1582 1055 q 1644 1078 1621 1081 q 1681 1056 1667 1074 q 1692 1015 1695 1037 q 1669 979 1689 992 m 1660 1041 q 1656 1047 1660 1041 q 1640 1054 1653 1052 q 1618 1048 1628 1056 q 1606 1028 1608 1040 q 1611 1005 1604 1015 q 1631 993 1619 995 q 1653 998 1643 991 q 1665 1019 1663 1006 q 1660 1041 1667 1031 m 1470 1026 l 1468 987 l 1441 988 l 1447 1094 l 1531 1090 l 1529 1066 l 1472 1069 l 1471 1050 l 1523 1047 l 1522 1023 l 1470 1026 m 815 900 l 779 888 l 744 988 l 781 1001 q 828 1001 806 1010 q 857 970 849 992 q 852 929 864 949 q 815 900 841 909 m 792 979 l 777 974 l 795 919 l 811 924 q 829 939 824 929 q 831 962 835 949 q 816 979 827 974 q 792 979 805 984 m 1908 905 l 1934 983 l 1904 994 l 1911 1016 l 1997 987 l 1990 964 l 1959 975 l 1933 897 l 1908 905 m 1773 1007 l 1759 946 l 1733 952 l 1756 1056 l 1782 1050 l 1814 979 l 1828 1040 l 1853 1034 l 1830 930 l 1805 936 l 1773 1007 m 1004 952 l 922 934 l 899 1038 l 981 1056 l 986 1033 l 930 1020 l 934 1004 l 985 1015 l 989 992 l 939 981 l 943 963 l 999 975 l 1004 952 m 1080 966 l 1055 962 l 1038 1067 l 1064 1072 l 1103 1021 l 1125 1080 l 1151 1084 l 1167 979 l 1141 976 l 1132 1036 l 1109 977 l 1071 1027 l 1080 966 m 1275 985 q 1234 999 1252 983 q 1215 1037 1217 1015 q 1230 1077 1214 1059 q 1270 1095 1246 1094 q 1311 1081 1293 1096 q 1329 1043 1329 1065 q 1314 1003 1331 1021 q 1275 985 1298 985 m 1292 1063 q 1287 1067 1292 1063 q 1270 1071 1282 1072 q 1250 1061 1258 1070 q 1242 1038 1241 1051 q 1252 1017 1242 1025 q 1274 1009 1261 1008 q 1294 1019 1286 1010 q 1302 1042 1303 1029 q 1292 1063 1301 1055 m 706 905 q 545 827 622 871 l 530 851 q 696 931 612 897 l 706 905 m 2207 851 l 2192 827 q 2030 905 2115 871 l 2041 931 q 2207 851 2123 899 z "},"6":{"ha":2544,"x_min":78,"x_max":2473,"o":"m 1894 567 q 1925 600 1908 591 q 1954 601 1942 608 q 1973 576 1966 593 q 1973 533 1980 559 q 1750 -7 1877 150 q 1742 -15 1747 -9 q 1734 -24 1737 -21 q 1696 -51 1716 -41 q 1657 -61 1675 -60 q 1625 -53 1639 -61 q 1603 -32 1610 -45 q 1598 4 1595 -18 q 1615 52 1600 26 q 1627 70 1618 58 q 1641 92 1635 82 q 1651 112 1647 102 q 1654 130 1656 123 q 1642 139 1652 137 q 1509 134 1608 145 q 1301 95 1411 123 q 1187 62 1272 87 q 1089 33 1124 43 q 982 4 1053 23 q 866 -24 911 -16 q 752 -44 820 -33 q 639 -54 684 -56 q 540 -49 594 -53 q 453 -26 486 -45 q 390 20 419 -7 q 350 92 361 47 q 343 194 338 136 q 407 116 363 146 q 516 75 451 86 q 653 63 581 63 q 819 75 726 64 q 782 110 799 90 q 760 149 765 131 q 762 323 747 183 q 787 488 764 345 q 808 698 810 631 q 788 749 807 735 q 743 755 768 764 q 696 721 718 746 q 643 624 670 689 q 616 543 628 586 q 688 480 665 524 q 702 391 712 437 q 668 332 694 353 q 614 311 643 311 q 558 329 586 311 q 519 380 531 347 q 520 487 507 414 q 383 441 497 483 q 211 399 269 400 q 118 433 156 397 q 78 543 81 468 q 148 502 102 512 q 248 498 193 491 q 353 517 302 505 q 457 542 405 529 q 536 555 510 554 q 540 567 538 559 q 544 579 543 575 q 601 703 567 648 q 682 796 635 760 q 728 824 702 813 q 784 834 755 834 q 835 819 814 835 q 881 713 874 789 q 880 592 886 656 q 860 442 873 527 q 842 319 846 357 q 841 301 842 311 q 838 273 840 292 q 837 239 837 255 q 838 209 837 224 q 842 185 839 193 q 852 178 846 176 q 859 183 855 178 q 866 197 862 187 q 874 216 871 207 q 885 244 878 226 q 897 276 892 262 q 956 440 917 327 q 1030 640 995 554 q 1106 795 1065 725 q 1251 913 1171 905 q 1333 884 1301 918 q 1348 825 1359 854 q 1347 822 1348 823 q 1315 836 1333 836 q 1279 826 1297 836 q 1240 796 1261 815 q 1203 755 1220 777 q 1168 708 1185 733 q 1237 689 1196 692 q 1322 695 1278 687 q 1422 720 1366 704 q 1527 753 1478 736 q 1636 788 1576 770 q 1741 817 1696 806 q 1792 825 1766 822 q 1849 829 1819 829 q 1904 824 1879 829 q 1952 808 1929 819 q 1988 779 1975 797 q 2007 733 2001 760 q 2002 670 2012 707 q 1693 706 1988 759 q 1717 663 1717 691 q 1701 600 1718 635 q 1577 267 1661 503 q 1527 207 1558 215 q 1491 224 1502 200 q 1487 238 1488 231 q 1423 192 1457 200 q 1369 210 1390 184 q 1356 285 1349 235 q 1366 342 1362 323 q 1378 394 1373 372 q 1382 407 1380 401 q 1385 418 1383 414 q 1387 424 1386 422 q 1350 376 1369 406 q 1308 309 1323 335 q 1271 239 1283 264 q 1218 182 1250 194 q 1181 195 1191 173 q 1181 235 1175 210 q 1185 252 1182 240 q 1190 271 1187 264 q 1147 216 1166 235 q 1072 203 1103 173 q 1054 306 1040 233 q 1071 376 1059 333 q 1093 449 1082 418 q 1102 473 1093 450 q 1143 517 1116 514 q 1177 498 1166 520 q 1176 452 1187 478 q 1133 338 1145 380 q 1133 269 1108 248 q 1229 417 1162 292 l 1238 433 q 1240 441 1239 436 q 1242 450 1241 447 q 1273 527 1258 494 q 1305 553 1284 551 q 1340 537 1327 555 q 1341 492 1352 519 q 1331 468 1335 476 q 1313 429 1318 439 q 1298 396 1306 415 q 1291 378 1291 379 q 1319 423 1307 406 q 1350 465 1332 441 q 1381 501 1371 491 q 1440 532 1412 532 q 1476 504 1468 532 q 1468 425 1485 476 q 1447 364 1457 396 q 1428 256 1415 258 q 1477 307 1439 254 q 1493 328 1485 317 q 1522 375 1506 347 q 1641 696 1556 471 q 1497 665 1590 686 q 1404 644 1405 644 q 1265 625 1310 622 q 1164 702 1180 630 q 1116 619 1135 657 q 1049 470 1081 546 q 975 278 1021 403 q 909 103 929 154 q 905 95 907 101 q 901 85 903 88 q 1279 153 1016 102 q 1446 179 1369 170 q 1584 189 1522 188 q 1680 177 1645 189 q 1713 140 1714 165 q 1695 96 1712 129 q 1664 36 1678 62 q 1655 7 1650 9 q 1702 58 1664 5 q 1787 202 1754 128 q 1854 383 1820 277 q 1862 410 1860 401 q 1832 359 1851 389 q 1817 336 1821 342 q 1799 309 1813 330 q 1775 279 1784 289 q 1751 256 1765 269 q 1724 237 1737 242 q 1698 233 1710 232 q 1662 269 1671 237 q 1666 353 1652 302 q 1686 418 1676 391 q 1712 482 1698 453 q 1731 518 1723 505 q 1768 542 1746 542 q 1800 524 1791 542 q 1797 482 1808 506 q 1780 451 1786 463 q 1754 391 1765 420 q 1740 321 1725 315 q 1792 388 1754 327 q 1829 448 1806 410 q 1864 512 1841 469 q 1894 567 1885 550 m 650 370 q 671 408 667 382 q 659 459 675 434 q 605 492 642 485 q 612 379 583 414 q 647 368 628 358 q 650 370 649 369 m 2297 316 q 2320 266 2287 264 q 2399 313 2353 267 q 2459 399 2441 354 q 2457 390 2458 396 q 2451 364 2456 383 q 2440 328 2446 345 q 2422 288 2433 310 q 2397 248 2410 265 q 2363 216 2383 231 q 2321 197 2344 202 q 2261 205 2288 190 q 2217 300 2215 229 q 2223 349 2218 328 q 2247 420 2232 386 q 2282 491 2264 461 q 2323 549 2302 526 q 2380 586 2348 578 q 2434 580 2412 594 q 2464 535 2456 566 q 2451 453 2473 503 q 2409 386 2432 409 q 2363 361 2385 363 q 2336 371 2345 359 q 2335 401 2326 383 q 2354 397 2340 393 q 2379 418 2365 400 q 2400 456 2392 435 q 2411 494 2407 476 q 2406 515 2414 511 q 2394 509 2403 517 q 2369 478 2384 501 q 2336 422 2353 456 q 2297 316 2307 368 m 2209 534 q 2229 473 2229 515 q 2213 386 2228 431 q 2168 299 2197 341 q 2105 240 2138 258 q 2063 229 2085 229 q 2028 242 2041 228 q 2024 283 2015 256 q 2063 276 2037 260 q 2111 332 2089 292 q 2153 453 2146 397 q 2144 486 2159 488 q 2098 440 2129 481 q 2047 351 2070 401 q 1933 45 1973 198 q 1900 3 1923 9 q 1867 21 1878 -1 q 1868 90 1854 47 q 1928 264 1888 151 q 1980 413 1967 378 q 2016 519 2009 498 q 2025 545 2020 531 q 2033 567 2030 559 q 2066 594 2043 595 q 2096 572 2088 593 q 2095 538 2102 557 q 2087 514 2090 524 q 2131 547 2107 538 q 2175 551 2155 555 q 2209 534 2195 547 m 1207 550 q 1201 544 1207 550 q 1177 538 1195 538 q 1147 550 1160 538 q 1135 581 1135 563 q 1147 611 1135 598 q 1177 623 1160 623 q 1207 611 1195 623 q 1220 581 1220 598 q 1207 550 1220 563 m 1669 979 q 1660 972 1669 979 q 1627 969 1650 966 q 1590 991 1604 972 q 1579 1032 1575 1010 q 1601 1068 1582 1055 q 1644 1078 1621 1081 q 1681 1056 1667 1074 q 1692 1015 1695 1037 q 1669 979 1689 992 m 1660 1041 q 1656 1047 1660 1041 q 1640 1054 1653 1052 q 1618 1048 1628 1056 q 1606 1028 1608 1040 q 1611 1005 1604 1015 q 1631 993 1619 995 q 1653 998 1643 991 q 1665 1019 1663 1006 q 1660 1041 1667 1031 m 1773 1007 l 1759 946 l 1733 952 l 1756 1056 l 1782 1050 l 1814 979 l 1828 1040 l 1853 1034 l 1830 930 l 1805 936 l 1773 1007 m 815 900 l 778 888 l 744 988 l 781 1001 q 828 1001 806 1010 q 857 970 849 992 q 852 929 864 949 q 815 900 841 909 m 792 979 l 777 974 l 795 919 l 811 924 q 829 939 824 929 q 831 962 835 949 q 816 979 827 974 q 792 979 805 984 m 1470 1026 l 1468 987 l 1441 988 l 1447 1094 l 1530 1090 l 1529 1066 l 1472 1069 l 1471 1050 l 1523 1047 l 1522 1023 l 1470 1026 m 1908 905 l 1934 983 l 1904 994 l 1911 1016 l 1997 987 l 1990 964 l 1959 975 l 1933 897 l 1908 905 m 1004 952 l 922 934 l 899 1038 l 981 1056 l 986 1033 l 930 1020 l 934 1004 l 985 1015 l 989 992 l 939 981 l 943 963 l 999 975 l 1004 952 m 1080 966 l 1055 962 l 1038 1067 l 1064 1072 l 1103 1021 l 1125 1080 l 1151 1084 l 1167 979 l 1141 976 l 1132 1036 l 1109 977 l 1071 1027 l 1080 966 m 1275 985 q 1234 999 1252 983 q 1215 1037 1217 1015 q 1230 1077 1214 1059 q 1270 1095 1246 1094 q 1311 1081 1293 1096 q 1329 1043 1329 1065 q 1314 1003 1331 1021 q 1275 985 1298 985 m 1292 1063 q 1287 1067 1292 1063 q 1270 1071 1282 1072 q 1250 1061 1258 1070 q 1242 1038 1241 1051 q 1252 1017 1242 1025 q 1274 1009 1261 1008 q 1294 1019 1286 1010 q 1302 1042 1303 1029 q 1292 1063 1301 1055 m 706 905 q 545 827 622 871 l 530 851 q 696 931 614 899 l 706 905 m 2207 851 l 2192 827 q 2030 905 2115 871 l 2041 931 q 2207 851 2123 899 z "},"7":{"ha":2544,"x_min":78,"x_max":2473,"o":"m 1894 567 q 1925 600 1908 591 q 1954 601 1942 608 q 1973 576 1966 593 q 1973 533 1980 559 q 1749 -7 1878 151 q 1734 -24 1744 -13 q 1688 -55 1713 -45 q 1643 -60 1663 -64 q 1609 -42 1623 -55 q 1596 -4 1596 -29 q 1615 52 1597 22 q 1626 70 1617 58 q 1640 92 1634 82 q 1651 112 1647 102 q 1654 130 1656 123 q 1642 139 1652 137 q 1509 134 1608 145 q 1301 95 1411 123 q 1187 62 1272 87 q 1089 33 1124 43 q 982 4 1053 23 q 866 -24 911 -16 q 752 -44 820 -33 q 639 -54 684 -56 q 540 -49 594 -53 q 453 -26 486 -45 q 390 20 419 -7 q 350 92 361 47 q 343 194 338 136 q 407 116 363 146 q 515 75 451 86 q 653 63 580 63 q 819 75 726 64 q 781 110 798 90 q 759 149 764 131 q 762 323 747 182 q 787 488 764 345 q 808 698 810 631 q 787 750 807 735 q 742 755 768 764 q 696 721 717 746 q 643 624 671 691 q 616 543 628 586 q 688 480 665 524 q 702 391 712 437 q 668 332 694 353 q 614 311 643 311 q 558 329 586 311 q 519 380 531 347 q 520 487 507 414 q 383 441 497 483 q 211 399 269 400 q 118 433 156 397 q 78 543 81 468 q 148 502 102 512 q 248 498 193 491 q 353 517 302 505 q 457 542 405 529 q 536 555 510 554 q 540 567 538 559 q 544 579 543 575 q 601 703 567 648 q 682 796 635 760 q 728 824 702 813 q 784 834 755 834 q 835 819 814 835 q 881 713 874 789 q 880 592 886 656 q 860 442 873 527 q 842 319 846 357 q 841 301 842 311 q 838 273 840 292 q 837 239 837 255 q 838 209 837 224 q 842 185 839 193 q 852 178 846 176 q 859 183 855 178 q 866 197 862 187 q 874 216 871 207 q 885 244 878 226 q 897 276 892 262 q 956 440 917 327 q 1030 640 995 554 q 1106 795 1065 725 q 1251 913 1171 905 q 1333 884 1301 918 q 1348 825 1359 854 q 1347 822 1348 823 q 1315 836 1333 836 q 1279 826 1297 836 q 1240 796 1261 815 q 1203 755 1220 777 q 1168 708 1185 733 q 1237 689 1196 692 q 1322 695 1278 687 q 1422 720 1366 704 q 1527 753 1478 736 q 1636 788 1576 770 q 1741 817 1696 806 q 1792 825 1766 822 q 1849 829 1819 829 q 1904 824 1879 829 q 1952 808 1929 819 q 1988 779 1975 797 q 2007 733 2001 760 q 2002 670 2012 707 q 1693 706 1988 759 q 1717 663 1717 691 q 1701 600 1718 635 q 1577 267 1661 503 q 1527 207 1558 215 q 1491 224 1502 200 q 1487 238 1488 231 q 1423 192 1457 200 q 1369 210 1390 184 q 1356 285 1349 235 q 1366 342 1362 323 q 1378 394 1373 372 q 1382 407 1380 401 q 1385 418 1383 414 q 1387 424 1386 422 q 1350 376 1369 406 q 1308 309 1323 335 q 1271 239 1283 264 q 1218 182 1250 194 q 1181 195 1191 173 q 1181 235 1175 210 q 1185 252 1182 240 q 1190 271 1187 264 q 1147 216 1166 235 q 1072 203 1103 173 q 1054 306 1040 233 q 1071 376 1059 333 q 1093 449 1082 418 q 1102 473 1093 450 q 1143 517 1116 514 q 1177 498 1166 520 q 1176 452 1187 478 q 1133 338 1145 380 q 1133 269 1108 248 q 1229 417 1162 292 l 1238 433 q 1240 441 1239 436 q 1242 450 1241 447 q 1273 527 1258 494 q 1305 553 1284 551 q 1340 537 1327 555 q 1341 492 1352 519 q 1331 468 1335 476 q 1313 429 1318 439 q 1298 396 1306 415 q 1291 378 1291 379 q 1319 423 1307 406 q 1350 465 1332 441 q 1381 501 1371 491 q 1440 532 1412 532 q 1476 504 1468 532 q 1468 425 1485 476 q 1447 364 1457 396 q 1428 256 1415 258 q 1477 307 1439 254 q 1493 328 1485 317 q 1522 375 1506 347 q 1641 696 1556 471 q 1497 665 1590 686 q 1404 644 1405 644 q 1265 625 1310 622 q 1164 702 1180 630 q 1116 619 1135 657 q 1049 470 1081 546 q 975 278 1021 403 q 909 103 929 154 q 905 95 907 101 q 901 85 903 88 q 1279 153 1016 102 q 1446 179 1369 170 q 1584 189 1522 188 q 1680 177 1645 189 q 1713 140 1714 165 q 1695 96 1712 129 q 1664 36 1678 62 q 1655 7 1650 9 q 1702 58 1664 5 q 1787 202 1754 128 q 1854 383 1820 277 q 1862 410 1860 401 q 1832 359 1851 389 q 1817 336 1821 342 q 1799 309 1813 330 q 1775 279 1784 289 q 1751 256 1765 269 q 1724 237 1737 242 q 1698 233 1710 232 q 1662 269 1671 237 q 1666 353 1652 302 q 1686 418 1676 391 q 1712 482 1698 453 q 1731 518 1723 505 q 1768 542 1746 542 q 1800 524 1791 542 q 1797 482 1808 506 q 1780 451 1786 463 q 1754 391 1765 420 q 1740 321 1725 315 q 1792 388 1754 327 q 1829 448 1806 410 q 1864 512 1841 469 q 1894 567 1885 550 m 650 370 q 671 408 667 382 q 659 459 675 434 q 605 492 642 485 q 612 379 583 414 q 647 368 628 358 q 650 370 649 369 m 2297 316 q 2320 266 2287 264 q 2399 313 2353 267 q 2459 399 2441 354 q 2457 390 2458 396 q 2451 364 2456 383 q 2440 328 2446 345 q 2422 288 2433 310 q 2397 248 2410 265 q 2363 216 2383 231 q 2321 197 2344 202 q 2261 205 2288 190 q 2217 300 2215 229 q 2223 349 2218 328 q 2247 420 2232 386 q 2282 491 2264 461 q 2323 549 2302 526 q 2380 586 2348 578 q 2434 580 2412 594 q 2464 535 2456 566 q 2451 453 2473 503 q 2409 386 2432 409 q 2363 361 2385 363 q 2336 371 2345 359 q 2336 401 2327 383 q 2354 397 2341 393 q 2379 418 2365 400 q 2400 456 2392 435 q 2411 494 2407 476 q 2406 515 2414 511 q 2394 509 2403 517 q 2369 478 2384 501 q 2336 422 2353 456 q 2297 316 2307 368 m 2210 534 q 2230 473 2232 515 q 2213 386 2228 431 q 2168 299 2198 341 q 2105 240 2138 258 q 2063 229 2085 229 q 2028 242 2041 228 q 2024 283 2015 256 q 2063 276 2037 260 q 2111 332 2089 292 q 2153 453 2146 397 q 2144 486 2159 488 q 2098 440 2129 481 q 2047 351 2072 404 q 1933 45 1972 195 q 1900 3 1923 9 q 1867 21 1878 -1 q 1868 90 1854 47 q 1927 261 1887 150 q 1980 413 1967 373 q 2000 472 1988 435 q 2016 519 2012 509 q 2025 545 2020 531 q 2033 567 2030 559 q 2066 594 2043 595 q 2096 572 2088 593 q 2095 538 2102 557 q 2087 514 2090 524 q 2131 547 2107 538 q 2176 551 2156 555 q 2210 534 2195 547 m 1207 550 q 1201 544 1207 550 q 1177 538 1195 538 q 1147 550 1160 538 q 1135 581 1135 563 q 1147 611 1135 598 q 1177 623 1160 623 q 1207 611 1195 623 q 1220 581 1220 598 q 1207 550 1220 563 m 1669 979 q 1660 972 1669 979 q 1627 969 1650 966 q 1590 991 1604 972 q 1579 1032 1575 1010 q 1601 1068 1582 1055 q 1644 1078 1621 1081 q 1681 1056 1667 1074 q 1692 1015 1695 1037 q 1669 979 1689 992 m 1660 1041 q 1656 1047 1660 1041 q 1640 1054 1653 1052 q 1618 1048 1628 1056 q 1606 1028 1608 1040 q 1611 1005 1604 1015 q 1631 993 1619 995 q 1653 998 1643 991 q 1665 1019 1663 1006 q 1660 1041 1667 1031 m 1470 1026 l 1468 987 l 1441 988 l 1447 1094 l 1531 1090 l 1529 1066 l 1472 1069 l 1471 1050 l 1523 1047 l 1522 1023 l 1470 1026 m 1908 905 l 1934 983 l 1904 994 l 1911 1016 l 1997 987 l 1990 964 l 1959 975 l 1933 897 l 1908 905 m 1773 1007 l 1759 946 l 1733 952 l 1756 1056 l 1782 1050 l 1814 979 l 1828 1040 l 1853 1034 l 1830 930 l 1805 936 l 1773 1007 m 815 900 l 779 888 l 744 988 l 781 1001 q 828 1001 806 1010 q 857 970 849 992 q 852 929 864 949 q 815 900 841 909 m 792 979 l 777 974 l 795 919 l 811 924 q 829 939 824 929 q 831 962 835 949 q 816 979 827 974 q 792 979 805 984 m 1275 985 q 1234 999 1252 983 q 1215 1037 1217 1015 q 1230 1077 1214 1059 q 1270 1095 1246 1094 q 1311 1081 1293 1096 q 1329 1043 1329 1065 q 1314 1003 1331 1021 q 1275 985 1298 985 m 1292 1063 q 1287 1067 1292 1063 q 1270 1071 1282 1072 q 1250 1061 1258 1070 q 1242 1038 1242 1051 q 1252 1017 1243 1025 q 1274 1009 1261 1008 q 1294 1019 1286 1010 q 1302 1042 1303 1029 q 1292 1063 1301 1055 m 1004 952 l 922 934 l 899 1038 l 981 1056 l 986 1033 l 930 1020 l 934 1004 l 985 1015 l 989 992 l 939 981 l 943 963 l 999 975 l 1004 952 m 1080 966 l 1055 962 l 1038 1067 l 1064 1072 l 1103 1021 l 1125 1080 l 1151 1084 l 1167 979 l 1141 976 l 1132 1036 l 1109 977 l 1071 1027 l 1080 966 m 706 905 q 545 827 622 871 l 530 851 q 696 931 612 897 l 706 905 m 2207 851 l 2192 827 q 2030 905 2115 871 l 2041 931 q 2207 851 2123 899 z "},"8":{"ha":2544,"x_min":78,"x_max":2473,"o":"m 1894 567 q 1925 600 1908 591 q 1954 601 1942 608 q 1973 576 1966 593 q 1973 533 1980 559 q 1749 -7 1878 151 q 1734 -24 1744 -13 q 1688 -55 1713 -45 q 1643 -60 1663 -64 q 1609 -42 1623 -55 q 1596 -4 1596 -29 q 1615 52 1597 22 q 1626 70 1617 58 q 1640 92 1634 82 q 1651 112 1647 102 q 1654 130 1656 123 q 1642 139 1652 137 q 1509 134 1608 145 q 1301 95 1411 123 q 1187 62 1272 87 q 1089 33 1124 43 q 982 4 1053 23 q 866 -24 911 -16 q 752 -44 820 -33 q 639 -54 684 -56 q 540 -49 594 -53 q 453 -26 486 -45 q 390 20 419 -7 q 350 92 361 47 q 343 194 338 136 q 407 116 363 146 q 515 75 451 86 q 653 63 580 63 q 819 75 726 64 q 781 110 798 90 q 759 149 764 131 q 762 323 747 182 q 787 488 764 345 q 808 698 810 631 q 787 750 807 735 q 742 755 768 764 q 696 721 717 746 q 643 624 671 691 q 616 543 628 586 q 688 480 665 524 q 702 391 712 437 q 668 332 694 353 q 614 311 643 311 q 558 329 586 311 q 519 380 531 347 q 520 487 507 414 q 383 441 497 483 q 211 399 269 400 q 118 433 156 397 q 78 543 81 468 q 148 502 102 512 q 248 498 193 491 q 353 517 302 505 q 457 542 405 529 q 536 555 510 554 q 540 567 538 559 q 544 579 543 575 q 601 703 567 648 q 682 796 635 760 q 728 824 702 813 q 784 834 755 834 q 835 819 814 835 q 881 713 874 789 q 880 592 886 656 q 860 442 873 527 q 842 319 846 357 q 841 301 842 311 q 838 273 840 292 q 837 239 837 255 q 838 209 837 224 q 842 185 839 193 q 852 178 846 176 q 859 183 855 178 q 866 197 862 187 q 874 216 871 207 q 885 244 878 226 q 897 276 892 262 q 956 440 917 327 q 1030 640 995 554 q 1106 795 1065 725 q 1251 913 1171 905 q 1333 884 1301 918 q 1348 825 1359 854 q 1347 822 1348 823 q 1315 836 1333 836 q 1279 826 1297 836 q 1240 796 1261 815 q 1203 755 1220 777 q 1168 708 1185 733 q 1237 689 1196 692 q 1322 695 1278 687 q 1422 720 1366 704 q 1527 753 1478 736 q 1636 788 1576 770 q 1741 817 1696 806 q 1792 825 1766 822 q 1849 829 1819 829 q 1904 824 1879 829 q 1952 808 1929 819 q 1988 779 1975 797 q 2007 733 2001 760 q 2002 670 2012 707 q 1693 706 1988 759 q 1717 663 1717 691 q 1701 600 1718 635 q 1577 267 1661 503 q 1527 207 1558 215 q 1491 224 1502 200 q 1487 238 1488 231 q 1423 192 1457 200 q 1369 210 1390 184 q 1356 285 1349 235 q 1366 342 1362 323 q 1378 394 1373 372 q 1382 407 1380 401 q 1385 418 1383 414 q 1387 424 1386 422 q 1350 376 1369 406 q 1308 309 1323 335 q 1271 239 1283 264 q 1218 182 1250 194 q 1181 195 1191 173 q 1181 235 1175 210 q 1185 252 1182 240 q 1190 271 1187 264 q 1147 216 1166 235 q 1072 203 1103 173 q 1054 306 1040 233 q 1071 376 1059 333 q 1093 449 1082 418 q 1102 473 1093 450 q 1143 517 1116 514 q 1177 498 1166 520 q 1176 452 1187 478 q 1133 338 1145 380 q 1133 269 1108 248 q 1229 417 1162 292 l 1238 433 q 1240 441 1239 436 q 1242 450 1241 447 q 1273 527 1258 494 q 1305 553 1284 551 q 1340 537 1327 555 q 1341 492 1352 519 q 1331 468 1335 476 q 1313 429 1318 439 q 1298 396 1306 415 q 1291 378 1291 379 q 1319 423 1307 406 q 1350 465 1332 441 q 1381 501 1371 491 q 1440 532 1412 532 q 1476 504 1468 532 q 1468 425 1485 476 q 1447 364 1457 396 q 1428 256 1415 258 q 1477 307 1439 254 q 1493 328 1485 317 q 1522 375 1506 347 q 1641 696 1556 471 q 1497 665 1590 686 q 1404 644 1405 644 q 1265 625 1310 622 q 1164 702 1180 630 q 1116 619 1135 657 q 1049 470 1081 546 q 975 278 1021 403 q 909 103 929 154 q 905 95 907 101 q 901 85 903 88 q 1279 153 1016 102 q 1446 179 1369 170 q 1584 189 1522 188 q 1680 177 1645 189 q 1713 140 1714 165 q 1695 96 1712 129 q 1664 36 1678 62 q 1655 7 1650 9 q 1702 58 1664 5 q 1787 202 1754 128 q 1854 383 1820 277 q 1861 410 1858 396 q 1832 359 1848 384 q 1813 330 1820 340 q 1790 298 1807 321 q 1760 263 1773 275 q 1730 241 1747 251 q 1697 233 1712 231 q 1661 269 1671 237 q 1666 353 1651 302 q 1685 418 1681 404 q 1712 482 1695 449 q 1731 518 1723 505 q 1768 542 1746 542 q 1800 524 1791 542 q 1797 482 1808 506 q 1780 451 1786 463 q 1754 391 1765 420 q 1740 321 1725 315 q 1792 388 1754 327 q 1829 448 1806 410 q 1864 512 1841 469 q 1894 567 1885 550 m 650 370 q 671 408 667 382 q 659 459 675 434 q 605 492 642 485 q 612 379 583 414 q 647 368 628 358 q 650 370 649 369 m 2297 316 q 2319 266 2287 264 q 2399 313 2352 267 q 2458 399 2440 354 q 2457 390 2458 396 q 2451 364 2456 383 q 2439 328 2445 345 q 2421 288 2433 310 q 2397 248 2410 265 q 2363 216 2383 231 q 2321 197 2344 202 q 2261 205 2288 190 q 2217 300 2215 229 q 2223 349 2218 328 q 2247 420 2232 386 q 2282 491 2264 461 q 2323 549 2302 526 q 2380 586 2348 578 q 2434 580 2412 594 q 2464 535 2456 566 q 2451 453 2473 503 q 2409 386 2432 409 q 2363 361 2385 363 q 2336 371 2345 359 q 2335 401 2326 383 q 2354 397 2340 393 q 2379 418 2365 400 q 2400 456 2392 435 q 2411 494 2407 476 q 2406 515 2414 511 q 2394 509 2403 517 q 2369 478 2384 501 q 2336 422 2353 456 q 2297 316 2307 368 m 2209 534 q 2229 473 2229 515 q 2213 386 2228 431 q 2168 299 2197 341 q 2105 240 2138 258 q 2063 229 2085 229 q 2028 242 2041 228 q 2024 283 2015 256 q 2063 276 2037 260 q 2111 332 2089 292 q 2153 453 2146 397 q 2144 486 2159 488 q 2098 440 2129 481 q 2047 351 2070 401 q 1933 45 1973 198 q 1900 3 1923 9 q 1867 21 1878 -1 q 1868 90 1854 47 q 1928 264 1888 151 q 1980 413 1967 378 q 2016 519 2009 498 q 2025 545 2020 531 q 2033 567 2030 559 q 2066 594 2043 595 q 2096 572 2088 593 q 2095 538 2102 557 q 2087 514 2090 524 q 2131 547 2107 538 q 2175 551 2155 555 q 2209 534 2195 547 m 1207 550 q 1201 544 1207 550 q 1177 538 1195 538 q 1147 550 1160 538 q 1135 581 1135 563 q 1147 611 1135 598 q 1177 623 1160 623 q 1207 611 1195 623 q 1220 581 1220 598 q 1207 550 1220 563 m 1908 905 l 1934 983 l 1904 994 l 1911 1016 l 1997 987 l 1990 964 l 1959 975 l 1933 897 l 1908 905 m 1773 1007 l 1759 946 l 1733 952 l 1756 1056 l 1782 1050 l 1814 979 l 1828 1040 l 1853 1034 l 1830 930 l 1805 936 l 1773 1007 m 1669 979 q 1660 972 1669 979 q 1627 969 1650 966 q 1590 991 1604 972 q 1579 1032 1575 1010 q 1601 1068 1582 1055 q 1644 1078 1621 1081 q 1681 1056 1667 1074 q 1692 1015 1695 1037 q 1669 979 1689 992 m 1660 1041 q 1656 1047 1660 1041 q 1640 1054 1653 1052 q 1618 1048 1628 1056 q 1606 1028 1608 1040 q 1611 1005 1604 1015 q 1631 993 1619 995 q 1653 998 1643 991 q 1665 1019 1663 1006 q 1660 1041 1667 1031 m 1470 1026 l 1468 987 l 1441 988 l 1447 1094 l 1530 1090 l 1529 1066 l 1472 1069 l 1471 1050 l 1523 1047 l 1522 1023 l 1470 1026 m 1004 952 l 922 934 l 899 1038 l 981 1056 l 986 1033 l 930 1020 l 934 1004 l 985 1015 l 989 992 l 939 981 l 943 963 l 999 975 l 1004 952 m 815 900 l 778 888 l 744 988 l 781 1001 q 828 1001 806 1010 q 857 970 849 992 q 852 929 864 949 q 815 900 841 909 m 792 979 l 777 974 l 795 919 l 811 924 q 829 939 824 929 q 831 962 835 949 q 816 979 827 974 q 792 979 805 984 m 1275 985 q 1234 999 1252 983 q 1215 1037 1217 1015 q 1230 1077 1214 1059 q 1270 1095 1246 1094 q 1311 1081 1293 1096 q 1329 1043 1329 1065 q 1314 1003 1331 1021 q 1275 985 1298 985 m 1292 1063 q 1287 1067 1292 1063 q 1270 1071 1282 1072 q 1250 1061 1258 1070 q 1242 1038 1241 1051 q 1252 1017 1242 1025 q 1274 1009 1261 1008 q 1294 1019 1286 1010 q 1302 1042 1303 1029 q 1292 1063 1301 1055 m 1080 966 l 1055 962 l 1038 1067 l 1064 1072 l 1103 1021 l 1125 1080 l 1151 1084 l 1167 979 l 1141 976 l 1132 1036 l 1109 977 l 1071 1027 l 1080 966 m 706 905 q 545 827 622 871 l 530 851 q 696 931 614 899 l 706 905 m 2207 851 l 2192 827 q 2030 905 2115 871 l 2040 931 q 2207 851 2124 897 z "},"9":{"ha":2544,"x_min":78,"x_max":2473,"o":"m 1894 567 q 1925 600 1908 591 q 1954 601 1942 608 q 1973 576 1966 593 q 1973 533 1980 559 q 1749 -7 1878 151 q 1734 -24 1744 -13 q 1688 -55 1713 -45 q 1643 -60 1663 -64 q 1609 -42 1623 -55 q 1596 -4 1596 -29 q 1615 52 1597 22 q 1626 70 1617 58 q 1640 92 1634 82 q 1651 112 1647 102 q 1654 130 1656 123 q 1642 139 1652 137 q 1509 134 1608 145 q 1301 95 1411 123 q 1187 62 1272 87 q 1089 33 1124 43 q 982 4 1053 23 q 866 -24 911 -16 q 752 -44 820 -33 q 639 -54 684 -56 q 540 -49 594 -53 q 453 -26 486 -45 q 390 20 419 -7 q 350 92 361 47 q 343 194 338 136 q 407 116 363 146 q 515 75 451 86 q 653 63 580 63 q 819 75 726 64 q 781 110 798 90 q 759 149 764 131 q 762 323 747 182 q 787 488 764 345 q 808 698 810 631 q 787 750 807 735 q 742 755 768 764 q 696 721 717 746 q 643 624 671 691 q 616 543 628 586 q 688 480 665 524 q 702 391 712 437 q 668 332 694 353 q 614 311 643 311 q 558 329 586 311 q 519 380 531 347 q 520 487 507 414 q 383 441 497 483 q 211 399 269 400 q 118 433 156 397 q 78 543 81 468 q 148 502 102 512 q 248 498 193 491 q 353 517 302 505 q 457 542 405 529 q 536 555 510 554 q 540 567 538 559 q 544 579 543 575 q 601 703 567 648 q 682 796 635 760 q 728 824 702 813 q 784 834 755 834 q 835 819 814 835 q 881 713 874 789 q 880 592 886 656 q 860 442 873 527 q 842 319 846 357 q 841 301 842 311 q 838 273 840 292 q 837 239 837 255 q 838 209 837 224 q 842 185 839 193 q 852 178 846 176 q 859 183 855 178 q 866 197 862 187 q 874 216 871 207 q 885 244 878 226 q 897 276 892 262 q 956 440 917 327 q 1030 640 995 554 q 1106 795 1065 725 q 1251 913 1171 905 q 1333 884 1301 918 q 1348 825 1359 854 q 1347 822 1348 823 q 1315 836 1333 836 q 1279 826 1297 836 q 1240 796 1261 815 q 1203 755 1220 777 q 1168 708 1185 733 q 1237 689 1196 692 q 1322 695 1278 687 q 1422 720 1366 704 q 1527 753 1478 736 q 1636 788 1576 770 q 1741 817 1696 806 q 1792 825 1766 822 q 1849 829 1819 829 q 1904 824 1879 829 q 1952 808 1929 819 q 1988 779 1975 797 q 2007 733 2001 760 q 2002 670 2012 707 q 1693 706 1988 759 q 1717 663 1717 691 q 1701 600 1718 635 q 1577 267 1661 503 q 1527 207 1558 215 q 1491 224 1502 200 q 1487 238 1488 231 q 1423 192 1457 200 q 1369 210 1390 184 q 1356 285 1349 235 q 1366 342 1362 323 q 1378 394 1373 372 q 1382 407 1380 401 q 1385 418 1383 414 q 1387 424 1386 422 q 1350 376 1369 406 q 1308 309 1323 335 q 1271 239 1283 264 q 1218 182 1250 194 q 1181 195 1191 173 q 1181 235 1175 210 q 1185 252 1182 240 q 1190 271 1187 264 q 1147 216 1166 235 q 1072 203 1103 173 q 1054 306 1040 233 q 1071 376 1059 333 q 1093 449 1082 418 q 1102 473 1093 450 q 1143 517 1116 514 q 1177 498 1166 520 q 1176 452 1187 478 q 1133 338 1145 380 q 1133 269 1108 248 q 1229 417 1162 292 l 1238 433 q 1240 441 1239 436 q 1242 450 1241 447 q 1273 527 1258 494 q 1305 553 1284 551 q 1340 537 1327 555 q 1341 492 1352 519 q 1331 468 1335 476 q 1313 429 1318 439 q 1298 396 1306 415 q 1291 378 1291 379 q 1319 423 1307 406 q 1350 465 1332 441 q 1381 501 1367 487 q 1440 532 1412 532 q 1476 504 1468 532 q 1468 425 1485 476 q 1447 364 1457 396 q 1428 256 1415 258 q 1477 307 1439 254 q 1493 328 1485 317 q 1522 375 1506 347 q 1641 696 1556 471 q 1497 665 1590 686 q 1404 644 1405 644 q 1265 625 1310 622 q 1164 702 1180 630 q 1116 619 1135 657 q 1049 470 1081 546 q 975 278 1021 403 q 909 103 929 154 q 905 95 907 101 q 901 85 903 88 q 1279 153 1016 102 q 1446 179 1369 170 q 1584 189 1522 188 q 1680 177 1645 189 q 1713 140 1714 165 q 1695 96 1712 129 q 1664 36 1678 62 q 1655 7 1650 9 q 1702 58 1664 5 q 1787 202 1754 128 q 1854 383 1820 277 q 1862 410 1860 401 q 1832 359 1851 389 q 1817 336 1821 342 q 1799 309 1813 330 q 1775 279 1784 289 q 1751 256 1765 269 q 1724 237 1737 242 q 1698 233 1710 232 q 1662 269 1671 237 q 1666 353 1652 302 q 1686 418 1676 391 q 1712 482 1698 453 q 1731 518 1723 505 q 1768 542 1746 542 q 1800 524 1791 542 q 1797 482 1808 506 q 1780 451 1786 463 q 1754 391 1765 420 q 1740 321 1725 315 q 1792 388 1754 327 q 1829 448 1806 410 q 1864 512 1841 469 q 1894 567 1885 550 m 650 370 q 671 408 667 382 q 659 459 675 434 q 605 492 642 485 q 612 379 583 414 q 647 368 628 358 q 650 370 649 369 m 2297 316 q 2320 266 2287 264 q 2399 313 2353 267 q 2459 399 2441 354 q 2457 390 2458 396 q 2451 364 2456 383 q 2440 328 2446 345 q 2422 288 2433 310 q 2397 248 2410 265 q 2363 216 2383 231 q 2321 197 2344 202 q 2261 205 2288 190 q 2217 300 2215 229 q 2223 349 2218 328 q 2247 420 2232 386 q 2282 491 2264 461 q 2323 549 2302 526 q 2380 586 2348 578 q 2434 580 2412 594 q 2464 535 2456 566 q 2451 453 2473 503 q 2409 386 2432 409 q 2363 361 2385 363 q 2336 371 2345 359 q 2336 401 2327 383 q 2354 397 2341 393 q 2379 418 2365 400 q 2400 456 2392 435 q 2411 494 2407 476 q 2406 515 2414 511 q 2394 509 2403 517 q 2369 478 2384 501 q 2336 422 2353 456 q 2297 316 2307 368 m 2210 534 q 2230 473 2232 515 q 2213 386 2228 431 q 2168 299 2198 341 q 2105 240 2138 258 q 2063 229 2085 229 q 2028 242 2041 228 q 2024 283 2015 256 q 2063 276 2037 260 q 2111 332 2089 292 q 2153 453 2146 397 q 2144 486 2159 488 q 2098 440 2129 481 q 2047 351 2072 404 q 1933 45 1972 195 q 1900 3 1923 9 q 1867 21 1878 -1 q 1868 90 1854 47 q 1927 261 1887 150 q 1980 413 1967 373 q 2000 472 1988 435 q 2016 519 2012 509 q 2025 545 2020 531 q 2033 567 2030 559 q 2066 594 2043 595 q 2096 572 2088 593 q 2095 538 2102 557 q 2087 514 2090 524 q 2131 547 2107 538 q 2176 551 2156 555 q 2210 534 2195 547 m 1207 550 q 1201 544 1207 550 q 1177 538 1195 538 q 1147 550 1160 538 q 1135 581 1135 563 q 1147 611 1135 598 q 1177 623 1160 623 q 1207 611 1195 623 q 1220 581 1220 598 q 1207 550 1220 563 m 1669 979 q 1660 972 1669 979 q 1627 969 1650 966 q 1590 991 1604 972 q 1579 1032 1576 1010 q 1602 1068 1583 1055 q 1644 1078 1621 1081 q 1681 1056 1667 1074 q 1692 1015 1695 1037 q 1669 979 1689 992 m 1660 1041 q 1656 1047 1660 1041 q 1640 1054 1653 1052 q 1618 1048 1628 1056 q 1606 1028 1608 1040 q 1611 1005 1604 1015 q 1631 993 1619 995 q 1653 998 1643 991 q 1665 1019 1663 1006 q 1660 1041 1667 1031 m 1773 1007 l 1759 946 l 1733 952 l 1756 1056 l 1782 1050 l 1814 979 l 1828 1040 l 1853 1034 l 1830 930 l 1805 936 l 1773 1007 m 1470 1026 l 1468 987 l 1441 988 l 1447 1094 l 1531 1090 l 1529 1066 l 1472 1069 l 1471 1050 l 1523 1047 l 1522 1023 l 1470 1026 m 1908 905 l 1934 983 l 1904 994 l 1911 1016 l 1997 987 l 1990 964 l 1959 975 l 1933 897 l 1908 905 m 1004 952 l 922 934 l 899 1038 l 981 1056 l 986 1033 l 930 1020 l 934 1004 l 985 1015 l 989 992 l 939 981 l 943 963 l 999 975 l 1004 952 m 815 900 l 779 888 l 744 988 l 781 1001 q 828 1001 806 1010 q 857 970 849 992 q 852 929 864 949 q 815 900 841 909 m 792 979 l 777 974 l 795 919 l 811 924 q 829 939 824 929 q 831 962 835 949 q 816 979 827 974 q 792 979 805 984 m 1080 966 l 1055 962 l 1038 1067 l 1064 1072 l 1103 1021 l 1125 1080 l 1151 1084 l 1167 979 l 1141 976 l 1132 1036 l 1109 977 l 1071 1027 l 1080 966 m 1275 985 q 1234 999 1252 983 q 1215 1037 1217 1015 q 1230 1077 1214 1059 q 1270 1095 1246 1094 q 1311 1081 1293 1096 q 1329 1043 1329 1065 q 1314 1003 1331 1021 q 1275 985 1298 985 m 1292 1063 q 1287 1067 1292 1063 q 1270 1071 1282 1072 q 1250 1061 1258 1070 q 1242 1038 1242 1051 q 1252 1017 1243 1025 q 1274 1009 1261 1008 q 1294 1019 1286 1010 q 1302 1042 1303 1029 q 1292 1063 1301 1055 m 706 905 q 545 827 622 871 l 530 851 q 696 931 612 897 l 706 905 m 2207 851 l 2192 827 q 2030 905 2115 871 l 2041 931 q 2207 851 2123 899 z "},"\u0000":{"ha":0,"x_min":0,"x_max":0,"o":""},"\n":{"ha":0,"x_min":0,"x_max":0,"o":""},"\r":{"ha":0,"x_min":0,"x_max":0,"o":""}," ":{"ha":407,"x_min":0,"x_max":0,"o":""},"!":{"ha":2542,"x_min":78,"x_max":2473,"o":"m 1894 564 q 1925 596 1908 588 q 1954 597 1942 605 q 1973 573 1966 589 q 1973 530 1980 556 q 1749 -10 1878 147 q 1734 -27 1744 -16 q 1688 -58 1713 -48 q 1643 -63 1663 -67 q 1609 -45 1623 -58 q 1596 -6 1596 -32 q 1615 50 1597 19 q 1626 67 1617 55 q 1640 89 1634 79 q 1651 110 1647 99 q 1654 127 1656 120 q 1642 136 1652 134 q 1509 131 1608 142 q 1301 92 1411 120 q 1186 59 1272 85 q 1088 30 1124 41 q 982 0 1053 20 q 865 -27 911 -19 q 752 -47 820 -35 q 639 -57 684 -59 q 540 -52 594 -56 q 453 -30 486 -49 q 390 17 419 -10 q 350 88 361 43 q 343 191 338 133 q 407 113 363 142 q 515 71 451 83 q 653 60 580 60 q 819 71 726 60 q 781 107 798 86 q 759 146 764 128 q 762 319 747 179 q 787 484 764 340 q 808 695 810 628 q 787 747 807 732 q 742 752 768 762 q 696 718 717 743 q 643 621 671 688 q 616 540 628 583 q 688 478 665 522 q 702 387 712 434 q 668 329 694 350 q 614 308 643 308 q 558 325 586 307 q 519 376 531 343 q 520 484 507 412 q 383 439 497 480 q 211 396 269 397 q 118 430 156 395 q 78 540 81 465 q 148 498 102 509 q 248 495 193 488 q 353 514 302 503 q 457 539 405 526 q 536 552 510 551 q 540 564 538 556 q 544 576 543 572 q 601 700 566 644 q 682 793 636 758 q 728 821 702 810 q 784 831 755 831 q 835 815 814 831 q 881 710 874 785 q 880 589 886 654 q 860 439 873 524 q 842 315 846 354 q 841 298 842 307 q 838 270 840 288 q 837 236 837 252 q 838 205 837 220 q 842 181 839 190 q 852 174 846 173 q 859 179 855 175 q 866 194 862 184 q 874 213 871 203 q 885 241 878 223 q 897 273 892 259 q 956 438 917 324 q 1030 636 995 551 q 1106 791 1065 722 q 1251 910 1171 902 q 1333 881 1301 915 q 1348 823 1359 852 q 1347 819 1348 821 q 1315 833 1333 833 q 1279 823 1297 833 q 1240 792 1261 812 q 1203 751 1220 773 q 1168 705 1185 730 q 1237 686 1196 688 q 1322 692 1278 684 q 1422 716 1366 701 q 1527 749 1478 732 q 1636 785 1576 766 q 1741 813 1696 803 q 1815 824 1777 821 q 1893 822 1853 827 q 1961 800 1933 816 q 2001 750 1988 785 q 2002 667 2014 716 q 1693 703 1988 756 q 1717 660 1717 688 q 1701 597 1718 631 q 1577 264 1661 500 q 1527 203 1558 212 q 1491 221 1502 197 q 1487 235 1488 227 q 1423 189 1457 197 q 1369 207 1390 181 q 1356 281 1349 232 q 1366 339 1362 321 q 1378 391 1371 366 q 1382 404 1380 397 q 1385 415 1383 410 q 1387 420 1386 419 q 1350 372 1369 403 q 1308 305 1323 332 q 1271 235 1283 261 q 1218 179 1250 191 q 1181 192 1191 170 q 1181 233 1175 207 q 1185 250 1182 238 q 1190 267 1187 261 l 1190 268 q 1147 213 1165 231 q 1072 200 1103 170 q 1054 303 1040 231 q 1071 373 1059 330 q 1093 446 1082 415 q 1098 460 1095 452 q 1102 470 1101 469 q 1143 514 1116 511 q 1177 496 1166 517 q 1176 449 1187 475 q 1133 334 1146 379 q 1132 265 1108 246 q 1229 414 1160 287 q 1238 431 1234 423 q 1240 438 1239 433 q 1242 446 1241 444 q 1273 524 1258 491 q 1291 545 1280 538 q 1314 550 1303 552 q 1334 540 1325 547 q 1345 519 1343 533 q 1341 490 1348 506 q 1331 465 1333 469 q 1313 425 1318 436 q 1298 393 1304 408 q 1291 374 1291 377 q 1319 420 1307 401 q 1350 463 1335 444 q 1381 498 1368 485 q 1440 529 1412 529 q 1476 501 1468 530 q 1468 422 1485 473 q 1447 361 1458 397 q 1428 252 1415 255 q 1477 303 1439 251 q 1493 325 1485 313 q 1522 372 1503 340 q 1641 693 1550 452 q 1404 641 1626 690 q 1267 621 1310 619 q 1164 699 1180 625 q 1116 616 1133 652 q 1049 467 1082 547 q 975 275 1021 399 q 909 100 929 151 q 905 92 907 98 q 901 82 903 85 q 1279 150 1001 96 q 1446 176 1369 167 q 1584 186 1522 185 q 1680 175 1645 186 q 1713 138 1714 163 q 1695 93 1712 126 q 1664 33 1678 60 q 1655 5 1650 7 q 1702 55 1664 2 q 1787 200 1754 125 q 1854 380 1820 274 q 1862 406 1860 399 q 1832 357 1853 388 q 1817 333 1821 339 q 1799 307 1813 327 q 1775 276 1784 286 q 1751 253 1765 267 q 1724 234 1737 239 q 1698 231 1710 229 q 1662 267 1671 234 q 1666 351 1652 299 q 1686 416 1676 389 q 1712 479 1698 450 q 1731 515 1723 503 q 1768 539 1746 539 q 1800 521 1791 539 q 1797 479 1808 503 q 1780 448 1787 463 q 1754 389 1765 415 q 1740 318 1725 313 q 1792 385 1754 323 q 1829 445 1806 406 q 1864 509 1841 466 q 1894 564 1885 547 m 650 368 q 668 394 663 376 q 670 431 673 412 q 650 467 667 450 q 605 488 633 484 q 611 376 583 411 q 646 366 627 356 q 650 368 648 366 m 2297 313 q 2320 263 2287 262 q 2399 310 2353 264 q 2459 396 2441 351 q 2455 377 2458 389 q 2442 333 2453 365 q 2417 275 2431 301 q 2378 225 2403 250 q 2321 195 2352 201 q 2261 202 2288 187 q 2217 298 2215 227 q 2223 345 2218 325 q 2247 418 2232 384 q 2282 488 2264 456 q 2323 545 2302 522 q 2380 583 2348 574 q 2434 577 2412 591 q 2464 532 2456 564 q 2451 450 2473 500 q 2409 382 2432 406 q 2363 357 2385 359 q 2336 368 2345 356 q 2335 399 2326 380 q 2354 394 2340 390 q 2400 452 2378 401 q 2406 511 2421 503 q 2394 506 2403 513 q 2369 475 2384 498 q 2336 419 2353 452 q 2297 313 2306 364 m 2209 531 q 2229 471 2229 513 q 2213 384 2228 429 q 2168 296 2197 338 q 2105 237 2138 254 q 2063 225 2085 226 q 2028 239 2041 225 q 2024 280 2015 253 q 2063 273 2037 257 q 2111 329 2090 288 q 2153 450 2146 394 q 2144 482 2159 485 q 2098 437 2129 478 q 2047 349 2069 397 q 1933 43 1973 195 q 1900 1 1923 6 q 1867 18 1878 -4 q 1868 87 1854 45 q 1927 260 1888 148 q 1980 410 1967 372 q 2016 516 2009 495 q 2025 542 2020 528 q 2033 564 2030 555 q 2066 591 2043 591 q 2096 569 2088 590 q 2095 534 2102 553 q 2087 511 2090 520 q 2131 544 2107 534 q 2175 548 2155 553 q 2209 531 2195 544 m 1207 547 q 1201 541 1207 547 q 1177 534 1195 534 q 1147 547 1160 534 q 1135 577 1135 559 q 1147 607 1135 595 q 1177 620 1160 620 q 1207 607 1195 620 q 1220 577 1220 595 q 1207 547 1220 559 m 1669 976 q 1660 969 1669 976 q 1627 966 1650 962 q 1590 988 1604 969 q 1579 1029 1575 1006 q 1601 1064 1582 1051 q 1644 1074 1621 1078 q 1681 1053 1667 1071 q 1692 1012 1695 1034 q 1669 976 1689 989 m 1660 1038 q 1656 1043 1660 1038 q 1640 1050 1653 1048 q 1618 1045 1628 1053 q 1606 1025 1608 1037 q 1611 1002 1604 1012 q 1631 989 1619 991 q 1653 995 1643 987 q 1665 1016 1663 1003 q 1660 1038 1667 1028 m 1908 902 l 1934 980 l 1904 990 l 1911 1013 l 1997 983 l 1990 961 l 1959 971 l 1933 893 l 1908 902 m 1470 1023 l 1468 983 l 1441 985 l 1447 1091 l 1530 1086 l 1529 1063 l 1472 1066 l 1471 1047 l 1523 1044 l 1522 1021 l 1470 1023 m 1773 1004 l 1759 943 l 1733 949 l 1756 1053 l 1782 1046 l 1814 975 l 1828 1036 l 1853 1031 l 1830 927 l 1805 933 l 1773 1004 m 1080 963 l 1055 959 l 1038 1064 l 1064 1068 l 1103 1018 l 1125 1078 l 1151 1082 l 1167 977 l 1141 972 l 1132 1034 l 1109 974 l 1071 1024 l 1080 963 m 815 897 l 778 884 l 744 985 l 781 998 q 828 998 806 1006 q 857 968 849 989 q 852 926 864 946 q 815 897 841 906 m 792 976 l 777 971 l 795 916 l 811 921 q 829 936 824 926 q 831 959 835 947 q 816 976 827 971 q 792 976 805 981 m 1004 949 l 922 930 l 899 1034 l 981 1053 l 986 1029 l 930 1017 l 934 1001 l 985 1013 l 989 989 l 939 978 l 943 960 l 999 972 l 1004 949 m 1275 982 q 1234 996 1252 981 q 1215 1034 1217 1012 q 1230 1074 1214 1057 q 1270 1092 1246 1091 q 1310 1078 1293 1093 q 1329 1040 1328 1062 q 1314 1000 1331 1017 q 1275 982 1298 983 m 1292 1060 q 1287 1064 1292 1060 q 1270 1067 1282 1068 q 1250 1058 1258 1067 q 1242 1036 1241 1048 q 1252 1014 1242 1023 q 1274 1006 1261 1005 q 1294 1016 1286 1006 q 1302 1038 1303 1025 q 1292 1060 1301 1051 m 706 902 q 545 825 622 868 l 530 848 q 696 928 614 895 l 706 902 m 2207 848 l 2192 825 q 2030 902 2115 868 l 2041 928 q 2207 848 2123 895 z "},"\"":{"ha":2542,"x_min":78,"x_max":2473,"o":"m 1894 564 q 1925 596 1908 588 q 1954 597 1942 605 q 1973 573 1966 589 q 1973 530 1980 556 q 1749 -10 1878 147 q 1734 -27 1744 -16 q 1688 -58 1713 -48 q 1643 -63 1663 -68 q 1609 -45 1623 -58 q 1596 -7 1596 -33 q 1615 49 1597 18 q 1626 66 1617 54 q 1640 89 1634 79 q 1651 109 1647 98 q 1654 127 1656 120 q 1642 136 1652 134 q 1509 131 1608 142 q 1301 92 1411 120 q 1186 59 1272 85 q 1088 30 1124 41 q 982 0 1053 20 q 865 -27 911 -19 q 752 -47 820 -35 q 639 -57 684 -59 q 540 -52 594 -56 q 453 -30 486 -49 q 390 17 419 -10 q 350 88 361 43 q 343 191 338 133 q 407 113 363 142 q 516 71 451 83 q 653 60 581 60 q 819 71 726 60 q 782 107 799 85 q 759 146 764 128 q 762 319 747 179 q 787 484 764 340 q 808 695 810 628 q 788 747 807 732 q 743 752 768 761 q 696 718 718 743 q 643 621 670 686 q 616 540 628 583 q 688 478 665 522 q 702 387 712 434 q 668 329 694 350 q 614 308 643 308 q 558 325 586 307 q 519 376 531 343 q 520 484 507 412 q 433 456 491 479 q 315 415 374 434 q 212 396 256 397 q 118 430 156 395 q 78 540 81 465 q 148 498 102 509 q 248 495 193 488 q 353 514 302 502 q 457 538 405 526 q 536 551 510 551 q 540 564 538 555 q 544 576 543 572 q 601 700 567 645 q 682 793 636 758 q 728 821 702 810 q 784 831 755 831 q 835 815 814 831 q 881 710 874 785 q 880 589 886 654 q 860 439 873 524 q 842 315 846 354 q 841 298 842 307 q 838 270 840 288 q 837 236 837 252 q 838 205 837 220 q 842 181 839 190 q 852 174 846 173 q 859 179 855 175 q 866 194 862 184 q 874 213 871 203 q 885 241 878 223 q 897 273 892 259 q 956 438 917 324 q 1030 636 995 551 q 1106 791 1065 722 q 1251 910 1171 902 q 1333 881 1301 915 q 1348 823 1359 852 q 1347 819 1348 821 q 1315 833 1333 833 q 1279 823 1297 833 q 1240 792 1261 812 q 1203 751 1220 773 q 1168 705 1185 730 q 1237 686 1196 688 q 1322 692 1278 684 q 1422 716 1366 701 q 1527 749 1478 732 q 1636 785 1576 766 q 1741 813 1696 803 q 1815 824 1777 821 q 1893 822 1853 827 q 1961 800 1933 816 q 2002 750 1989 785 q 2003 667 2015 716 q 1693 703 1988 756 q 1717 660 1717 688 q 1701 597 1718 631 q 1577 264 1661 500 q 1527 203 1558 212 q 1491 221 1502 197 q 1487 235 1488 227 q 1423 189 1457 197 q 1369 207 1390 181 q 1356 281 1349 232 q 1366 339 1362 321 q 1378 391 1371 366 q 1382 404 1380 397 q 1385 415 1383 410 q 1387 420 1386 419 q 1350 372 1369 403 q 1308 305 1323 332 q 1271 235 1283 261 q 1218 179 1250 191 q 1181 191 1191 170 q 1181 232 1175 206 q 1185 249 1182 237 q 1190 267 1187 260 q 1147 213 1166 232 q 1072 200 1103 170 q 1054 303 1040 231 q 1071 373 1059 330 q 1093 446 1082 415 q 1098 460 1095 452 q 1102 470 1101 469 q 1143 514 1116 511 q 1177 496 1165 517 q 1176 449 1187 475 q 1133 334 1146 379 q 1132 265 1108 246 q 1229 414 1160 287 q 1238 431 1234 423 q 1240 438 1239 433 q 1242 446 1241 444 q 1273 524 1258 491 q 1291 545 1280 538 q 1314 550 1303 552 q 1334 540 1325 547 q 1345 519 1343 533 q 1341 490 1348 506 q 1337 478 1341 488 q 1331 465 1334 469 q 1321 443 1328 456 q 1313 425 1315 430 q 1305 409 1310 419 q 1298 393 1300 398 q 1291 374 1291 377 q 1319 420 1307 401 q 1350 463 1335 444 q 1381 498 1364 479 q 1440 529 1412 529 q 1476 501 1468 530 q 1468 422 1485 473 q 1447 361 1458 397 q 1428 252 1415 255 q 1477 303 1439 251 q 1493 325 1485 313 q 1522 372 1503 340 q 1641 693 1550 452 q 1404 641 1626 690 q 1267 621 1310 619 q 1164 699 1180 625 q 1116 616 1133 652 q 1049 467 1082 547 q 975 275 1021 399 q 909 100 929 151 q 905 92 907 98 q 901 82 903 85 q 1279 150 1001 96 q 1446 176 1369 167 q 1584 186 1522 185 q 1680 175 1645 186 q 1713 138 1714 163 q 1695 93 1712 126 q 1664 33 1678 60 q 1655 5 1650 7 q 1702 55 1664 2 q 1787 200 1754 125 q 1854 380 1820 274 q 1862 406 1860 399 q 1832 357 1853 388 q 1817 333 1821 339 q 1799 307 1813 327 q 1775 276 1784 286 q 1751 253 1765 267 q 1724 234 1737 239 q 1698 231 1710 229 q 1662 267 1671 234 q 1666 351 1652 299 q 1685 416 1681 401 q 1712 479 1695 446 q 1731 515 1723 503 q 1768 539 1746 539 q 1800 521 1791 539 q 1797 479 1808 503 q 1780 448 1787 463 q 1754 389 1765 415 q 1740 318 1725 313 q 1792 385 1754 323 q 1829 445 1806 406 q 1864 509 1841 466 q 1894 564 1885 547 m 650 368 q 668 394 663 376 q 670 431 673 412 q 650 467 667 450 q 605 488 633 484 q 611 376 583 411 q 646 366 627 356 q 650 368 648 366 m 2297 313 q 2320 263 2287 262 q 2399 310 2353 264 q 2459 396 2441 351 q 2455 377 2458 389 q 2442 333 2453 365 q 2417 275 2431 301 q 2378 225 2403 250 q 2321 195 2352 201 q 2261 202 2288 187 q 2217 298 2215 227 q 2223 345 2218 325 q 2247 418 2232 384 q 2282 488 2264 456 q 2323 545 2302 522 q 2380 583 2348 574 q 2434 577 2412 591 q 2464 532 2456 564 q 2451 450 2473 500 q 2409 382 2432 406 q 2363 357 2385 359 q 2336 368 2345 356 q 2335 399 2326 380 q 2354 394 2340 390 q 2400 452 2378 401 q 2406 511 2421 503 q 2394 506 2403 513 q 2369 475 2384 498 q 2336 419 2353 452 q 2297 313 2306 364 m 2210 531 q 2230 471 2232 513 q 2213 384 2228 429 q 2168 296 2198 338 q 2105 237 2138 254 q 2063 225 2085 226 q 2028 239 2041 225 q 2024 280 2015 253 q 2063 273 2037 257 q 2111 329 2090 288 q 2153 450 2146 394 q 2144 482 2159 485 q 2098 437 2129 478 q 2047 349 2069 397 q 1933 43 1973 195 q 1900 1 1923 6 q 1867 18 1878 -4 q 1868 87 1854 45 q 1927 258 1887 147 q 1980 410 1966 368 q 2000 469 1988 432 q 2016 516 2012 505 q 2025 542 2020 528 q 2033 564 2030 555 q 2066 591 2043 591 q 2096 569 2088 590 q 2095 534 2102 553 q 2087 511 2090 520 q 2131 544 2107 534 q 2176 548 2156 553 q 2210 531 2195 544 m 1207 547 q 1201 541 1207 547 q 1177 534 1195 534 q 1147 547 1160 534 q 1135 577 1135 559 q 1147 607 1135 595 q 1177 620 1160 620 q 1207 607 1195 620 q 1220 577 1220 595 q 1207 547 1220 559 m 1470 1023 l 1468 983 l 1441 985 l 1447 1091 l 1531 1086 l 1529 1063 l 1472 1066 l 1471 1047 l 1523 1044 l 1522 1021 l 1470 1023 m 1773 1004 l 1759 943 l 1733 949 l 1756 1053 l 1782 1046 l 1814 975 l 1828 1036 l 1853 1031 l 1830 927 l 1805 933 l 1773 1004 m 1669 976 q 1660 969 1669 976 q 1627 966 1650 962 q 1590 988 1604 969 q 1579 1029 1575 1006 q 1601 1064 1582 1051 q 1644 1074 1621 1078 q 1681 1053 1667 1071 q 1692 1012 1695 1034 q 1669 976 1689 989 m 1660 1038 q 1656 1043 1660 1038 q 1640 1050 1653 1048 q 1618 1045 1628 1053 q 1606 1025 1608 1037 q 1611 1002 1604 1012 q 1631 989 1619 991 q 1653 995 1643 987 q 1665 1016 1663 1003 q 1660 1038 1667 1028 m 1908 902 l 1934 980 l 1904 990 l 1911 1013 l 1997 983 l 1990 961 l 1959 971 l 1933 893 l 1908 902 m 1004 949 l 922 930 l 899 1034 l 981 1053 l 986 1029 l 930 1017 l 934 1001 l 985 1013 l 989 989 l 939 978 l 943 960 l 999 972 l 1004 949 m 815 897 l 778 884 l 744 985 l 781 998 q 828 998 806 1006 q 857 968 849 989 q 852 926 864 946 q 815 897 841 906 m 792 976 l 777 971 l 795 916 l 811 921 q 829 936 824 926 q 831 959 835 947 q 816 976 827 971 q 792 976 805 981 m 1080 963 l 1055 959 l 1038 1064 l 1064 1068 l 1103 1018 l 1125 1078 l 1151 1082 l 1167 977 l 1141 972 l 1132 1034 l 1109 974 l 1071 1024 l 1080 963 m 1275 982 q 1234 996 1252 981 q 1215 1034 1217 1012 q 1230 1074 1214 1057 q 1270 1092 1246 1091 q 1310 1078 1293 1093 q 1329 1040 1328 1062 q 1314 1000 1331 1017 q 1275 982 1298 983 m 1292 1060 q 1287 1064 1292 1060 q 1270 1067 1282 1068 q 1250 1058 1258 1067 q 1242 1036 1241 1048 q 1252 1014 1242 1023 q 1274 1006 1261 1005 q 1294 1016 1286 1006 q 1302 1038 1303 1025 q 1292 1060 1301 1051 m 706 902 q 545 825 622 868 l 530 848 q 696 928 612 894 l 706 902 m 2207 848 l 2192 825 q 2030 902 2115 868 l 2041 928 q 2207 848 2123 895 z "},"#":{"ha":2542,"x_min":78,"x_max":2473,"o":"m 1894 564 q 1925 596 1908 588 q 1954 597 1942 605 q 1973 573 1966 589 q 1973 530 1980 556 q 1750 -10 1877 146 q 1742 -19 1747 -13 q 1734 -27 1737 -24 q 1688 -58 1713 -48 q 1643 -63 1663 -67 q 1610 -45 1624 -58 q 1597 -6 1596 -32 q 1615 50 1598 19 q 1627 67 1618 55 q 1641 89 1635 79 q 1651 110 1647 99 q 1654 127 1656 120 q 1642 136 1652 134 q 1509 131 1608 142 q 1301 92 1411 120 q 1186 59 1272 85 q 1088 30 1124 41 q 982 0 1053 20 q 865 -27 911 -19 q 752 -47 820 -35 q 639 -57 684 -59 q 540 -52 594 -56 q 453 -30 486 -49 q 390 17 419 -10 q 350 88 361 43 q 343 191 338 133 q 407 113 363 142 q 516 71 451 83 q 653 60 581 60 q 819 71 726 60 q 782 107 799 86 q 760 146 765 128 q 762 319 747 180 q 787 484 764 340 q 808 695 810 628 q 788 747 807 732 q 743 752 768 761 q 696 718 718 743 q 643 621 670 686 q 616 540 628 583 q 688 478 665 522 q 702 387 712 434 q 668 329 694 350 q 614 308 643 308 q 558 325 586 307 q 519 376 531 343 q 520 484 507 412 q 383 439 497 480 q 211 396 269 397 q 118 430 156 395 q 78 540 81 465 q 148 498 102 509 q 248 495 193 488 q 353 514 302 503 q 457 539 405 526 q 536 552 510 551 q 540 564 538 556 q 544 576 543 572 q 601 700 566 644 q 682 793 636 758 q 728 821 702 810 q 784 831 755 831 q 835 815 814 831 q 881 710 874 785 q 880 589 886 654 q 860 439 873 524 q 842 315 846 354 q 841 298 842 307 q 838 270 840 288 q 837 236 837 252 q 838 205 837 220 q 842 181 839 190 q 852 174 846 173 q 859 179 855 175 q 866 194 862 184 q 874 213 871 203 q 885 241 878 223 q 897 273 892 259 q 956 438 917 324 q 1030 636 995 551 q 1106 791 1065 722 q 1251 910 1171 902 q 1333 881 1301 915 q 1348 823 1359 852 q 1347 819 1348 821 q 1315 833 1333 833 q 1279 823 1297 833 q 1240 792 1261 812 q 1203 751 1220 773 q 1168 705 1185 730 q 1237 686 1196 688 q 1322 692 1278 684 q 1422 716 1366 701 q 1527 749 1478 732 q 1636 785 1576 766 q 1741 813 1696 803 q 1815 824 1777 821 q 1893 822 1853 827 q 1961 800 1933 816 q 2001 750 1988 785 q 2002 667 2014 716 q 1693 703 1988 756 q 1717 660 1717 688 q 1701 597 1718 631 q 1577 264 1661 500 q 1527 203 1558 212 q 1491 221 1502 197 q 1487 235 1488 227 q 1423 189 1457 197 q 1369 207 1390 181 q 1356 281 1349 232 q 1366 339 1362 321 q 1378 391 1371 366 q 1382 404 1380 397 q 1385 415 1383 410 q 1387 420 1386 419 q 1350 372 1369 403 q 1308 305 1323 332 q 1271 235 1283 261 q 1218 179 1250 191 q 1181 192 1191 170 q 1181 233 1175 207 q 1185 250 1182 238 q 1190 267 1187 261 l 1190 268 q 1147 213 1165 231 q 1072 200 1103 170 q 1054 303 1040 231 q 1071 373 1059 330 q 1093 446 1082 415 q 1098 460 1095 452 q 1102 470 1101 469 q 1143 514 1116 511 q 1177 496 1166 517 q 1176 449 1187 475 q 1133 334 1146 379 q 1132 265 1108 246 q 1229 414 1160 287 q 1238 431 1234 423 q 1240 438 1239 433 q 1242 446 1241 444 q 1273 524 1258 491 q 1291 545 1280 538 q 1314 550 1303 552 q 1334 540 1325 547 q 1345 519 1343 533 q 1341 490 1348 506 q 1331 465 1333 469 q 1313 425 1318 436 q 1298 393 1304 408 q 1291 374 1291 377 q 1319 420 1307 401 q 1350 463 1335 444 q 1381 498 1368 485 q 1440 529 1412 529 q 1476 501 1468 530 q 1468 422 1485 473 q 1447 361 1458 397 q 1428 252 1415 255 q 1477 303 1439 251 q 1493 325 1485 313 q 1522 372 1503 340 q 1641 693 1550 452 q 1404 641 1626 690 q 1267 621 1310 619 q 1164 699 1180 625 q 1116 616 1133 652 q 1049 467 1082 547 q 975 275 1021 399 q 909 100 929 151 q 905 92 907 98 q 901 82 903 85 q 1279 150 1001 96 q 1446 176 1369 167 q 1584 186 1522 185 q 1680 175 1645 186 q 1713 138 1714 163 q 1695 93 1712 126 q 1664 33 1678 60 q 1655 5 1650 7 q 1702 55 1664 2 q 1787 200 1754 125 q 1854 380 1820 274 q 1862 406 1860 399 q 1832 357 1853 388 q 1817 333 1821 339 q 1799 307 1813 327 q 1775 276 1784 286 q 1751 253 1765 267 q 1724 234 1737 239 q 1698 231 1710 229 q 1662 267 1671 234 q 1666 351 1652 299 q 1686 416 1676 389 q 1712 479 1698 450 q 1731 515 1723 503 q 1768 539 1746 539 q 1800 521 1791 539 q 1797 479 1808 503 q 1780 448 1787 463 q 1754 389 1765 415 q 1740 318 1725 313 q 1792 385 1754 323 q 1829 445 1806 406 q 1864 509 1841 466 q 1894 564 1885 547 m 650 368 q 668 394 663 376 q 670 431 673 412 q 650 467 667 450 q 605 488 633 484 q 611 376 583 411 q 646 366 627 356 q 650 368 648 366 m 2297 313 q 2320 263 2287 262 q 2399 310 2353 264 q 2459 396 2441 351 q 2455 377 2458 389 q 2442 333 2453 365 q 2417 275 2431 301 q 2378 225 2403 250 q 2321 195 2352 201 q 2261 202 2288 187 q 2217 298 2215 227 q 2223 345 2218 325 q 2247 418 2232 384 q 2282 488 2264 456 q 2323 545 2302 522 q 2380 583 2348 574 q 2434 577 2412 591 q 2464 532 2456 564 q 2451 450 2473 500 q 2409 382 2432 406 q 2363 357 2385 359 q 2336 368 2345 356 q 2335 399 2326 380 q 2354 394 2340 390 q 2400 452 2378 401 q 2406 511 2421 503 q 2394 506 2403 513 q 2369 475 2384 498 q 2336 419 2353 452 q 2297 313 2306 364 m 2209 531 q 2229 471 2229 513 q 2213 384 2228 429 q 2168 296 2197 338 q 2105 237 2138 254 q 2063 225 2085 226 q 2028 239 2041 225 q 2024 280 2015 253 q 2063 273 2037 257 q 2111 329 2090 288 q 2153 450 2146 394 q 2144 482 2159 485 q 2098 437 2129 478 q 2047 349 2069 397 q 1933 43 1973 195 q 1900 1 1923 6 q 1867 18 1878 -4 q 1868 87 1854 45 q 1927 260 1888 148 q 1980 410 1967 372 q 2016 516 2009 495 q 2025 542 2020 528 q 2033 564 2030 555 q 2066 591 2043 591 q 2096 569 2088 590 q 2095 534 2102 553 q 2087 511 2090 520 q 2131 544 2107 534 q 2175 548 2155 553 q 2209 531 2195 544 m 1207 547 q 1201 541 1207 547 q 1177 534 1195 534 q 1147 547 1160 534 q 1135 577 1135 559 q 1147 607 1135 595 q 1177 620 1160 620 q 1207 607 1195 620 q 1220 577 1220 595 q 1207 547 1220 559 m 1669 976 q 1660 969 1669 976 q 1627 966 1650 962 q 1590 988 1604 969 q 1579 1029 1575 1006 q 1601 1064 1582 1051 q 1644 1074 1621 1078 q 1681 1053 1667 1071 q 1692 1012 1695 1034 q 1669 976 1689 989 m 1660 1038 q 1656 1043 1660 1038 q 1640 1050 1653 1048 q 1618 1045 1628 1053 q 1606 1025 1608 1037 q 1611 1002 1604 1012 q 1631 989 1619 991 q 1653 995 1643 987 q 1665 1016 1663 1003 q 1660 1038 1667 1028 m 1773 1004 l 1759 943 l 1733 949 l 1756 1053 l 1782 1046 l 1814 975 l 1828 1036 l 1853 1031 l 1830 927 l 1805 933 l 1773 1004 m 1908 902 l 1934 980 l 1904 990 l 1911 1013 l 1997 983 l 1990 961 l 1959 971 l 1933 893 l 1908 902 m 1470 1023 l 1468 983 l 1441 985 l 1447 1091 l 1530 1086 l 1529 1063 l 1472 1066 l 1471 1047 l 1523 1044 l 1522 1021 l 1470 1023 m 815 897 l 778 884 l 744 985 l 781 998 q 828 998 806 1006 q 857 968 849 989 q 852 926 864 946 q 815 897 841 906 m 792 976 l 777 971 l 795 916 l 811 921 q 829 936 824 926 q 831 959 835 947 q 816 976 827 971 q 792 976 805 981 m 1004 949 l 922 930 l 899 1034 l 981 1053 l 986 1029 l 930 1017 l 934 1001 l 985 1013 l 989 989 l 939 978 l 943 960 l 999 972 l 1004 949 m 1275 982 q 1234 996 1252 981 q 1215 1034 1217 1012 q 1230 1074 1214 1057 q 1270 1092 1246 1091 q 1310 1078 1293 1093 q 1329 1040 1328 1062 q 1314 1000 1331 1017 q 1275 982 1298 983 m 1292 1060 q 1287 1064 1292 1060 q 1270 1067 1282 1068 q 1250 1058 1258 1067 q 1242 1036 1241 1048 q 1252 1014 1242 1023 q 1274 1006 1261 1005 q 1294 1016 1286 1006 q 1302 1038 1303 1025 q 1292 1060 1301 1051 m 1080 963 l 1055 959 l 1038 1064 l 1064 1068 l 1103 1018 l 1125 1078 l 1151 1082 l 1167 977 l 1141 972 l 1132 1034 l 1109 974 l 1071 1024 l 1080 963 m 706 902 q 545 825 622 868 l 530 848 q 696 928 612 894 l 706 902 m 2207 848 l 2192 825 q 2030 902 2115 868 l 2041 928 q 2207 848 2123 895 z "},"$":{"ha":2542,"x_min":78,"x_max":2473,"o":"m 1894 564 q 1925 596 1908 588 q 1954 597 1942 605 q 1973 573 1966 589 q 1973 530 1980 556 q 1750 -10 1877 146 q 1742 -19 1747 -13 q 1734 -27 1737 -24 q 1688 -58 1713 -48 q 1643 -63 1663 -67 q 1610 -45 1624 -58 q 1597 -6 1596 -32 q 1615 50 1598 19 q 1627 67 1618 55 q 1641 89 1635 79 q 1651 110 1647 99 q 1654 127 1656 120 q 1642 136 1652 134 q 1509 131 1608 142 q 1301 92 1411 120 q 1186 59 1272 85 q 1088 30 1124 41 q 982 0 1053 20 q 865 -27 911 -19 q 752 -47 820 -35 q 639 -57 684 -59 q 540 -52 594 -56 q 453 -30 486 -49 q 390 17 419 -10 q 350 88 361 43 q 343 191 338 133 q 407 113 363 142 q 516 71 451 83 q 653 60 581 60 q 819 71 726 60 q 782 107 799 86 q 760 146 765 128 q 762 319 747 180 q 787 484 764 340 q 808 695 810 628 q 788 747 807 732 q 743 752 768 761 q 696 718 718 743 q 643 621 670 686 q 616 540 628 583 q 688 478 665 522 q 702 387 712 434 q 668 329 694 350 q 614 308 643 308 q 558 325 586 307 q 519 376 531 343 q 520 484 507 412 q 383 439 497 480 q 211 396 269 397 q 118 430 156 395 q 78 540 81 465 q 148 498 102 509 q 248 495 193 488 q 353 514 302 503 q 457 539 405 526 q 536 552 510 551 q 540 564 538 556 q 544 576 543 572 q 601 700 566 644 q 682 793 636 758 q 728 821 702 810 q 784 831 755 831 q 835 815 814 831 q 881 710 874 785 q 880 589 886 654 q 860 439 873 524 q 842 315 846 354 q 841 298 842 307 q 838 270 840 288 q 837 236 837 252 q 838 205 837 220 q 842 181 839 190 q 852 174 846 173 q 859 179 855 175 q 866 194 862 184 q 874 213 871 203 q 885 241 878 223 q 897 273 892 259 q 956 438 917 324 q 1030 636 995 551 q 1106 791 1065 722 q 1251 910 1171 902 q 1333 881 1301 915 q 1348 823 1359 852 q 1347 819 1348 821 q 1315 833 1333 833 q 1279 823 1297 833 q 1240 792 1261 812 q 1203 751 1220 773 q 1168 705 1185 730 q 1237 686 1196 688 q 1322 692 1278 684 q 1422 716 1366 701 q 1527 749 1478 732 q 1636 785 1576 766 q 1741 813 1696 803 q 1815 824 1777 821 q 1893 822 1853 827 q 1961 800 1933 816 q 2001 750 1988 785 q 2002 667 2014 716 q 1693 703 1988 756 q 1717 660 1717 688 q 1701 597 1718 631 q 1577 264 1661 500 q 1527 203 1558 212 q 1491 221 1502 197 q 1487 235 1488 227 q 1423 189 1457 197 q 1369 207 1390 181 q 1356 281 1349 232 q 1366 339 1362 321 q 1378 391 1371 366 q 1382 404 1380 397 q 1385 415 1383 410 q 1387 420 1386 419 q 1350 372 1369 403 q 1308 305 1323 332 q 1271 235 1283 261 q 1218 179 1250 191 q 1181 192 1191 170 q 1181 233 1175 207 q 1185 250 1182 238 q 1190 267 1187 261 l 1190 268 q 1147 213 1165 231 q 1072 200 1103 170 q 1054 303 1040 231 q 1071 373 1059 330 q 1093 446 1082 415 q 1098 460 1095 452 q 1102 470 1101 469 q 1143 514 1116 511 q 1177 496 1166 517 q 1176 449 1187 475 q 1133 334 1146 379 q 1132 265 1108 246 q 1229 414 1160 287 q 1238 431 1234 423 q 1240 438 1239 433 q 1242 446 1241 444 q 1273 524 1258 491 q 1291 545 1280 538 q 1314 550 1303 552 q 1334 540 1325 547 q 1345 519 1343 533 q 1341 490 1348 506 q 1331 465 1333 469 q 1313 425 1318 436 q 1298 393 1304 408 q 1291 374 1291 377 q 1319 420 1307 401 q 1350 463 1335 444 q 1381 498 1368 485 q 1440 529 1412 529 q 1476 501 1468 530 q 1468 422 1485 473 q 1447 361 1458 397 q 1428 252 1415 255 q 1477 303 1439 251 q 1493 325 1485 313 q 1522 372 1503 340 q 1641 693 1550 452 q 1404 641 1626 690 q 1267 621 1310 619 q 1164 699 1180 625 q 1116 616 1133 652 q 1049 467 1082 547 q 975 275 1021 399 q 909 100 929 151 q 905 92 907 98 q 901 82 903 85 q 1279 150 1001 96 q 1446 176 1369 167 q 1584 186 1522 185 q 1680 175 1645 186 q 1713 138 1714 163 q 1695 93 1712 126 q 1664 33 1678 60 q 1655 5 1650 7 q 1702 55 1664 2 q 1787 200 1754 125 q 1854 380 1820 274 q 1862 406 1860 399 q 1832 357 1853 388 q 1817 333 1821 339 q 1799 307 1813 327 q 1775 276 1784 286 q 1751 253 1765 267 q 1724 234 1737 239 q 1698 231 1710 229 q 1662 267 1671 234 q 1666 351 1652 299 q 1686 416 1676 389 q 1712 479 1698 450 q 1731 515 1723 503 q 1768 539 1746 539 q 1800 521 1791 539 q 1797 479 1808 503 q 1780 448 1787 463 q 1754 389 1765 415 q 1740 318 1725 313 q 1792 385 1754 323 q 1829 445 1806 406 q 1864 509 1841 466 q 1894 564 1885 547 m 650 368 q 668 394 663 376 q 670 431 673 412 q 650 467 667 450 q 605 488 633 484 q 611 376 583 411 q 646 366 627 356 q 650 368 648 366 m 2297 313 q 2320 263 2287 262 q 2399 310 2353 264 q 2459 396 2441 351 q 2455 377 2458 389 q 2442 333 2453 365 q 2417 275 2431 301 q 2378 225 2403 250 q 2321 195 2352 201 q 2261 202 2288 187 q 2217 298 2215 227 q 2223 345 2218 325 q 2247 418 2232 384 q 2282 488 2264 456 q 2323 545 2302 522 q 2380 583 2348 574 q 2434 577 2412 591 q 2464 532 2456 564 q 2451 450 2473 500 q 2409 382 2432 406 q 2363 357 2385 359 q 2336 368 2345 356 q 2335 399 2326 380 q 2354 394 2340 390 q 2400 452 2378 401 q 2406 511 2421 503 q 2394 506 2403 513 q 2369 475 2384 498 q 2336 419 2353 452 q 2297 313 2306 364 m 2209 531 q 2229 471 2229 513 q 2213 384 2228 429 q 2168 296 2197 338 q 2105 237 2138 254 q 2063 225 2085 226 q 2028 239 2041 225 q 2024 280 2015 253 q 2063 273 2037 257 q 2111 329 2090 288 q 2153 450 2146 394 q 2144 482 2159 485 q 2098 437 2129 478 q 2047 349 2069 397 q 1933 43 1973 195 q 1900 1 1923 6 q 1867 18 1878 -4 q 1868 87 1854 45 q 1927 260 1888 148 q 1980 410 1967 372 q 2016 516 2009 495 q 2025 542 2020 528 q 2033 564 2030 555 q 2066 591 2043 591 q 2096 569 2088 590 q 2095 534 2102 553 q 2087 511 2090 520 q 2131 544 2107 534 q 2175 548 2155 553 q 2209 531 2195 544 m 1207 547 q 1201 541 1207 547 q 1177 534 1195 534 q 1147 547 1160 534 q 1135 577 1135 559 q 1147 607 1135 595 q 1177 620 1160 620 q 1207 607 1195 620 q 1220 577 1220 595 q 1207 547 1220 559 m 1470 1023 l 1468 983 l 1441 985 l 1447 1091 l 1530 1086 l 1529 1063 l 1472 1066 l 1471 1047 l 1523 1044 l 1522 1021 l 1470 1023 m 1908 902 l 1934 980 l 1904 990 l 1911 1013 l 1997 983 l 1990 961 l 1959 971 l 1933 893 l 1908 902 m 1669 976 q 1660 969 1669 976 q 1627 966 1650 962 q 1590 988 1604 969 q 1579 1029 1575 1006 q 1601 1064 1582 1051 q 1644 1074 1621 1078 q 1681 1053 1667 1071 q 1692 1012 1695 1034 q 1669 976 1689 989 m 1660 1038 q 1656 1043 1660 1038 q 1640 1050 1653 1048 q 1618 1045 1628 1053 q 1606 1025 1608 1037 q 1611 1002 1604 1012 q 1631 989 1619 991 q 1653 995 1643 987 q 1665 1016 1663 1003 q 1660 1038 1667 1028 m 1773 1004 l 1759 943 l 1733 949 l 1756 1053 l 1782 1046 l 1814 975 l 1828 1036 l 1853 1031 l 1830 927 l 1805 933 l 1773 1004 m 1004 949 l 922 930 l 899 1034 l 981 1053 l 986 1029 l 930 1017 l 934 1001 l 985 1013 l 989 989 l 939 978 l 943 960 l 999 972 l 1004 949 m 1275 982 q 1234 996 1252 981 q 1215 1034 1217 1012 q 1230 1074 1214 1057 q 1270 1092 1246 1091 q 1310 1078 1293 1093 q 1329 1040 1328 1062 q 1314 1000 1331 1017 q 1275 982 1298 983 m 1292 1060 q 1287 1064 1292 1060 q 1270 1067 1282 1068 q 1250 1058 1258 1067 q 1242 1036 1241 1048 q 1252 1014 1242 1023 q 1274 1006 1261 1005 q 1294 1016 1286 1006 q 1302 1038 1303 1025 q 1292 1060 1301 1051 m 815 897 l 778 884 l 744 985 l 781 998 q 828 998 806 1006 q 857 968 849 989 q 852 926 864 946 q 815 897 841 906 m 792 976 l 777 971 l 795 916 l 811 921 q 829 936 824 926 q 831 959 835 947 q 816 976 827 971 q 792 976 805 981 m 1080 963 l 1055 959 l 1038 1064 l 1064 1068 l 1103 1018 l 1125 1078 l 1151 1082 l 1167 977 l 1141 972 l 1132 1034 l 1109 974 l 1071 1024 l 1080 963 m 706 902 q 545 825 622 868 l 530 848 q 696 928 614 895 l 706 902 m 2207 848 l 2192 825 q 2030 902 2115 868 l 2041 928 q 2207 848 2123 895 z "},"%":{"ha":2542,"x_min":78,"x_max":2473,"o":"m 1894 564 q 1925 596 1908 588 q 1954 597 1942 605 q 1973 573 1966 589 q 1973 530 1980 556 q 1750 -10 1877 146 q 1742 -19 1747 -13 q 1734 -27 1737 -24 q 1688 -58 1713 -48 q 1643 -63 1663 -67 q 1610 -45 1624 -58 q 1597 -6 1596 -32 q 1615 50 1598 19 q 1627 67 1618 55 q 1641 89 1635 79 q 1651 110 1647 99 q 1654 127 1656 120 q 1642 136 1652 134 q 1509 131 1608 142 q 1301 92 1411 120 q 1186 59 1272 85 q 1088 30 1124 41 q 982 0 1053 20 q 865 -27 911 -19 q 752 -47 820 -35 q 639 -57 684 -59 q 540 -52 594 -56 q 453 -30 486 -49 q 390 17 419 -10 q 350 88 361 43 q 343 191 338 133 q 407 113 363 142 q 516 71 451 83 q 653 60 581 60 q 819 71 726 60 q 782 107 799 86 q 760 146 765 128 q 762 319 747 180 q 787 484 764 340 q 808 695 810 628 q 788 747 807 732 q 743 752 768 761 q 696 718 718 743 q 643 621 670 686 q 616 540 628 583 q 688 478 665 522 q 702 387 712 434 q 668 329 694 350 q 614 308 643 308 q 558 325 586 307 q 519 376 531 343 q 520 484 507 412 q 383 439 497 480 q 211 396 269 397 q 118 430 156 395 q 78 540 81 465 q 148 498 102 509 q 248 495 193 488 q 353 514 302 503 q 457 539 405 526 q 536 552 510 551 q 540 564 538 556 q 544 576 543 572 q 601 700 566 644 q 682 793 636 758 q 728 821 702 810 q 784 831 755 831 q 835 815 814 831 q 881 710 874 785 q 880 589 886 654 q 860 439 873 524 q 842 315 846 354 q 841 298 842 307 q 838 270 840 288 q 837 236 837 252 q 838 205 837 220 q 842 181 839 190 q 852 174 846 173 q 859 179 855 175 q 866 194 862 184 q 874 213 871 203 q 885 241 878 223 q 897 273 892 259 q 956 438 917 324 q 1030 636 995 551 q 1106 791 1065 722 q 1251 910 1171 902 q 1333 881 1301 915 q 1348 823 1359 852 q 1347 819 1348 821 q 1315 833 1333 833 q 1279 823 1297 833 q 1240 792 1261 812 q 1203 751 1220 773 q 1168 705 1185 730 q 1237 686 1196 688 q 1322 692 1278 684 q 1422 716 1366 701 q 1527 749 1478 732 q 1636 785 1576 766 q 1741 813 1696 803 q 1815 824 1777 821 q 1893 822 1853 827 q 1961 800 1933 816 q 2001 750 1988 785 q 2002 667 2014 716 q 1693 703 1988 756 q 1717 660 1717 688 q 1701 597 1718 631 q 1577 264 1661 500 q 1527 203 1558 212 q 1491 221 1502 197 q 1487 235 1488 227 q 1423 189 1457 197 q 1369 207 1390 181 q 1356 281 1349 232 q 1366 339 1362 321 q 1378 391 1371 366 q 1382 404 1380 397 q 1385 415 1383 410 q 1387 420 1386 419 q 1350 372 1369 403 q 1308 305 1323 332 q 1271 235 1283 261 q 1218 179 1250 191 q 1181 192 1191 170 q 1181 233 1175 207 q 1185 250 1182 238 q 1190 267 1187 261 l 1190 268 q 1147 213 1165 231 q 1072 200 1103 170 q 1054 303 1040 231 q 1071 373 1059 330 q 1093 446 1082 415 q 1098 460 1095 452 q 1102 470 1101 469 q 1143 514 1116 511 q 1177 496 1166 517 q 1176 449 1187 475 q 1133 334 1146 379 q 1132 265 1108 246 q 1229 414 1160 287 q 1238 431 1234 423 q 1240 438 1239 433 q 1242 446 1241 444 q 1273 524 1258 491 q 1291 545 1280 538 q 1314 550 1303 552 q 1334 540 1325 547 q 1345 519 1343 533 q 1341 490 1348 506 q 1331 465 1333 469 q 1313 425 1318 436 q 1298 393 1304 408 q 1291 374 1291 377 q 1319 420 1307 401 q 1350 463 1335 444 q 1381 498 1368 485 q 1440 529 1412 529 q 1476 501 1468 530 q 1468 422 1485 473 q 1447 361 1458 397 q 1428 252 1415 255 q 1477 303 1439 251 q 1493 325 1485 313 q 1522 372 1503 340 q 1641 693 1550 452 q 1404 641 1626 690 q 1267 621 1310 619 q 1164 699 1180 625 q 1116 616 1133 652 q 1049 467 1082 547 q 975 275 1021 399 q 909 100 929 151 q 905 92 907 98 q 901 82 903 85 q 1279 150 1001 96 q 1446 176 1369 167 q 1584 186 1522 185 q 1680 175 1645 186 q 1713 138 1714 163 q 1695 93 1712 126 q 1664 33 1678 60 q 1655 5 1650 7 q 1702 55 1664 2 q 1787 200 1754 125 q 1854 380 1820 274 q 1862 406 1860 399 q 1832 357 1853 388 q 1817 333 1821 339 q 1799 307 1813 327 q 1775 276 1784 286 q 1751 253 1765 267 q 1724 234 1737 239 q 1698 231 1710 229 q 1662 267 1671 234 q 1666 351 1652 299 q 1686 416 1676 389 q 1712 479 1698 450 q 1731 515 1723 503 q 1768 539 1746 539 q 1800 521 1791 539 q 1797 479 1808 503 q 1780 448 1787 463 q 1754 389 1765 415 q 1740 318 1725 313 q 1792 385 1754 323 q 1829 445 1806 406 q 1864 509 1841 466 q 1894 564 1885 547 m 650 368 q 668 394 663 376 q 670 431 673 412 q 650 467 667 450 q 605 488 633 484 q 611 376 583 411 q 646 366 627 356 q 650 368 648 366 m 2297 313 q 2320 263 2287 262 q 2399 310 2353 264 q 2459 396 2441 351 q 2455 377 2458 389 q 2442 333 2453 365 q 2417 275 2431 301 q 2378 225 2403 250 q 2321 195 2352 201 q 2261 202 2288 187 q 2217 298 2215 227 q 2223 345 2218 325 q 2247 418 2232 384 q 2282 488 2264 456 q 2323 545 2302 522 q 2380 583 2348 574 q 2434 577 2412 591 q 2464 532 2456 564 q 2451 450 2473 500 q 2409 382 2432 406 q 2363 357 2385 359 q 2336 368 2345 356 q 2335 399 2326 380 q 2354 394 2340 390 q 2400 452 2378 401 q 2406 511 2421 503 q 2394 506 2403 513 q 2369 475 2384 498 q 2336 419 2353 452 q 2297 313 2306 364 m 2209 531 q 2229 471 2229 513 q 2213 384 2228 429 q 2168 296 2197 338 q 2105 237 2138 254 q 2063 225 2085 226 q 2028 239 2041 225 q 2024 280 2015 253 q 2063 273 2037 257 q 2111 329 2090 288 q 2153 450 2146 394 q 2144 482 2159 485 q 2098 437 2129 478 q 2047 349 2069 397 q 1933 43 1973 195 q 1900 1 1923 6 q 1867 18 1878 -4 q 1868 87 1854 45 q 1927 260 1888 148 q 1980 410 1967 372 q 2016 516 2009 495 q 2025 542 2020 528 q 2033 564 2030 555 q 2066 591 2043 591 q 2096 569 2088 590 q 2095 534 2102 553 q 2087 511 2090 520 q 2131 544 2107 534 q 2175 548 2155 553 q 2209 531 2195 544 m 1207 547 q 1201 541 1207 547 q 1177 534 1195 534 q 1147 547 1160 534 q 1135 577 1135 559 q 1147 607 1135 595 q 1177 620 1160 620 q 1207 607 1195 620 q 1220 577 1220 595 q 1207 547 1220 559 m 1908 902 l 1934 980 l 1904 990 l 1911 1013 l 1997 983 l 1990 961 l 1959 971 l 1933 893 l 1908 902 m 1470 1023 l 1468 983 l 1441 985 l 1447 1091 l 1531 1086 l 1529 1063 l 1472 1066 l 1471 1047 l 1523 1044 l 1522 1021 l 1470 1023 m 1669 976 q 1660 969 1669 976 q 1627 966 1650 962 q 1590 988 1604 969 q 1579 1029 1575 1006 q 1601 1064 1582 1051 q 1644 1074 1621 1078 q 1681 1053 1667 1071 q 1692 1012 1695 1034 q 1669 976 1689 989 m 1660 1038 q 1656 1043 1660 1038 q 1640 1050 1653 1048 q 1618 1045 1628 1053 q 1606 1025 1608 1037 q 1611 1002 1604 1012 q 1631 989 1619 991 q 1653 995 1643 987 q 1665 1016 1663 1003 q 1660 1038 1667 1028 m 1773 1004 l 1759 943 l 1733 949 l 1756 1053 l 1782 1046 l 1814 975 l 1828 1036 l 1853 1031 l 1830 927 l 1805 933 l 1773 1004 m 1004 949 l 922 930 l 899 1034 l 981 1053 l 986 1029 l 930 1017 l 934 1001 l 985 1013 l 989 989 l 939 978 l 943 960 l 999 972 l 1004 949 m 815 897 l 778 884 l 744 985 l 781 998 q 828 998 806 1006 q 857 968 849 989 q 852 926 864 946 q 815 897 841 906 m 792 976 l 777 971 l 795 916 l 811 921 q 829 936 824 926 q 831 959 835 947 q 816 976 827 971 q 792 976 805 981 m 1275 982 q 1234 996 1252 981 q 1215 1034 1217 1012 q 1230 1074 1214 1057 q 1270 1092 1246 1091 q 1310 1078 1293 1093 q 1329 1040 1328 1062 q 1314 1000 1331 1017 q 1275 982 1298 983 m 1292 1060 q 1287 1064 1292 1060 q 1270 1067 1282 1068 q 1250 1058 1258 1067 q 1242 1036 1241 1048 q 1252 1014 1242 1023 q 1274 1006 1261 1005 q 1294 1016 1286 1006 q 1302 1038 1303 1025 q 1292 1060 1301 1051 m 1080 963 l 1055 959 l 1038 1064 l 1064 1068 l 1103 1018 l 1125 1078 l 1151 1082 l 1167 977 l 1141 972 l 1132 1034 l 1109 974 l 1071 1024 l 1080 963 m 706 902 q 545 825 622 868 l 530 848 q 696 928 614 895 l 706 902 m 2207 848 l 2192 825 q 2030 902 2115 868 l 2041 928 q 2207 848 2123 895 z "},"&":{"ha":2542,"x_min":78,"x_max":2473,"o":"m 1894 564 q 1925 596 1908 588 q 1954 597 1942 605 q 1973 573 1966 589 q 1973 530 1980 556 q 1750 -10 1877 146 q 1742 -19 1747 -13 q 1734 -27 1737 -24 q 1688 -58 1713 -48 q 1643 -63 1663 -67 q 1610 -45 1624 -58 q 1597 -6 1596 -32 q 1615 50 1598 19 q 1627 67 1618 55 q 1641 89 1635 79 q 1651 110 1647 99 q 1654 127 1656 120 q 1642 136 1652 134 q 1509 131 1608 142 q 1301 92 1411 120 q 1186 59 1272 85 q 1088 30 1124 41 q 982 0 1053 20 q 865 -27 911 -19 q 752 -47 820 -35 q 639 -57 684 -59 q 540 -52 594 -56 q 453 -30 486 -49 q 390 17 419 -10 q 350 88 361 43 q 343 191 338 133 q 407 113 363 142 q 516 71 451 83 q 653 60 581 60 q 819 71 726 60 q 782 107 799 85 q 760 146 765 128 q 762 319 747 180 q 787 484 764 340 q 808 695 810 628 q 788 747 807 732 q 743 752 768 761 q 696 718 718 743 q 643 621 670 686 q 616 540 628 583 q 688 478 665 522 q 702 387 712 434 q 668 329 694 350 q 614 308 643 308 q 558 325 586 307 q 519 376 531 343 q 520 484 507 412 q 383 439 497 480 q 211 396 269 397 q 118 430 156 395 q 78 540 81 465 q 148 498 102 509 q 248 495 193 488 q 353 514 302 503 q 457 539 405 526 q 536 552 510 551 q 540 564 538 556 q 544 576 543 572 q 601 700 566 644 q 682 793 636 758 q 728 821 702 810 q 784 831 755 831 q 835 815 814 831 q 881 710 874 785 q 880 589 886 654 q 860 439 873 524 q 842 315 846 354 q 841 298 842 307 q 838 270 840 288 q 837 236 837 252 q 838 205 837 220 q 842 181 839 190 q 852 174 846 173 q 859 179 855 175 q 866 194 862 184 q 874 213 871 203 q 885 241 878 223 q 897 273 892 259 q 956 438 917 324 q 1030 636 995 551 q 1106 791 1065 722 q 1251 910 1171 902 q 1333 881 1301 915 q 1348 823 1359 852 q 1347 819 1348 821 q 1315 833 1333 833 q 1279 823 1297 833 q 1240 792 1261 812 q 1203 751 1220 773 q 1168 705 1185 730 q 1237 686 1196 688 q 1322 692 1278 684 q 1422 716 1366 701 q 1527 749 1478 732 q 1636 785 1576 766 q 1741 813 1696 803 q 1815 824 1777 821 q 1893 822 1853 827 q 1961 800 1933 816 q 2001 750 1988 785 q 2002 667 2014 716 q 1693 703 1988 756 q 1717 660 1717 688 q 1701 597 1718 631 q 1577 264 1661 500 q 1527 203 1558 212 q 1491 221 1502 197 q 1487 235 1488 227 q 1423 189 1457 197 q 1369 207 1390 181 q 1356 281 1349 232 q 1366 339 1362 321 q 1378 391 1371 366 q 1382 404 1380 397 q 1385 415 1383 410 q 1387 420 1386 419 q 1350 372 1369 403 q 1308 305 1323 332 q 1271 235 1283 261 q 1218 179 1250 191 q 1181 192 1191 170 q 1181 233 1175 207 q 1185 250 1182 238 q 1190 267 1187 261 l 1190 268 q 1147 213 1165 231 q 1072 200 1103 170 q 1054 303 1040 231 q 1071 373 1059 330 q 1093 446 1082 415 q 1098 460 1095 452 q 1102 470 1101 469 q 1143 514 1116 511 q 1177 496 1166 517 q 1176 449 1187 475 q 1133 334 1146 379 q 1132 265 1108 246 q 1229 414 1160 287 q 1238 431 1234 423 q 1240 438 1239 433 q 1242 446 1241 444 q 1273 524 1258 491 q 1291 545 1280 538 q 1314 550 1303 552 q 1334 540 1325 547 q 1345 519 1343 533 q 1341 490 1348 506 q 1331 465 1333 469 q 1313 425 1318 436 q 1298 393 1304 408 q 1291 374 1291 377 q 1319 420 1307 401 q 1350 463 1335 444 q 1381 498 1368 485 q 1440 529 1412 529 q 1476 501 1468 530 q 1468 422 1485 473 q 1447 361 1458 397 q 1428 252 1415 255 q 1477 303 1439 251 q 1493 325 1485 313 q 1522 372 1503 340 q 1641 693 1550 452 q 1404 641 1626 690 q 1267 621 1310 619 q 1164 699 1180 625 q 1116 616 1133 652 q 1049 467 1082 547 q 975 275 1021 399 q 909 100 929 151 q 905 92 907 98 q 901 82 903 85 q 1279 150 1001 96 q 1446 176 1369 167 q 1584 186 1522 185 q 1680 175 1645 186 q 1713 138 1714 163 q 1695 93 1712 126 q 1664 33 1678 60 q 1655 5 1650 7 q 1702 55 1664 2 q 1787 200 1754 125 q 1854 380 1820 274 q 1862 406 1860 399 q 1832 357 1853 388 q 1817 333 1821 339 q 1799 307 1813 327 q 1775 276 1784 286 q 1751 253 1765 267 q 1724 234 1737 239 q 1698 231 1710 229 q 1662 267 1671 234 q 1666 351 1652 299 q 1686 416 1676 389 q 1712 479 1698 450 q 1731 515 1723 503 q 1768 539 1746 539 q 1800 521 1791 539 q 1797 479 1808 503 q 1780 448 1787 463 q 1754 389 1765 415 q 1740 318 1725 313 q 1792 385 1754 323 q 1829 445 1806 406 q 1864 509 1841 466 q 1894 564 1885 547 m 650 368 q 668 394 663 376 q 670 431 673 412 q 650 467 667 450 q 605 488 633 484 q 611 376 583 411 q 646 366 627 356 q 650 368 648 366 m 2297 313 q 2320 263 2287 262 q 2399 310 2353 264 q 2459 396 2441 351 q 2455 377 2458 389 q 2442 333 2453 365 q 2417 275 2431 301 q 2378 225 2403 250 q 2321 195 2352 201 q 2261 202 2288 187 q 2217 298 2215 227 q 2223 345 2218 325 q 2247 418 2232 384 q 2282 488 2264 456 q 2323 545 2302 522 q 2380 583 2348 574 q 2434 577 2412 591 q 2464 532 2456 564 q 2451 450 2473 500 q 2409 382 2432 406 q 2363 357 2385 359 q 2336 368 2345 356 q 2335 399 2326 380 q 2354 394 2340 390 q 2400 452 2378 401 q 2406 511 2421 503 q 2394 506 2403 513 q 2369 475 2384 498 q 2336 419 2353 452 q 2297 313 2306 364 m 2210 531 q 2230 471 2232 513 q 2213 384 2228 429 q 2168 296 2198 338 q 2105 237 2138 254 q 2063 225 2085 226 q 2028 239 2041 225 q 2024 280 2015 253 q 2063 273 2037 257 q 2111 329 2090 288 q 2153 450 2146 394 q 2144 482 2159 485 q 2098 437 2129 478 q 2047 349 2071 399 q 1933 43 1972 193 q 1900 1 1923 6 q 1867 18 1878 -4 q 1868 87 1854 45 q 1927 258 1887 147 q 1980 410 1966 368 q 2000 469 1988 432 q 2016 516 2012 505 q 2025 542 2020 528 q 2033 564 2030 555 q 2066 591 2043 591 q 2096 569 2088 590 q 2095 534 2102 553 q 2087 511 2090 520 q 2131 544 2107 534 q 2176 548 2156 553 q 2210 531 2195 544 m 1207 547 q 1201 541 1207 547 q 1177 534 1195 534 q 1147 547 1160 534 q 1135 577 1135 559 q 1147 607 1135 595 q 1177 620 1160 620 q 1207 607 1195 620 q 1220 577 1220 595 q 1207 547 1220 559 m 1669 976 q 1660 969 1669 976 q 1627 966 1650 962 q 1590 988 1604 969 q 1579 1029 1575 1006 q 1601 1064 1582 1051 q 1644 1074 1621 1078 q 1681 1053 1667 1071 q 1692 1012 1695 1034 q 1669 976 1689 989 m 1660 1038 q 1656 1043 1660 1038 q 1640 1050 1653 1048 q 1618 1045 1628 1053 q 1606 1025 1608 1037 q 1611 1002 1604 1012 q 1631 989 1619 991 q 1653 995 1643 987 q 1665 1016 1663 1003 q 1660 1038 1667 1028 m 1470 1023 l 1468 983 l 1441 985 l 1447 1091 l 1531 1086 l 1529 1063 l 1472 1066 l 1471 1047 l 1523 1044 l 1522 1021 l 1470 1023 m 1908 902 l 1934 980 l 1904 990 l 1911 1013 l 1997 983 l 1990 961 l 1959 971 l 1933 893 l 1908 902 m 1773 1004 l 1759 943 l 1733 949 l 1756 1053 l 1782 1046 l 1814 975 l 1828 1036 l 1853 1031 l 1830 927 l 1805 933 l 1773 1004 m 1080 963 l 1055 959 l 1038 1064 l 1064 1068 l 1103 1018 l 1125 1078 l 1151 1082 l 1167 977 l 1141 972 l 1132 1034 l 1109 974 l 1071 1024 l 1080 963 m 815 897 l 779 884 l 744 985 l 781 998 q 828 998 806 1006 q 857 968 849 989 q 852 926 864 946 q 815 897 841 906 m 792 976 l 777 971 l 795 916 l 811 921 q 829 936 824 926 q 831 959 835 947 q 816 976 827 971 q 792 976 805 981 m 1275 982 q 1234 996 1252 981 q 1215 1034 1217 1012 q 1230 1074 1214 1057 q 1270 1092 1246 1091 q 1310 1078 1293 1093 q 1329 1040 1328 1062 q 1314 1000 1331 1017 q 1275 982 1298 983 m 1292 1060 q 1287 1064 1292 1060 q 1270 1067 1282 1068 q 1250 1058 1258 1067 q 1242 1036 1241 1048 q 1252 1014 1242 1023 q 1274 1006 1261 1005 q 1294 1016 1286 1006 q 1302 1038 1303 1025 q 1292 1060 1301 1051 m 1004 949 l 922 930 l 899 1034 l 981 1053 l 986 1029 l 930 1017 l 934 1001 l 985 1013 l 989 989 l 939 978 l 943 960 l 999 972 l 1004 949 m 706 902 q 545 825 622 868 l 530 848 q 696 928 614 895 l 706 902 m 2207 848 l 2192 825 q 2030 902 2115 868 l 2041 928 q 2207 848 2123 895 z "},"'":{"ha":2542,"x_min":78,"x_max":2473,"o":"m 1894 564 q 1925 596 1908 588 q 1954 597 1942 605 q 1973 573 1966 589 q 1973 530 1980 556 q 1749 -10 1878 147 q 1734 -27 1744 -16 q 1688 -58 1713 -48 q 1643 -63 1663 -67 q 1609 -45 1623 -58 q 1596 -6 1596 -32 q 1615 50 1597 19 q 1626 67 1617 55 q 1640 89 1634 79 q 1651 110 1647 99 q 1654 127 1656 120 q 1642 136 1652 134 q 1509 131 1608 142 q 1301 92 1411 120 q 1186 59 1272 85 q 1088 30 1124 41 q 982 0 1053 20 q 865 -27 911 -19 q 752 -47 820 -35 q 639 -57 684 -59 q 540 -52 594 -56 q 453 -30 486 -49 q 390 17 419 -10 q 350 88 361 43 q 343 191 338 133 q 407 113 363 142 q 516 71 451 83 q 653 60 581 60 q 819 71 726 60 q 782 107 799 85 q 759 146 764 128 q 762 319 747 179 q 787 484 764 340 q 808 695 810 628 q 787 747 807 732 q 742 752 768 762 q 696 718 717 743 q 643 621 671 688 q 616 540 628 583 q 688 478 665 522 q 702 387 712 434 q 668 329 694 350 q 614 308 643 308 q 558 325 586 307 q 519 376 531 343 q 520 484 507 412 q 383 439 497 480 q 211 396 269 397 q 118 430 156 395 q 78 540 81 465 q 148 498 102 509 q 248 495 193 488 q 353 514 302 503 q 457 539 405 526 q 536 552 510 551 q 540 564 538 556 q 544 576 543 572 q 601 700 566 644 q 682 793 636 758 q 728 821 702 810 q 784 831 755 831 q 835 815 814 831 q 881 710 874 785 q 880 589 886 654 q 860 439 873 524 q 842 315 846 354 q 841 298 842 307 q 838 270 840 288 q 837 236 837 252 q 838 205 837 220 q 842 181 839 190 q 852 174 846 173 q 859 179 855 175 q 866 194 862 184 q 874 213 871 203 q 885 241 878 223 q 897 273 892 259 q 956 438 917 324 q 1030 636 995 551 q 1106 791 1065 722 q 1251 910 1171 902 q 1333 881 1301 915 q 1348 823 1359 852 q 1347 819 1348 821 q 1315 833 1333 833 q 1279 823 1297 833 q 1240 792 1261 812 q 1203 751 1220 773 q 1168 705 1185 730 q 1237 686 1196 688 q 1322 692 1278 684 q 1422 716 1366 701 q 1527 749 1478 732 q 1636 785 1576 766 q 1741 813 1696 803 q 1815 824 1777 821 q 1893 822 1853 827 q 1961 800 1933 816 q 2002 750 1989 785 q 2003 667 2015 716 q 1693 703 1988 756 q 1717 660 1717 688 q 1701 597 1718 631 q 1577 264 1661 500 q 1527 203 1558 212 q 1491 221 1502 197 q 1487 235 1488 227 q 1423 189 1457 197 q 1369 207 1390 181 q 1356 281 1349 232 q 1366 339 1362 321 q 1378 391 1371 366 q 1382 404 1380 397 q 1385 415 1383 410 q 1387 420 1386 419 q 1350 372 1369 403 q 1309 305 1329 340 q 1272 235 1284 261 q 1219 179 1251 191 q 1181 192 1192 170 q 1181 233 1175 207 q 1185 250 1182 238 q 1190 267 1187 261 l 1190 268 q 1147 213 1165 231 q 1072 200 1103 170 q 1054 303 1040 231 q 1071 373 1059 330 q 1093 446 1082 415 q 1098 459 1095 451 q 1103 470 1102 467 q 1144 515 1117 511 q 1177 496 1166 517 q 1176 449 1187 475 q 1133 334 1146 379 q 1132 265 1108 246 q 1229 414 1160 287 q 1238 431 1234 423 q 1240 438 1239 433 q 1243 446 1242 444 q 1274 524 1259 491 q 1292 545 1280 538 q 1315 550 1303 552 q 1335 540 1326 547 q 1346 519 1344 533 q 1342 490 1348 506 q 1331 465 1333 469 q 1313 425 1323 446 q 1298 393 1304 408 q 1291 374 1291 377 q 1320 420 1302 394 q 1350 463 1340 450 q 1381 498 1360 475 q 1428 528 1405 522 q 1463 522 1450 534 q 1479 486 1476 511 q 1468 422 1483 461 q 1447 361 1458 397 q 1428 252 1415 255 q 1477 303 1439 251 q 1493 325 1485 313 q 1522 372 1503 340 q 1641 693 1550 452 q 1405 641 1632 691 q 1267 621 1311 619 q 1164 699 1179 625 q 1116 616 1133 652 q 1049 467 1082 547 q 975 275 1021 399 q 909 100 929 151 q 905 92 907 98 q 901 82 903 85 q 1279 150 1001 96 q 1446 176 1369 167 q 1584 186 1522 185 q 1680 175 1645 186 q 1713 138 1714 163 q 1695 93 1712 126 q 1664 33 1678 60 q 1655 5 1650 7 q 1702 55 1664 2 q 1787 200 1754 126 q 1854 380 1820 275 q 1862 406 1860 399 q 1832 357 1853 388 q 1817 333 1821 339 q 1799 307 1813 327 q 1775 276 1784 286 q 1751 253 1765 267 q 1724 234 1737 239 q 1698 231 1710 229 q 1662 267 1671 234 q 1666 351 1652 299 q 1686 416 1676 389 q 1712 479 1698 450 q 1731 515 1723 503 q 1768 539 1746 539 q 1800 521 1791 539 q 1797 479 1808 503 q 1780 448 1787 463 q 1754 389 1765 415 q 1740 318 1725 313 q 1792 385 1754 323 q 1829 445 1806 406 q 1864 509 1841 466 q 1894 564 1885 547 m 650 368 q 668 394 663 376 q 670 431 673 412 q 650 467 667 450 q 605 488 633 484 q 611 376 583 411 q 646 366 627 356 q 650 368 648 366 m 2297 313 q 2320 263 2287 262 q 2399 310 2353 264 q 2459 396 2441 351 q 2455 377 2458 389 q 2442 333 2453 365 q 2417 275 2431 301 q 2378 225 2403 250 q 2321 195 2352 201 q 2261 202 2288 187 q 2217 298 2215 227 q 2223 345 2218 325 q 2247 418 2232 384 q 2282 488 2264 456 q 2323 545 2302 522 q 2380 583 2348 574 q 2434 577 2412 591 q 2464 532 2456 564 q 2451 450 2473 500 q 2409 382 2432 406 q 2363 357 2385 359 q 2336 368 2345 356 q 2336 399 2327 380 q 2354 394 2341 391 q 2400 452 2378 401 q 2406 511 2421 503 q 2394 506 2403 513 q 2369 475 2384 498 q 2336 419 2353 452 q 2297 313 2306 364 m 2210 531 q 2230 471 2232 513 q 2213 384 2228 429 q 2168 296 2198 338 q 2105 237 2138 254 q 2063 225 2085 226 q 2028 239 2041 225 q 2024 280 2015 253 q 2063 273 2037 257 q 2111 329 2090 288 q 2153 450 2146 394 q 2144 482 2159 485 q 2098 437 2129 478 q 2047 349 2071 399 q 1933 43 1972 193 q 1900 1 1923 6 q 1867 18 1878 -4 q 1868 87 1854 45 q 1927 258 1887 147 q 1980 410 1966 368 q 2000 469 1988 432 q 2016 516 2012 505 q 2025 542 2020 528 q 2033 564 2030 555 q 2066 591 2043 591 q 2096 569 2088 590 q 2095 534 2102 553 q 2087 511 2090 520 q 2131 544 2107 534 q 2176 548 2156 553 q 2210 531 2195 544 m 1207 547 q 1201 541 1207 547 q 1177 534 1195 534 q 1147 547 1160 534 q 1135 577 1135 559 q 1147 607 1135 595 q 1177 620 1160 620 q 1207 607 1195 620 q 1220 577 1220 595 q 1207 547 1220 559 m 1470 1023 l 1468 983 l 1441 985 l 1447 1091 l 1531 1086 l 1529 1063 l 1472 1066 l 1471 1047 l 1523 1044 l 1522 1021 l 1470 1023 m 1669 976 q 1660 969 1669 976 q 1627 966 1650 962 q 1590 988 1604 969 q 1579 1029 1576 1006 q 1602 1064 1583 1051 q 1644 1074 1621 1078 q 1681 1053 1667 1071 q 1692 1012 1695 1034 q 1669 976 1689 989 m 1660 1038 q 1656 1043 1660 1038 q 1640 1050 1653 1048 q 1618 1045 1628 1053 q 1606 1025 1608 1037 q 1611 1002 1604 1012 q 1631 989 1619 991 q 1653 995 1643 987 q 1665 1016 1663 1003 q 1660 1038 1667 1028 m 1773 1004 l 1759 943 l 1733 949 l 1756 1053 l 1783 1046 l 1814 975 l 1828 1036 l 1853 1031 l 1830 927 l 1805 933 l 1773 1004 m 1908 902 l 1934 980 l 1904 990 l 1911 1013 l 1997 983 l 1990 961 l 1959 971 l 1933 893 l 1908 902 m 1275 982 q 1234 996 1252 981 q 1215 1034 1217 1012 q 1230 1074 1214 1057 q 1270 1092 1246 1091 q 1310 1078 1293 1093 q 1329 1040 1328 1062 q 1314 1000 1331 1017 q 1275 982 1298 983 m 1292 1060 q 1287 1064 1292 1060 q 1270 1067 1282 1068 q 1250 1058 1258 1067 q 1242 1036 1242 1048 q 1252 1014 1243 1023 q 1274 1006 1261 1005 q 1294 1016 1286 1006 q 1302 1038 1303 1025 q 1292 1060 1301 1051 m 815 897 l 779 884 l 744 985 l 781 998 q 828 998 806 1006 q 857 968 849 989 q 852 926 864 946 q 815 897 841 906 m 792 976 l 777 971 l 795 916 l 811 921 q 829 936 824 926 q 831 959 835 947 q 816 976 827 971 q 792 976 805 981 m 1004 949 l 922 930 l 899 1034 l 981 1053 l 986 1029 l 930 1017 l 934 1001 l 985 1013 l 989 989 l 939 978 l 943 960 l 999 972 l 1004 949 m 1080 963 l 1055 959 l 1038 1064 l 1064 1068 l 1103 1018 l 1125 1078 l 1151 1082 l 1167 977 l 1141 972 l 1132 1034 l 1110 974 l 1072 1024 l 1080 963 m 706 902 q 545 825 622 868 l 530 848 q 696 928 612 894 l 706 902 m 2207 848 l 2192 825 q 2030 902 2115 868 l 2041 928 q 2207 848 2123 895 z "},"(":{"ha":2542,"x_min":78,"x_max":2473,"o":"m 1894 564 q 1925 596 1908 588 q 1954 597 1942 605 q 1973 573 1966 589 q 1973 530 1980 556 q 1750 -10 1877 146 q 1742 -19 1747 -13 q 1734 -27 1737 -24 q 1688 -58 1713 -48 q 1643 -63 1663 -67 q 1610 -45 1624 -58 q 1597 -6 1596 -32 q 1615 50 1598 19 q 1627 67 1618 55 q 1641 89 1635 79 q 1651 110 1647 99 q 1654 127 1656 120 q 1642 136 1652 134 q 1509 131 1608 142 q 1301 92 1411 120 q 1186 59 1272 85 q 1088 30 1124 41 q 982 0 1053 20 q 865 -27 911 -19 q 752 -47 820 -35 q 639 -57 684 -59 q 540 -52 594 -56 q 453 -30 486 -49 q 390 17 419 -10 q 350 88 361 43 q 343 191 338 133 q 407 113 363 142 q 516 71 451 83 q 653 60 581 60 q 819 71 726 60 q 782 107 799 85 q 759 146 764 128 q 762 319 747 179 q 787 484 764 340 q 808 695 810 628 q 788 747 807 732 q 743 752 768 761 q 696 718 718 743 q 643 621 670 686 q 616 540 628 583 q 688 478 665 522 q 702 387 712 434 q 668 329 694 350 q 614 308 643 308 q 558 325 586 307 q 519 376 531 343 q 520 484 507 412 q 383 439 497 480 q 211 396 269 397 q 118 430 156 395 q 78 540 81 465 q 148 498 102 509 q 248 495 193 488 q 353 514 302 503 q 457 539 405 526 q 536 552 510 551 q 540 564 538 556 q 544 576 543 572 q 601 700 566 644 q 682 793 636 758 q 728 821 702 810 q 784 831 755 831 q 835 815 814 831 q 881 710 874 785 q 880 589 886 654 q 860 439 873 524 q 842 315 846 354 q 841 298 842 307 q 838 270 840 288 q 837 236 837 252 q 838 205 837 220 q 842 181 839 190 q 852 174 846 173 q 859 179 855 175 q 866 194 862 184 q 874 213 871 203 q 885 241 878 223 q 897 273 892 259 q 956 438 917 324 q 1030 636 995 551 q 1106 791 1065 722 q 1251 910 1171 902 q 1333 881 1301 915 q 1348 823 1359 852 q 1347 819 1348 821 q 1315 833 1333 833 q 1279 823 1297 833 q 1240 792 1261 812 q 1203 751 1220 773 q 1168 705 1185 730 q 1237 686 1196 688 q 1322 692 1278 684 q 1422 716 1366 701 q 1527 749 1478 732 q 1636 785 1576 766 q 1741 813 1696 803 q 1815 824 1777 821 q 1893 822 1853 827 q 1961 800 1933 816 q 2001 750 1988 785 q 2002 667 2014 716 q 1693 703 1988 756 q 1717 660 1717 688 q 1701 597 1718 631 q 1577 264 1661 500 q 1527 203 1558 212 q 1491 221 1502 197 q 1487 235 1488 227 q 1423 189 1457 197 q 1369 207 1390 181 q 1356 281 1349 232 q 1366 339 1362 321 q 1378 391 1371 366 q 1382 404 1380 397 q 1385 415 1383 410 q 1387 420 1386 419 q 1350 372 1369 403 q 1308 305 1323 332 q 1271 235 1283 261 q 1218 179 1250 191 q 1181 192 1191 170 q 1181 233 1175 207 q 1185 250 1182 238 q 1190 267 1187 261 l 1190 268 q 1147 213 1165 231 q 1072 200 1103 170 q 1054 303 1040 231 q 1071 373 1059 330 q 1093 446 1082 415 q 1098 460 1095 452 q 1102 470 1101 469 q 1143 514 1116 511 q 1177 496 1166 517 q 1176 449 1187 475 q 1133 334 1146 379 q 1132 265 1108 246 q 1229 414 1160 287 q 1238 431 1234 423 q 1240 438 1239 433 q 1242 446 1241 444 q 1273 524 1258 491 q 1291 545 1280 538 q 1314 550 1303 552 q 1334 540 1325 547 q 1345 519 1343 533 q 1341 490 1348 506 q 1331 465 1333 469 q 1313 425 1318 436 q 1298 393 1304 408 q 1291 374 1291 377 q 1319 420 1307 401 q 1350 463 1335 444 q 1381 498 1364 479 q 1440 529 1412 529 q 1476 501 1468 530 q 1468 422 1485 473 q 1447 361 1458 397 q 1428 252 1415 255 q 1477 303 1439 251 q 1493 325 1485 313 q 1522 372 1503 340 q 1641 693 1550 452 q 1404 641 1626 690 q 1267 621 1310 619 q 1164 699 1180 625 q 1116 616 1133 652 q 1049 467 1082 547 q 975 275 1021 399 q 909 100 929 151 q 905 92 907 98 q 901 82 903 85 q 1279 150 1001 96 q 1446 176 1369 167 q 1584 186 1522 185 q 1680 175 1645 186 q 1713 138 1714 163 q 1695 93 1712 126 q 1664 33 1678 60 q 1655 5 1650 7 q 1702 55 1664 2 q 1787 200 1754 125 q 1854 380 1820 274 q 1862 406 1860 399 q 1832 357 1853 388 q 1817 333 1821 339 q 1799 307 1813 327 q 1775 276 1784 286 q 1751 253 1765 267 q 1724 234 1737 239 q 1698 231 1710 229 q 1662 267 1671 234 q 1666 351 1652 299 q 1686 416 1676 389 q 1712 479 1698 450 q 1731 515 1723 503 q 1768 539 1746 539 q 1800 521 1791 539 q 1797 479 1808 503 q 1780 448 1787 463 q 1754 389 1765 415 q 1740 318 1725 313 q 1792 385 1754 323 q 1829 445 1806 406 q 1864 509 1841 466 q 1894 564 1885 547 m 650 368 q 668 394 663 376 q 670 431 673 412 q 650 467 667 450 q 605 488 633 484 q 611 376 583 411 q 646 366 627 356 q 650 368 648 366 m 2297 313 q 2320 263 2287 262 q 2399 310 2353 264 q 2459 396 2441 351 q 2455 377 2458 389 q 2442 333 2453 365 q 2417 275 2431 301 q 2378 225 2403 250 q 2321 195 2352 201 q 2261 202 2288 187 q 2217 298 2215 227 q 2223 345 2218 325 q 2247 418 2232 384 q 2282 488 2264 456 q 2323 545 2302 522 q 2380 583 2348 574 q 2434 577 2412 591 q 2464 532 2456 564 q 2451 450 2473 500 q 2409 382 2432 406 q 2363 357 2385 359 q 2336 368 2345 356 q 2336 399 2327 380 q 2354 394 2341 391 q 2400 452 2378 401 q 2406 511 2421 503 q 2394 506 2403 513 q 2369 475 2384 498 q 2336 419 2353 452 q 2297 313 2306 364 m 2210 531 q 2230 471 2232 513 q 2213 384 2228 429 q 2168 296 2198 338 q 2105 237 2138 254 q 2063 225 2085 226 q 2028 239 2041 225 q 2024 280 2015 253 q 2063 273 2037 257 q 2111 329 2090 288 q 2153 450 2146 394 q 2144 482 2159 485 q 2098 437 2129 478 q 2047 349 2071 399 q 1933 43 1972 193 q 1900 1 1923 6 q 1867 18 1878 -4 q 1868 87 1854 45 q 1927 258 1887 147 q 1980 410 1966 368 q 2000 469 1988 432 q 2016 516 2012 505 q 2025 542 2020 528 q 2033 564 2030 555 q 2066 591 2043 591 q 2096 569 2088 590 q 2095 534 2102 553 q 2087 511 2090 520 q 2131 544 2107 534 q 2176 548 2156 553 q 2210 531 2195 544 m 1207 547 q 1201 541 1207 547 q 1177 534 1195 534 q 1147 547 1160 534 q 1135 577 1135 559 q 1147 607 1135 595 q 1177 620 1160 620 q 1207 607 1195 620 q 1220 577 1220 595 q 1207 547 1220 559 m 1669 976 q 1660 969 1669 976 q 1627 966 1650 962 q 1590 988 1604 969 q 1579 1029 1575 1006 q 1601 1064 1582 1051 q 1644 1074 1621 1078 q 1681 1053 1667 1071 q 1692 1012 1695 1034 q 1669 976 1689 989 m 1660 1038 q 1656 1043 1660 1038 q 1640 1050 1653 1048 q 1618 1045 1628 1053 q 1606 1025 1608 1037 q 1611 1002 1604 1012 q 1631 989 1619 991 q 1653 995 1643 987 q 1665 1016 1663 1003 q 1660 1038 1667 1028 m 1470 1023 l 1468 983 l 1441 985 l 1447 1091 l 1531 1086 l 1529 1063 l 1472 1066 l 1471 1047 l 1523 1044 l 1522 1021 l 1470 1023 m 1908 902 l 1934 980 l 1904 990 l 1911 1013 l 1997 983 l 1990 961 l 1959 971 l 1933 893 l 1908 902 m 1773 1004 l 1759 943 l 1733 949 l 1756 1053 l 1782 1046 l 1814 975 l 1828 1036 l 1853 1031 l 1830 927 l 1805 933 l 1773 1004 m 1275 982 q 1234 996 1252 981 q 1215 1034 1217 1012 q 1230 1074 1214 1057 q 1270 1092 1246 1091 q 1310 1078 1293 1093 q 1329 1040 1328 1062 q 1314 1000 1331 1017 q 1275 982 1298 983 m 1292 1060 q 1287 1064 1292 1060 q 1270 1067 1282 1068 q 1250 1058 1258 1067 q 1242 1036 1241 1048 q 1252 1014 1242 1023 q 1274 1006 1261 1005 q 1294 1016 1286 1006 q 1302 1038 1303 1025 q 1292 1060 1301 1051 m 815 897 l 779 884 l 744 985 l 781 998 q 828 998 806 1006 q 857 968 849 989 q 852 926 864 946 q 815 897 841 906 m 792 976 l 777 971 l 795 916 l 811 921 q 829 936 824 926 q 831 959 835 947 q 816 976 827 971 q 792 976 805 981 m 1004 949 l 922 930 l 899 1034 l 981 1053 l 986 1029 l 930 1017 l 934 1001 l 985 1013 l 989 989 l 939 978 l 943 960 l 999 972 l 1004 949 m 1080 963 l 1055 959 l 1038 1064 l 1064 1068 l 1103 1018 l 1125 1078 l 1151 1082 l 1167 977 l 1141 972 l 1132 1034 l 1109 974 l 1071 1024 l 1080 963 m 706 902 q 545 825 622 868 l 530 848 q 696 928 612 894 l 706 902 m 2207 848 l 2192 825 q 2030 902 2115 868 l 2041 928 q 2207 848 2123 895 z "},")":{"ha":2542,"x_min":78,"x_max":2473,"o":"m 1894 564 q 1925 596 1908 588 q 1954 597 1942 605 q 1973 573 1966 589 q 1973 530 1980 556 q 1750 -10 1877 146 q 1742 -19 1747 -13 q 1734 -27 1737 -24 q 1688 -58 1713 -48 q 1643 -63 1663 -67 q 1610 -45 1624 -58 q 1597 -6 1596 -32 q 1615 50 1598 19 q 1627 67 1618 55 q 1641 89 1635 79 q 1651 110 1647 99 q 1654 127 1656 120 q 1642 136 1652 134 q 1509 131 1608 142 q 1301 92 1411 120 q 1186 59 1272 85 q 1088 30 1124 41 q 982 0 1053 20 q 865 -27 911 -19 q 752 -47 820 -35 q 639 -57 684 -59 q 540 -52 594 -56 q 453 -30 486 -49 q 390 17 419 -10 q 350 88 361 43 q 343 191 338 133 q 407 113 363 142 q 516 71 451 83 q 653 60 581 60 q 819 71 726 60 q 782 107 799 85 q 759 146 764 128 q 762 319 747 179 q 787 484 764 340 q 808 695 810 628 q 788 747 807 732 q 743 752 768 761 q 696 718 718 743 q 643 621 670 686 q 616 540 628 583 q 688 478 665 522 q 702 387 712 434 q 668 329 694 350 q 614 308 643 308 q 558 325 586 307 q 519 376 531 343 q 520 484 507 412 q 383 439 497 480 q 211 396 269 397 q 118 430 156 395 q 78 540 81 465 q 148 498 102 509 q 248 495 193 488 q 353 514 302 503 q 457 539 405 526 q 536 552 510 551 q 540 564 538 556 q 544 576 543 572 q 601 700 566 644 q 682 793 636 758 q 728 821 702 810 q 784 831 755 831 q 835 815 814 831 q 881 710 874 785 q 880 589 886 654 q 860 439 873 524 q 842 315 846 354 q 841 298 842 307 q 838 270 840 288 q 837 236 837 252 q 838 205 837 220 q 842 181 839 190 q 852 174 846 173 q 859 179 855 175 q 866 194 862 184 q 874 213 871 203 q 885 241 878 223 q 897 273 892 259 q 956 438 917 324 q 1030 636 995 551 q 1106 791 1065 722 q 1251 910 1171 902 q 1333 881 1301 915 q 1348 823 1359 852 q 1347 819 1348 821 q 1315 833 1333 833 q 1279 823 1297 833 q 1240 792 1261 812 q 1203 751 1220 773 q 1168 705 1185 730 q 1237 686 1196 688 q 1322 692 1278 684 q 1422 716 1366 701 q 1527 749 1478 732 q 1636 785 1576 766 q 1741 813 1696 803 q 1815 824 1777 821 q 1893 822 1853 827 q 1961 800 1933 816 q 2001 750 1988 785 q 2002 667 2014 716 q 1693 703 1988 756 q 1717 660 1717 688 q 1701 597 1718 631 q 1577 264 1661 500 q 1527 203 1558 212 q 1491 221 1502 197 q 1487 235 1488 227 q 1423 189 1457 197 q 1369 207 1390 181 q 1356 281 1349 232 q 1366 339 1362 321 q 1378 391 1371 366 q 1382 404 1380 397 q 1385 415 1383 410 q 1387 420 1386 419 q 1350 372 1369 403 q 1308 305 1323 332 q 1271 235 1283 261 q 1218 179 1250 191 q 1181 192 1191 170 q 1181 233 1175 207 q 1185 250 1182 238 q 1190 267 1187 261 l 1190 268 q 1147 213 1165 231 q 1072 200 1103 170 q 1054 303 1040 231 q 1071 373 1059 330 q 1093 446 1082 415 q 1098 460 1095 452 q 1102 470 1101 469 q 1143 514 1116 511 q 1177 496 1166 517 q 1176 449 1187 475 q 1133 334 1146 379 q 1132 265 1108 246 q 1229 414 1160 287 q 1238 431 1234 423 q 1240 438 1239 433 q 1242 446 1241 444 q 1273 524 1258 491 q 1291 545 1280 538 q 1314 550 1303 552 q 1334 540 1325 547 q 1345 519 1343 533 q 1341 490 1348 506 q 1331 465 1333 469 q 1313 425 1318 436 q 1298 393 1304 408 q 1291 374 1291 377 q 1319 420 1307 401 q 1350 463 1335 444 q 1381 498 1364 479 q 1440 529 1412 529 q 1476 501 1468 530 q 1468 422 1485 473 q 1447 361 1458 397 q 1428 252 1415 255 q 1477 303 1439 251 q 1493 325 1485 313 q 1522 372 1503 340 q 1641 693 1550 452 q 1404 641 1626 690 q 1267 621 1310 619 q 1164 699 1180 625 q 1116 616 1133 652 q 1049 467 1082 547 q 975 275 1021 399 q 909 100 929 151 q 905 92 907 98 q 901 82 903 85 q 1279 150 1001 96 q 1446 176 1369 167 q 1584 186 1522 185 q 1680 175 1645 186 q 1713 138 1714 163 q 1695 93 1712 126 q 1664 33 1678 60 q 1655 5 1650 7 q 1702 55 1664 2 q 1787 200 1754 125 q 1854 380 1820 274 q 1862 406 1860 399 q 1832 357 1853 388 q 1817 333 1821 339 q 1799 307 1813 327 q 1775 276 1784 286 q 1751 253 1765 267 q 1724 234 1737 239 q 1698 231 1710 229 q 1662 267 1671 234 q 1666 351 1652 299 q 1686 416 1676 389 q 1712 479 1698 450 q 1731 515 1723 503 q 1768 539 1746 539 q 1800 521 1791 539 q 1797 479 1808 503 q 1780 448 1787 463 q 1754 389 1765 415 q 1740 318 1725 313 q 1792 385 1754 323 q 1829 445 1806 406 q 1864 509 1841 466 q 1894 564 1885 547 m 650 368 q 668 394 663 376 q 670 431 673 412 q 650 467 667 450 q 605 488 633 484 q 611 376 583 411 q 646 366 627 356 q 650 368 648 366 m 2297 313 q 2320 263 2287 262 q 2399 310 2353 264 q 2459 396 2441 351 q 2455 377 2458 389 q 2442 333 2453 365 q 2417 275 2431 301 q 2378 225 2403 250 q 2321 195 2352 201 q 2261 202 2288 187 q 2217 298 2215 227 q 2223 345 2218 325 q 2247 418 2232 384 q 2282 488 2264 456 q 2323 545 2302 522 q 2380 583 2348 574 q 2434 577 2412 591 q 2464 532 2456 564 q 2451 450 2473 500 q 2409 382 2432 406 q 2363 357 2385 359 q 2336 368 2345 356 q 2336 399 2327 380 q 2354 394 2341 391 q 2400 452 2378 401 q 2406 511 2421 503 q 2394 506 2403 513 q 2369 475 2384 498 q 2336 419 2353 452 q 2297 313 2306 364 m 2210 531 q 2230 471 2232 513 q 2213 384 2228 429 q 2168 296 2198 338 q 2105 237 2138 254 q 2063 225 2085 226 q 2028 239 2041 225 q 2024 280 2015 253 q 2063 273 2037 257 q 2111 329 2090 288 q 2153 450 2146 394 q 2144 482 2159 485 q 2098 437 2129 478 q 2047 349 2071 399 q 1933 43 1972 193 q 1900 1 1923 6 q 1867 18 1878 -4 q 1868 87 1854 45 q 1927 258 1887 147 q 1980 410 1966 368 q 2000 469 1988 432 q 2016 516 2012 505 q 2025 542 2020 528 q 2033 564 2030 555 q 2066 591 2043 591 q 2096 569 2088 590 q 2095 534 2102 553 q 2087 511 2090 520 q 2131 544 2107 534 q 2176 548 2156 553 q 2210 531 2195 544 m 1207 547 q 1201 541 1207 547 q 1177 534 1195 534 q 1147 547 1160 534 q 1135 577 1135 559 q 1147 607 1135 595 q 1177 620 1160 620 q 1207 607 1195 620 q 1220 577 1220 595 q 1207 547 1220 559 m 1669 976 q 1660 969 1669 976 q 1627 966 1650 962 q 1590 988 1604 969 q 1579 1029 1575 1006 q 1601 1064 1582 1051 q 1644 1074 1621 1078 q 1681 1053 1667 1071 q 1692 1012 1695 1034 q 1669 976 1689 989 m 1660 1038 q 1656 1043 1660 1038 q 1640 1050 1653 1048 q 1618 1045 1628 1053 q 1606 1025 1608 1037 q 1611 1002 1604 1012 q 1631 989 1619 991 q 1653 995 1643 987 q 1665 1016 1663 1003 q 1660 1038 1667 1028 m 1773 1004 l 1759 943 l 1733 949 l 1756 1053 l 1782 1046 l 1814 975 l 1828 1036 l 1853 1031 l 1830 927 l 1805 933 l 1773 1004 m 1908 902 l 1934 980 l 1904 990 l 1911 1013 l 1997 983 l 1990 961 l 1959 971 l 1933 893 l 1908 902 m 1470 1023 l 1468 983 l 1441 985 l 1447 1091 l 1531 1086 l 1529 1063 l 1472 1066 l 1471 1047 l 1523 1044 l 1522 1021 l 1470 1023 m 1004 949 l 922 930 l 899 1034 l 981 1053 l 986 1029 l 930 1017 l 934 1001 l 985 1013 l 989 989 l 939 978 l 943 960 l 999 972 l 1004 949 m 815 897 l 779 884 l 744 985 l 781 998 q 828 998 806 1006 q 857 968 849 989 q 852 926 864 946 q 815 897 841 906 m 792 976 l 777 971 l 795 916 l 811 921 q 829 936 824 926 q 831 959 835 947 q 816 976 827 971 q 792 976 805 981 m 1275 982 q 1234 996 1252 981 q 1215 1034 1217 1012 q 1230 1074 1214 1057 q 1270 1092 1246 1091 q 1310 1078 1293 1093 q 1329 1040 1328 1062 q 1314 1000 1331 1017 q 1275 982 1298 983 m 1292 1060 q 1287 1064 1292 1060 q 1270 1067 1282 1068 q 1250 1058 1258 1067 q 1242 1036 1242 1048 q 1252 1014 1243 1023 q 1274 1006 1261 1005 q 1294 1016 1286 1006 q 1302 1038 1303 1025 q 1292 1060 1301 1051 m 1080 963 l 1055 959 l 1038 1064 l 1064 1068 l 1103 1018 l 1125 1078 l 1151 1082 l 1167 977 l 1141 972 l 1132 1034 l 1109 974 l 1071 1024 l 1080 963 m 706 902 q 545 825 622 868 l 530 848 q 696 928 612 894 l 706 902 m 2207 848 l 2192 825 q 2030 902 2115 868 l 2041 928 q 2207 848 2123 895 z "},"*":{"ha":2542,"x_min":78,"x_max":2473,"o":"m 1894 564 q 1925 596 1908 588 q 1954 597 1942 605 q 1973 573 1966 589 q 1973 530 1980 556 q 1750 -10 1877 146 q 1742 -19 1747 -13 q 1734 -27 1737 -24 q 1688 -58 1713 -48 q 1643 -63 1663 -67 q 1610 -45 1624 -58 q 1597 -6 1596 -32 q 1615 50 1598 19 q 1627 67 1618 55 q 1641 89 1635 79 q 1651 110 1647 99 q 1654 127 1656 120 q 1642 136 1652 134 q 1509 131 1608 142 q 1301 92 1411 120 q 1186 59 1272 85 q 1088 30 1124 41 q 982 0 1053 20 q 865 -27 911 -19 q 752 -47 820 -35 q 639 -57 684 -59 q 540 -52 594 -56 q 453 -30 486 -49 q 390 17 419 -10 q 350 88 361 43 q 343 191 338 133 q 407 113 363 142 q 516 71 451 83 q 653 60 581 60 q 819 71 726 60 q 782 107 799 85 q 759 146 764 128 q 762 319 747 179 q 787 484 764 340 q 808 695 810 628 q 788 747 807 732 q 743 752 768 761 q 696 718 718 743 q 643 621 670 686 q 616 540 628 583 q 688 478 665 522 q 702 387 712 434 q 668 329 694 350 q 614 308 643 308 q 558 325 586 307 q 519 376 531 343 q 520 484 507 412 q 383 439 497 480 q 211 396 269 397 q 118 430 156 395 q 78 540 81 465 q 148 498 102 509 q 248 495 193 488 q 353 514 302 503 q 457 539 405 526 q 536 552 510 551 q 540 564 538 556 q 544 576 543 572 q 601 700 566 644 q 682 793 636 758 q 728 821 702 810 q 784 831 755 831 q 835 815 814 831 q 881 710 874 785 q 880 589 886 654 q 860 439 873 524 q 842 315 846 354 q 841 298 842 307 q 838 270 840 288 q 837 236 837 252 q 838 205 837 220 q 842 181 839 190 q 852 174 846 173 q 859 179 855 175 q 866 194 862 184 q 874 213 871 203 q 885 241 878 223 q 897 273 892 259 q 956 438 917 324 q 1030 636 995 551 q 1106 791 1065 722 q 1251 910 1171 902 q 1333 881 1301 915 q 1348 823 1359 852 q 1347 819 1348 821 q 1315 833 1333 833 q 1279 823 1297 833 q 1240 792 1261 812 q 1203 751 1220 773 q 1168 705 1185 730 q 1237 686 1196 688 q 1322 692 1278 684 q 1422 716 1366 701 q 1527 749 1478 732 q 1636 785 1576 766 q 1741 813 1696 803 q 1815 824 1777 821 q 1893 822 1853 827 q 1961 800 1933 816 q 2001 750 1988 785 q 2002 667 2014 716 q 1693 703 1988 756 q 1717 660 1717 688 q 1701 597 1718 631 q 1577 264 1661 500 q 1527 203 1558 212 q 1491 221 1502 197 q 1487 235 1488 227 q 1423 189 1457 197 q 1369 207 1390 181 q 1356 281 1349 232 q 1366 339 1362 321 q 1378 391 1371 366 q 1382 404 1380 397 q 1385 415 1383 410 q 1387 420 1386 419 q 1350 372 1369 403 q 1308 305 1323 332 q 1271 235 1283 261 q 1218 179 1250 191 q 1181 192 1191 170 q 1181 233 1175 207 q 1185 250 1182 238 q 1190 267 1187 261 l 1190 268 q 1147 213 1165 231 q 1072 200 1103 170 q 1054 303 1040 231 q 1071 373 1059 330 q 1093 446 1082 415 q 1098 460 1095 452 q 1102 470 1101 469 q 1143 514 1116 511 q 1177 496 1166 517 q 1176 449 1187 475 q 1133 334 1146 379 q 1132 265 1108 246 q 1229 414 1160 287 q 1238 431 1234 423 q 1240 438 1239 433 q 1242 446 1241 444 q 1273 524 1258 491 q 1291 545 1280 538 q 1314 550 1303 552 q 1334 540 1325 547 q 1345 519 1343 533 q 1341 490 1348 506 q 1331 465 1333 469 q 1313 425 1318 436 q 1298 393 1304 408 q 1291 374 1291 377 q 1319 420 1307 401 q 1350 463 1335 444 q 1381 498 1364 479 q 1440 529 1412 529 q 1476 501 1468 530 q 1468 422 1485 473 q 1447 361 1458 397 q 1428 252 1415 255 q 1477 303 1439 251 q 1493 325 1485 313 q 1522 372 1503 340 q 1641 693 1550 452 q 1404 641 1626 690 q 1267 621 1310 619 q 1164 699 1180 625 q 1116 616 1133 652 q 1049 467 1082 547 q 975 275 1021 399 q 909 100 929 151 q 905 92 907 98 q 901 82 903 85 q 1279 150 1001 96 q 1446 176 1369 167 q 1584 186 1522 185 q 1680 175 1645 186 q 1713 138 1714 163 q 1695 93 1712 126 q 1664 33 1678 60 q 1655 5 1650 7 q 1702 55 1664 2 q 1787 200 1754 125 q 1854 380 1820 274 q 1862 406 1860 399 q 1832 357 1853 388 q 1817 333 1821 339 q 1799 307 1813 327 q 1775 276 1784 286 q 1751 253 1765 267 q 1724 234 1737 239 q 1698 231 1710 229 q 1662 267 1671 234 q 1666 351 1652 299 q 1686 416 1676 389 q 1712 479 1698 450 q 1731 515 1723 503 q 1768 539 1746 539 q 1800 521 1791 539 q 1797 479 1808 503 q 1780 448 1787 463 q 1754 389 1765 415 q 1740 318 1725 313 q 1792 385 1754 323 q 1829 445 1806 406 q 1864 509 1841 466 q 1894 564 1885 547 m 650 368 q 668 394 663 376 q 670 431 673 412 q 650 467 667 450 q 605 488 633 484 q 611 376 583 411 q 646 366 627 356 q 650 368 648 366 m 2297 313 q 2320 263 2287 262 q 2399 310 2353 264 q 2459 396 2441 351 q 2455 377 2458 389 q 2442 333 2453 365 q 2417 275 2431 301 q 2378 225 2403 250 q 2321 195 2352 201 q 2261 202 2288 187 q 2217 298 2215 227 q 2223 345 2218 325 q 2247 418 2232 384 q 2282 488 2264 456 q 2323 545 2302 522 q 2380 583 2348 574 q 2434 577 2412 591 q 2464 532 2456 564 q 2451 450 2473 500 q 2409 382 2432 406 q 2363 357 2385 359 q 2336 368 2345 356 q 2335 399 2326 380 q 2354 394 2340 390 q 2400 452 2378 401 q 2406 511 2421 503 q 2394 506 2403 513 q 2369 475 2384 498 q 2336 419 2353 452 q 2297 313 2306 364 m 2210 531 q 2230 471 2232 513 q 2213 384 2228 429 q 2168 296 2198 338 q 2105 237 2138 254 q 2063 225 2085 226 q 2028 239 2041 225 q 2024 280 2015 253 q 2063 273 2037 257 q 2111 329 2090 288 q 2153 450 2146 394 q 2144 482 2159 485 q 2098 437 2129 478 q 2047 349 2071 399 q 1933 43 1972 193 q 1900 1 1923 6 q 1867 18 1878 -4 q 1868 87 1854 45 q 1927 258 1887 147 q 1980 410 1966 368 q 2000 469 1988 432 q 2016 516 2012 505 q 2025 542 2020 528 q 2033 564 2030 555 q 2066 591 2043 591 q 2096 569 2088 590 q 2095 534 2102 553 q 2087 511 2090 520 q 2131 544 2107 534 q 2176 548 2156 553 q 2210 531 2195 544 m 1207 547 q 1201 541 1207 547 q 1177 534 1195 534 q 1147 547 1160 534 q 1135 577 1135 559 q 1147 607 1135 595 q 1177 620 1160 620 q 1207 607 1195 620 q 1220 577 1220 595 q 1207 547 1220 559 m 1669 976 q 1660 969 1669 976 q 1627 966 1650 962 q 1590 988 1604 969 q 1579 1029 1575 1006 q 1601 1064 1582 1051 q 1644 1074 1621 1078 q 1681 1053 1667 1071 q 1692 1012 1695 1034 q 1669 976 1689 989 m 1660 1038 q 1656 1043 1660 1038 q 1640 1050 1653 1048 q 1618 1045 1628 1053 q 1606 1025 1608 1037 q 1611 1002 1604 1012 q 1631 989 1619 991 q 1653 995 1643 987 q 1665 1016 1663 1003 q 1660 1038 1667 1028 m 1773 1004 l 1759 943 l 1733 949 l 1756 1053 l 1782 1046 l 1814 975 l 1828 1036 l 1853 1031 l 1830 927 l 1805 933 l 1773 1004 m 815 897 l 779 884 l 744 985 l 781 998 q 828 998 806 1006 q 857 968 849 989 q 852 926 864 946 q 815 897 841 906 m 792 976 l 777 971 l 795 916 l 811 921 q 829 936 824 926 q 831 959 835 947 q 816 976 827 971 q 792 976 805 981 m 1908 902 l 1934 980 l 1904 990 l 1911 1013 l 1997 983 l 1990 961 l 1959 971 l 1933 893 l 1908 902 m 1470 1023 l 1468 983 l 1441 985 l 1447 1091 l 1531 1086 l 1529 1063 l 1472 1066 l 1471 1047 l 1523 1044 l 1522 1021 l 1470 1023 m 1004 949 l 922 930 l 899 1034 l 981 1053 l 986 1029 l 930 1017 l 934 1001 l 985 1013 l 989 989 l 939 978 l 943 960 l 999 972 l 1004 949 m 1080 963 l 1055 959 l 1038 1064 l 1064 1068 l 1103 1018 l 1125 1078 l 1151 1082 l 1167 977 l 1141 972 l 1132 1034 l 1109 974 l 1071 1024 l 1080 963 m 1275 982 q 1234 996 1252 981 q 1215 1034 1217 1012 q 1230 1074 1214 1057 q 1270 1092 1246 1091 q 1310 1078 1293 1093 q 1329 1040 1328 1062 q 1314 1000 1331 1017 q 1275 982 1298 983 m 1292 1060 q 1287 1064 1292 1060 q 1270 1067 1282 1068 q 1250 1058 1258 1067 q 1242 1036 1241 1048 q 1252 1014 1242 1023 q 1274 1006 1261 1005 q 1294 1016 1286 1006 q 1302 1038 1303 1025 q 1292 1060 1301 1051 m 706 902 q 545 825 622 868 l 530 848 q 696 928 612 894 l 706 902 m 2207 848 l 2192 825 q 2030 902 2115 868 l 2041 928 q 2207 848 2123 895 z "},"+":{"ha":2542,"x_min":78,"x_max":2473,"o":"m 1894 564 q 1925 596 1908 588 q 1954 597 1942 605 q 1973 573 1966 589 q 1973 530 1980 556 q 1749 -10 1878 147 q 1734 -27 1744 -16 q 1688 -58 1713 -48 q 1643 -63 1663 -67 q 1609 -45 1623 -58 q 1596 -6 1596 -32 q 1615 50 1597 19 q 1626 67 1617 55 q 1640 89 1634 79 q 1651 110 1647 99 q 1654 127 1656 120 q 1642 136 1652 134 q 1509 131 1608 142 q 1301 92 1411 120 q 1186 59 1272 85 q 1088 30 1124 41 q 982 0 1053 20 q 865 -27 911 -19 q 752 -47 820 -35 q 639 -57 684 -59 q 540 -52 594 -56 q 453 -30 486 -49 q 390 17 419 -10 q 350 88 361 43 q 343 191 338 133 q 407 113 363 142 q 516 71 451 83 q 653 60 581 60 q 819 71 726 60 q 782 107 799 85 q 759 146 764 128 q 762 319 747 179 q 787 484 764 340 q 808 695 810 628 q 787 747 807 732 q 742 752 768 762 q 696 718 717 743 q 643 621 671 688 q 616 540 628 583 q 688 478 665 522 q 702 387 712 434 q 668 329 694 350 q 614 308 643 308 q 558 325 586 307 q 519 376 531 343 q 520 484 507 412 q 383 439 497 480 q 211 396 269 397 q 118 430 156 395 q 78 540 81 465 q 148 498 102 509 q 248 495 193 488 q 353 514 302 503 q 457 539 405 526 q 536 552 510 551 q 540 564 538 556 q 544 576 543 572 q 601 700 566 644 q 682 793 636 758 q 728 821 702 810 q 784 831 755 831 q 835 815 814 831 q 881 710 874 785 q 880 589 886 654 q 860 439 873 524 q 842 315 846 354 q 841 298 842 307 q 838 270 840 288 q 837 236 837 252 q 838 205 837 220 q 842 181 839 190 q 852 174 846 173 q 859 179 855 175 q 866 194 862 184 q 874 213 871 203 q 885 241 878 223 q 897 273 892 259 q 956 438 917 324 q 1030 636 995 551 q 1106 791 1065 722 q 1251 910 1171 902 q 1333 881 1301 915 q 1348 823 1359 852 q 1347 819 1348 821 q 1315 833 1333 833 q 1279 823 1297 833 q 1240 792 1261 812 q 1203 751 1220 773 q 1168 705 1185 730 q 1237 686 1196 688 q 1322 692 1278 684 q 1422 716 1366 701 q 1527 749 1478 732 q 1636 785 1576 766 q 1741 813 1696 803 q 1815 824 1777 821 q 1893 822 1853 827 q 1961 800 1933 816 q 2001 750 1988 785 q 2002 667 2014 716 q 1693 703 1988 756 q 1717 660 1717 688 q 1701 597 1718 631 q 1577 264 1661 500 q 1527 203 1558 212 q 1491 221 1502 197 q 1487 235 1488 227 q 1423 189 1457 197 q 1369 207 1390 181 q 1356 281 1349 232 q 1366 339 1362 321 q 1378 391 1371 366 q 1382 404 1380 397 q 1385 415 1383 410 q 1387 420 1386 419 q 1350 372 1369 403 q 1308 305 1323 332 q 1271 235 1283 261 q 1218 179 1250 191 q 1181 192 1191 170 q 1181 233 1175 207 q 1185 250 1182 238 q 1190 267 1187 261 l 1190 268 q 1147 213 1165 231 q 1072 200 1103 170 q 1054 303 1040 231 q 1071 373 1059 330 q 1093 446 1082 415 q 1098 460 1095 452 q 1102 470 1101 469 q 1143 514 1116 511 q 1177 496 1166 517 q 1176 449 1187 475 q 1133 334 1146 379 q 1132 265 1108 246 q 1229 414 1160 287 q 1238 431 1234 423 q 1240 438 1239 433 q 1242 446 1241 444 q 1273 524 1258 491 q 1291 545 1280 538 q 1314 550 1303 552 q 1334 540 1325 547 q 1345 519 1343 533 q 1341 490 1348 506 q 1331 465 1333 469 q 1313 425 1318 436 q 1298 393 1304 408 q 1291 374 1291 377 q 1319 420 1307 401 q 1350 463 1335 444 q 1381 498 1364 479 q 1440 529 1412 529 q 1476 501 1468 530 q 1468 422 1485 473 q 1447 361 1458 397 q 1428 252 1415 255 q 1477 303 1439 251 q 1493 325 1485 313 q 1522 372 1503 340 q 1641 693 1550 452 q 1404 641 1626 690 q 1267 621 1310 619 q 1164 699 1180 625 q 1116 616 1133 652 q 1049 467 1082 547 q 975 275 1021 399 q 909 100 929 151 q 905 92 907 98 q 901 82 903 85 q 1279 150 1001 96 q 1446 176 1369 167 q 1584 186 1522 185 q 1680 175 1645 186 q 1713 138 1714 163 q 1695 93 1712 126 q 1664 33 1678 60 q 1655 5 1650 7 q 1702 55 1664 2 q 1787 200 1754 125 q 1854 380 1820 274 q 1862 406 1860 399 q 1832 357 1853 388 q 1817 333 1821 339 q 1799 307 1813 327 q 1775 276 1784 286 q 1751 253 1765 267 q 1724 234 1737 239 q 1698 231 1710 229 q 1662 267 1671 234 q 1666 351 1652 299 q 1686 416 1676 389 q 1712 479 1698 450 q 1731 515 1723 503 q 1768 539 1746 539 q 1800 521 1791 539 q 1797 479 1808 503 q 1780 448 1787 463 q 1754 389 1765 415 q 1740 318 1725 313 q 1792 385 1754 323 q 1829 445 1806 406 q 1864 509 1841 466 q 1894 564 1885 547 m 650 368 q 668 394 663 376 q 670 431 673 412 q 650 467 667 450 q 605 488 633 484 q 611 376 583 411 q 646 366 627 356 q 650 368 648 366 m 2297 313 q 2320 263 2287 262 q 2399 310 2353 264 q 2459 396 2441 351 q 2455 377 2458 389 q 2442 333 2453 365 q 2417 275 2431 301 q 2378 225 2403 250 q 2321 195 2352 201 q 2261 202 2288 187 q 2217 298 2215 227 q 2223 345 2218 325 q 2247 418 2232 384 q 2282 488 2264 456 q 2323 545 2302 522 q 2380 583 2348 574 q 2434 577 2412 591 q 2464 532 2456 564 q 2451 450 2473 500 q 2409 382 2432 406 q 2363 357 2385 359 q 2336 368 2345 356 q 2335 399 2326 380 q 2354 394 2340 390 q 2400 452 2378 401 q 2406 511 2421 503 q 2394 506 2403 513 q 2369 475 2384 498 q 2336 419 2353 452 q 2297 313 2306 364 m 2209 531 q 2229 471 2229 513 q 2213 384 2228 429 q 2168 296 2197 338 q 2105 237 2138 254 q 2063 225 2085 226 q 2028 239 2041 225 q 2024 280 2015 253 q 2063 273 2037 257 q 2111 329 2090 288 q 2153 450 2146 394 q 2144 482 2159 485 q 2098 437 2129 478 q 2047 349 2069 397 q 1933 43 1973 195 q 1900 1 1923 6 q 1867 18 1878 -4 q 1868 87 1854 45 q 1927 260 1888 148 q 1980 410 1967 372 q 2016 516 2009 495 q 2025 542 2020 528 q 2033 564 2030 555 q 2066 591 2043 591 q 2096 569 2088 590 q 2095 534 2102 553 q 2087 511 2090 520 q 2131 544 2107 534 q 2175 548 2155 553 q 2209 531 2195 544 m 1207 547 q 1201 541 1207 547 q 1177 534 1195 534 q 1147 547 1160 534 q 1135 577 1135 559 q 1147 607 1135 595 q 1177 620 1160 620 q 1207 607 1195 620 q 1220 577 1220 595 q 1207 547 1220 559 m 1669 976 q 1660 969 1669 976 q 1627 966 1650 962 q 1590 988 1604 969 q 1579 1029 1575 1006 q 1601 1064 1582 1051 q 1644 1074 1621 1078 q 1681 1053 1667 1071 q 1692 1012 1695 1034 q 1669 976 1689 989 m 1660 1038 q 1656 1043 1660 1038 q 1640 1050 1653 1048 q 1618 1045 1628 1053 q 1606 1025 1608 1037 q 1611 1002 1604 1012 q 1631 989 1619 991 q 1653 995 1643 987 q 1665 1016 1663 1003 q 1660 1038 1667 1028 m 1908 902 l 1934 980 l 1904 990 l 1911 1013 l 1997 983 l 1990 961 l 1959 971 l 1933 893 l 1908 902 m 1773 1004 l 1759 943 l 1733 949 l 1756 1053 l 1782 1046 l 1814 975 l 1828 1036 l 1853 1031 l 1830 927 l 1805 933 l 1773 1004 m 1470 1023 l 1468 983 l 1441 985 l 1447 1091 l 1530 1086 l 1529 1063 l 1472 1066 l 1471 1047 l 1523 1044 l 1522 1021 l 1470 1023 m 1275 982 q 1234 996 1252 981 q 1215 1034 1217 1012 q 1230 1074 1214 1057 q 1270 1092 1246 1091 q 1310 1078 1293 1093 q 1329 1040 1328 1062 q 1314 1000 1331 1017 q 1275 982 1298 983 m 1292 1060 q 1287 1064 1292 1060 q 1270 1067 1282 1068 q 1250 1058 1258 1067 q 1242 1036 1241 1048 q 1252 1014 1242 1023 q 1274 1006 1261 1005 q 1294 1016 1286 1006 q 1302 1038 1303 1025 q 1292 1060 1301 1051 m 1004 949 l 922 930 l 899 1034 l 981 1053 l 986 1029 l 930 1017 l 934 1001 l 985 1013 l 989 989 l 939 978 l 943 960 l 999 972 l 1004 949 m 1080 963 l 1055 959 l 1038 1064 l 1064 1068 l 1103 1018 l 1125 1078 l 1151 1082 l 1167 977 l 1141 972 l 1132 1034 l 1109 974 l 1071 1024 l 1080 963 m 815 897 l 778 884 l 744 985 l 781 998 q 828 998 806 1006 q 857 968 849 989 q 852 926 864 946 q 815 897 841 906 m 792 976 l 777 971 l 795 916 l 811 921 q 829 936 824 926 q 831 959 835 947 q 816 976 827 971 q 792 976 805 981 m 706 902 q 545 825 622 868 l 530 848 q 696 928 614 895 l 706 902 m 2207 848 l 2192 825 q 2030 902 2115 868 l 2041 928 q 2207 848 2123 895 z "},",":{"ha":2542,"x_min":78,"x_max":2473,"o":"m 1894 564 q 1925 596 1908 588 q 1954 597 1942 605 q 1973 573 1966 589 q 1973 530 1980 556 q 1749 -10 1878 147 q 1734 -27 1744 -16 q 1688 -58 1713 -48 q 1643 -63 1663 -67 q 1609 -45 1623 -58 q 1596 -6 1596 -32 q 1615 50 1597 19 q 1626 67 1617 55 q 1640 89 1634 79 q 1651 110 1647 99 q 1654 127 1656 120 q 1642 136 1652 134 q 1509 131 1608 142 q 1301 92 1411 120 q 1186 59 1272 85 q 1088 30 1124 41 q 982 0 1053 20 q 865 -27 911 -19 q 752 -47 820 -35 q 639 -57 684 -59 q 540 -52 594 -56 q 453 -30 486 -49 q 390 17 419 -10 q 350 88 361 43 q 343 191 338 133 q 407 113 363 142 q 516 71 451 83 q 653 60 581 60 q 819 71 726 60 q 782 107 799 85 q 759 146 764 128 q 762 319 747 179 q 787 484 764 340 q 808 695 810 628 q 787 747 807 732 q 742 752 768 762 q 696 718 717 743 q 643 621 671 688 q 616 540 628 583 q 688 478 665 522 q 702 387 712 434 q 668 329 694 350 q 614 308 643 308 q 558 325 586 307 q 519 376 531 343 q 520 484 507 412 q 383 439 497 480 q 211 396 269 397 q 118 430 156 395 q 78 540 81 465 q 148 498 102 509 q 248 495 193 488 q 353 514 302 503 q 457 539 405 526 q 536 552 510 551 q 540 564 538 556 q 544 576 543 572 q 601 700 566 644 q 682 793 636 758 q 728 821 702 810 q 784 831 755 831 q 835 815 814 831 q 881 710 874 785 q 880 589 886 654 q 860 439 873 524 q 842 315 846 354 q 841 298 842 307 q 838 270 840 288 q 837 236 837 252 q 838 205 837 220 q 842 181 839 190 q 852 174 846 173 q 859 179 855 175 q 866 194 862 184 q 874 213 871 203 q 885 241 878 223 q 897 273 892 259 q 956 438 917 324 q 1030 636 995 551 q 1106 791 1065 722 q 1251 910 1171 902 q 1333 881 1301 915 q 1348 823 1359 852 q 1347 819 1348 821 q 1315 833 1333 833 q 1279 823 1297 833 q 1240 792 1261 812 q 1203 751 1220 773 q 1168 705 1185 730 q 1237 686 1196 688 q 1322 692 1278 684 q 1422 716 1366 701 q 1527 749 1478 732 q 1636 785 1576 766 q 1741 813 1696 803 q 1815 824 1777 821 q 1893 822 1853 827 q 1961 800 1933 816 q 2002 750 1989 785 q 2003 667 2015 716 q 1693 703 1988 756 q 1717 660 1717 688 q 1701 597 1718 631 q 1577 264 1661 500 q 1527 203 1558 212 q 1491 221 1502 197 q 1487 235 1488 227 q 1423 189 1457 197 q 1369 207 1390 181 q 1356 281 1349 232 q 1366 339 1362 321 q 1378 391 1371 366 q 1382 404 1380 397 q 1385 415 1383 410 q 1387 420 1386 419 q 1350 372 1369 403 q 1309 305 1329 340 q 1272 235 1284 261 q 1219 179 1251 191 q 1181 192 1192 170 q 1181 233 1175 207 q 1185 250 1182 238 q 1190 267 1187 261 l 1190 268 q 1147 213 1165 231 q 1072 200 1103 170 q 1054 303 1040 231 q 1071 373 1059 330 q 1093 446 1082 415 q 1098 459 1095 451 q 1103 470 1102 467 q 1144 515 1117 511 q 1177 496 1166 517 q 1176 449 1187 475 q 1133 334 1146 379 q 1132 265 1108 246 q 1229 414 1160 287 q 1238 431 1234 423 q 1240 438 1239 433 q 1243 446 1242 444 q 1274 524 1259 491 q 1292 545 1280 538 q 1315 550 1303 552 q 1335 540 1326 547 q 1346 519 1344 533 q 1342 490 1348 506 q 1331 465 1333 469 q 1313 425 1323 446 q 1298 393 1304 408 q 1291 374 1291 377 q 1320 420 1302 394 q 1350 463 1340 450 q 1381 498 1360 475 q 1428 528 1405 522 q 1463 522 1450 534 q 1479 486 1476 511 q 1468 422 1483 461 q 1447 361 1458 397 q 1428 252 1415 255 q 1477 303 1439 251 q 1493 325 1485 313 q 1522 372 1503 340 q 1641 693 1550 452 q 1405 641 1632 691 q 1267 621 1311 619 q 1164 699 1179 625 q 1116 616 1133 652 q 1049 467 1082 547 q 975 275 1021 399 q 909 100 929 151 q 905 92 907 98 q 901 82 903 85 q 1279 150 1001 96 q 1446 176 1369 167 q 1584 186 1522 185 q 1680 175 1645 186 q 1713 138 1714 163 q 1695 93 1712 126 q 1664 33 1678 60 q 1655 5 1650 7 q 1702 55 1664 2 q 1787 200 1754 126 q 1854 380 1820 275 q 1862 406 1860 399 q 1832 357 1853 388 q 1817 333 1821 339 q 1799 307 1813 327 q 1775 276 1784 286 q 1751 253 1765 267 q 1724 234 1737 239 q 1698 231 1710 229 q 1662 267 1671 234 q 1666 351 1652 299 q 1686 416 1676 389 q 1712 479 1698 450 q 1731 515 1723 503 q 1768 539 1746 539 q 1800 521 1791 539 q 1797 479 1808 503 q 1780 448 1787 463 q 1754 389 1765 415 q 1740 318 1725 313 q 1792 385 1754 323 q 1829 445 1806 406 q 1864 509 1841 466 q 1894 564 1885 547 m 650 368 q 668 394 663 376 q 670 431 673 412 q 650 467 667 450 q 605 488 633 484 q 611 376 583 411 q 646 366 627 356 q 650 368 648 366 m 2297 313 q 2320 263 2287 262 q 2399 310 2353 264 q 2459 396 2441 351 q 2455 377 2458 389 q 2442 333 2453 365 q 2417 275 2431 301 q 2378 225 2403 250 q 2321 195 2352 201 q 2261 202 2288 187 q 2217 298 2215 227 q 2223 345 2218 325 q 2247 418 2232 384 q 2282 488 2264 456 q 2323 545 2302 522 q 2380 583 2348 574 q 2434 577 2412 591 q 2464 532 2456 564 q 2451 450 2473 500 q 2409 382 2432 406 q 2363 357 2385 359 q 2336 368 2345 356 q 2336 399 2327 380 q 2354 394 2341 391 q 2400 452 2378 401 q 2406 511 2421 503 q 2394 506 2403 513 q 2369 475 2384 498 q 2336 419 2353 452 q 2297 313 2306 364 m 2210 531 q 2230 471 2232 513 q 2213 384 2228 429 q 2168 296 2198 338 q 2105 237 2138 254 q 2063 225 2085 226 q 2028 239 2041 225 q 2024 280 2015 253 q 2063 273 2037 257 q 2111 329 2090 288 q 2153 450 2146 394 q 2144 482 2159 485 q 2098 437 2129 478 q 2047 349 2071 399 q 1933 43 1972 193 q 1900 1 1923 6 q 1867 18 1878 -4 q 1868 87 1854 45 q 1927 258 1887 147 q 1980 410 1966 368 q 2000 469 1988 432 q 2016 516 2012 505 q 2025 542 2020 528 q 2033 564 2030 555 q 2066 591 2043 591 q 2096 569 2088 590 q 2095 534 2102 553 q 2087 511 2090 520 q 2131 544 2107 534 q 2176 548 2156 553 q 2210 531 2195 544 m 1207 547 q 1201 541 1207 547 q 1177 534 1195 534 q 1147 547 1160 534 q 1135 577 1135 559 q 1147 607 1135 595 q 1177 620 1160 620 q 1207 607 1195 620 q 1220 577 1220 595 q 1207 547 1220 559 m 1908 902 l 1934 980 l 1904 990 l 1911 1013 l 1997 983 l 1990 961 l 1959 971 l 1933 893 l 1908 902 m 1470 1023 l 1468 983 l 1441 985 l 1447 1091 l 1531 1086 l 1529 1063 l 1472 1066 l 1471 1047 l 1523 1044 l 1522 1021 l 1470 1023 m 1773 1004 l 1759 943 l 1733 949 l 1756 1053 l 1783 1046 l 1814 975 l 1828 1036 l 1853 1031 l 1830 927 l 1805 933 l 1773 1004 m 1669 976 q 1660 969 1669 976 q 1627 966 1650 962 q 1590 988 1604 969 q 1579 1029 1576 1006 q 1602 1064 1583 1051 q 1644 1074 1621 1078 q 1681 1053 1667 1071 q 1692 1012 1695 1034 q 1669 976 1689 989 m 1660 1038 q 1656 1043 1660 1038 q 1640 1050 1653 1048 q 1618 1045 1628 1053 q 1606 1025 1608 1037 q 1611 1002 1604 1012 q 1631 989 1619 991 q 1653 995 1643 987 q 1665 1016 1663 1003 q 1660 1038 1667 1028 m 1275 982 q 1234 996 1252 981 q 1215 1034 1217 1012 q 1230 1074 1214 1057 q 1270 1092 1246 1091 q 1310 1078 1293 1093 q 1329 1040 1328 1062 q 1314 1000 1331 1017 q 1275 982 1298 983 m 1292 1060 q 1287 1064 1292 1060 q 1270 1067 1282 1068 q 1250 1058 1258 1067 q 1242 1036 1242 1048 q 1252 1014 1243 1023 q 1274 1006 1261 1005 q 1294 1016 1286 1006 q 1302 1038 1303 1025 q 1292 1060 1301 1051 m 815 897 l 779 884 l 744 985 l 781 998 q 828 998 806 1006 q 857 968 849 989 q 852 926 864 946 q 815 897 841 906 m 792 976 l 777 971 l 795 916 l 811 921 q 829 936 824 926 q 831 959 835 947 q 816 976 827 971 q 792 976 805 981 m 1080 963 l 1055 959 l 1038 1064 l 1064 1068 l 1103 1018 l 1125 1078 l 1151 1082 l 1167 977 l 1141 972 l 1132 1034 l 1110 974 l 1072 1024 l 1080 963 m 1004 949 l 922 930 l 899 1034 l 981 1053 l 986 1029 l 930 1017 l 934 1001 l 985 1013 l 989 989 l 939 978 l 943 960 l 999 972 l 1004 949 m 706 902 q 545 825 622 868 l 530 848 q 696 928 612 894 l 706 902 m 2207 848 l 2192 825 q 2030 902 2115 868 l 2041 928 q 2207 848 2123 895 z "},"-":{"ha":2542,"x_min":78,"x_max":2473,"o":"m 1894 564 q 1925 596 1908 588 q 1954 597 1942 605 q 1973 573 1966 589 q 1973 530 1980 556 q 1749 -10 1878 147 q 1734 -27 1744 -16 q 1688 -58 1713 -48 q 1643 -63 1663 -67 q 1609 -45 1623 -58 q 1596 -6 1596 -32 q 1615 50 1597 19 q 1626 67 1617 55 q 1640 89 1634 79 q 1651 110 1647 99 q 1654 127 1656 120 q 1642 136 1652 134 q 1509 131 1608 142 q 1301 92 1411 120 q 1186 59 1272 85 q 1088 30 1124 41 q 982 0 1053 20 q 865 -27 911 -19 q 752 -47 820 -35 q 639 -57 684 -59 q 540 -52 594 -56 q 453 -30 486 -49 q 390 17 419 -10 q 350 88 361 43 q 343 191 338 133 q 407 113 363 142 q 516 71 451 83 q 653 60 581 60 q 819 71 726 60 q 782 107 799 85 q 759 146 764 128 q 762 319 747 179 q 787 484 764 340 q 808 695 810 628 q 787 747 807 732 q 742 752 768 762 q 696 718 717 743 q 643 621 671 688 q 616 540 628 583 q 688 478 665 522 q 702 387 712 434 q 668 329 694 350 q 614 308 643 308 q 558 325 586 307 q 519 376 531 343 q 520 484 507 412 q 383 439 497 480 q 211 396 269 397 q 118 430 156 395 q 78 540 81 465 q 148 498 102 509 q 248 495 193 488 q 353 514 302 503 q 457 539 405 526 q 536 552 510 551 q 540 564 538 556 q 544 576 543 572 q 601 700 566 644 q 682 793 636 758 q 728 821 702 810 q 784 831 755 831 q 835 815 814 831 q 881 710 874 785 q 880 589 886 654 q 860 439 873 524 q 842 315 846 354 q 841 298 842 307 q 838 270 840 288 q 837 236 837 252 q 838 205 837 220 q 842 181 839 190 q 852 174 846 173 q 859 179 855 175 q 866 194 862 184 q 874 213 871 203 q 885 241 878 223 q 897 273 892 259 q 956 438 917 324 q 1030 636 995 551 q 1106 791 1065 722 q 1251 910 1171 902 q 1333 881 1301 915 q 1348 823 1359 852 q 1347 819 1348 821 q 1315 833 1333 833 q 1279 823 1297 833 q 1240 792 1261 812 q 1203 751 1220 773 q 1168 705 1185 730 q 1237 686 1196 688 q 1322 692 1278 684 q 1422 716 1366 701 q 1527 749 1478 732 q 1636 785 1576 766 q 1741 813 1696 803 q 1815 824 1777 821 q 1893 822 1853 827 q 1961 800 1933 816 q 2001 750 1988 785 q 2002 667 2014 716 q 1693 703 1988 756 q 1717 660 1717 688 q 1701 597 1718 631 q 1577 264 1661 500 q 1527 203 1558 212 q 1491 221 1502 197 q 1487 235 1488 227 q 1423 189 1457 197 q 1369 207 1390 181 q 1356 281 1349 232 q 1366 339 1362 321 q 1378 391 1371 366 q 1382 404 1380 397 q 1385 415 1383 410 q 1387 420 1386 419 q 1350 372 1369 403 q 1308 305 1323 332 q 1271 235 1283 261 q 1218 179 1250 191 q 1181 192 1191 170 q 1181 233 1175 207 q 1185 250 1182 238 q 1190 267 1187 261 l 1190 268 q 1147 213 1165 231 q 1072 200 1103 170 q 1054 303 1040 231 q 1071 373 1059 330 q 1093 446 1082 415 q 1098 460 1095 452 q 1102 470 1101 469 q 1143 514 1116 511 q 1177 496 1166 517 q 1176 449 1187 475 q 1133 334 1146 379 q 1132 265 1108 246 q 1229 414 1160 287 q 1238 431 1234 423 q 1240 438 1239 433 q 1242 446 1241 444 q 1273 524 1258 491 q 1291 545 1280 538 q 1314 550 1303 552 q 1334 540 1325 547 q 1345 519 1343 533 q 1341 490 1348 506 q 1331 465 1333 469 q 1313 425 1318 436 q 1298 393 1304 408 q 1291 374 1291 377 q 1319 420 1307 401 q 1350 463 1335 444 q 1381 498 1364 479 q 1440 529 1412 529 q 1476 501 1468 530 q 1468 422 1485 473 q 1447 361 1458 397 q 1428 252 1415 255 q 1477 303 1439 251 q 1493 325 1485 313 q 1522 372 1503 340 q 1641 693 1550 452 q 1404 641 1626 690 q 1267 621 1310 619 q 1164 699 1180 625 q 1116 616 1133 652 q 1049 467 1082 547 q 975 275 1021 399 q 909 100 929 151 q 905 92 907 98 q 901 82 903 85 q 1279 150 1001 96 q 1446 176 1369 167 q 1584 186 1522 185 q 1680 175 1645 186 q 1713 138 1714 163 q 1695 93 1712 126 q 1664 33 1678 60 q 1655 5 1650 7 q 1702 55 1664 2 q 1787 200 1754 125 q 1854 380 1820 274 q 1862 406 1860 399 q 1832 357 1853 388 q 1817 333 1821 339 q 1799 307 1813 327 q 1775 276 1784 286 q 1751 253 1765 267 q 1724 234 1737 239 q 1698 231 1710 229 q 1662 267 1671 234 q 1666 351 1652 299 q 1686 416 1676 389 q 1712 479 1698 450 q 1731 515 1723 503 q 1768 539 1746 539 q 1800 521 1791 539 q 1797 479 1808 503 q 1780 448 1787 463 q 1754 389 1765 415 q 1740 318 1725 313 q 1792 385 1754 323 q 1829 445 1806 406 q 1864 509 1841 466 q 1894 564 1885 547 m 650 368 q 668 394 663 376 q 670 431 673 412 q 650 467 667 450 q 605 488 633 484 q 611 376 583 411 q 646 366 627 356 q 650 368 648 366 m 2297 313 q 2320 263 2287 262 q 2399 310 2353 264 q 2459 396 2441 351 q 2455 377 2458 389 q 2442 333 2453 365 q 2417 275 2431 301 q 2378 225 2403 250 q 2321 195 2352 201 q 2261 202 2288 187 q 2217 298 2215 227 q 2223 345 2218 325 q 2247 418 2232 384 q 2282 488 2264 456 q 2323 545 2302 522 q 2380 583 2348 574 q 2434 577 2412 591 q 2464 532 2456 564 q 2451 450 2473 500 q 2409 382 2432 406 q 2363 357 2385 359 q 2336 368 2345 356 q 2335 399 2326 380 q 2354 394 2340 390 q 2400 452 2378 401 q 2406 511 2421 503 q 2394 506 2403 513 q 2369 475 2384 498 q 2336 419 2353 452 q 2297 313 2306 364 m 2209 531 q 2229 471 2229 513 q 2213 384 2228 429 q 2168 296 2197 338 q 2105 237 2138 254 q 2063 225 2085 226 q 2028 239 2041 225 q 2024 280 2015 253 q 2063 273 2037 257 q 2111 329 2090 288 q 2153 450 2146 394 q 2144 482 2159 485 q 2098 437 2129 478 q 2047 349 2069 397 q 1933 43 1973 195 q 1900 1 1923 6 q 1867 18 1878 -4 q 1868 87 1854 45 q 1927 260 1888 148 q 1980 410 1967 372 q 2016 516 2009 495 q 2025 542 2020 528 q 2033 564 2030 555 q 2066 591 2043 591 q 2096 569 2088 590 q 2095 534 2102 553 q 2087 511 2090 520 q 2131 544 2107 534 q 2175 548 2155 553 q 2209 531 2195 544 m 1207 547 q 1201 541 1207 547 q 1177 534 1195 534 q 1147 547 1160 534 q 1135 577 1135 559 q 1147 607 1135 595 q 1177 620 1160 620 q 1207 607 1195 620 q 1220 577 1220 595 q 1207 547 1220 559 m 1669 976 q 1660 969 1669 976 q 1627 966 1650 962 q 1590 988 1604 969 q 1579 1029 1575 1006 q 1601 1064 1582 1051 q 1644 1074 1621 1078 q 1681 1053 1667 1071 q 1692 1012 1695 1034 q 1669 976 1689 989 m 1660 1038 q 1656 1043 1660 1038 q 1640 1050 1653 1048 q 1618 1045 1628 1053 q 1606 1025 1608 1037 q 1611 1002 1604 1012 q 1631 989 1619 991 q 1653 995 1643 987 q 1665 1016 1663 1003 q 1660 1038 1667 1028 m 1470 1023 l 1468 983 l 1441 985 l 1447 1091 l 1530 1086 l 1529 1063 l 1472 1066 l 1471 1047 l 1523 1044 l 1522 1021 l 1470 1023 m 1773 1004 l 1759 943 l 1733 949 l 1756 1053 l 1782 1046 l 1814 975 l 1828 1036 l 1853 1031 l 1830 927 l 1805 933 l 1773 1004 m 1908 902 l 1934 980 l 1904 990 l 1911 1013 l 1997 983 l 1990 961 l 1959 971 l 1933 893 l 1908 902 m 1275 982 q 1234 996 1252 981 q 1215 1034 1217 1012 q 1230 1074 1214 1057 q 1270 1092 1246 1091 q 1310 1078 1293 1093 q 1329 1040 1328 1062 q 1314 1000 1331 1017 q 1275 982 1298 983 m 1292 1060 q 1287 1064 1292 1060 q 1270 1067 1282 1068 q 1250 1058 1258 1067 q 1242 1036 1241 1048 q 1252 1014 1242 1023 q 1274 1006 1261 1005 q 1294 1016 1286 1006 q 1302 1038 1303 1025 q 1292 1060 1301 1051 m 815 897 l 778 884 l 744 985 l 781 998 q 828 998 806 1006 q 857 968 849 989 q 852 926 864 946 q 815 897 841 906 m 792 976 l 777 971 l 795 916 l 811 921 q 829 936 824 926 q 831 959 835 947 q 816 976 827 971 q 792 976 805 981 m 1004 949 l 922 930 l 899 1034 l 981 1053 l 986 1029 l 930 1017 l 934 1001 l 985 1013 l 989 989 l 939 978 l 943 960 l 999 972 l 1004 949 m 1080 963 l 1055 959 l 1038 1064 l 1064 1068 l 1103 1018 l 1125 1078 l 1151 1082 l 1167 977 l 1141 972 l 1132 1034 l 1109 974 l 1071 1024 l 1080 963 m 706 902 q 545 825 622 868 l 530 848 q 696 928 614 895 l 706 902 m 2207 848 l 2192 825 q 2030 902 2115 868 l 2041 928 q 2207 848 2123 895 z "},".":{"ha":2542,"x_min":78,"x_max":2473,"o":"m 1894 564 q 1925 596 1908 588 q 1954 597 1942 605 q 1973 573 1966 589 q 1973 530 1980 556 q 1749 -10 1878 147 q 1734 -27 1744 -16 q 1688 -58 1713 -48 q 1643 -63 1663 -67 q 1609 -45 1623 -58 q 1596 -6 1596 -32 q 1615 50 1597 19 q 1626 67 1617 55 q 1640 89 1634 79 q 1651 110 1647 99 q 1654 127 1656 120 q 1642 136 1652 134 q 1509 131 1608 142 q 1301 92 1411 120 q 1186 59 1272 85 q 1088 30 1124 41 q 982 0 1053 20 q 865 -27 911 -19 q 752 -47 820 -35 q 639 -57 684 -59 q 540 -52 594 -56 q 453 -30 486 -49 q 390 17 419 -10 q 350 88 361 43 q 343 191 338 133 q 407 113 363 142 q 516 71 451 83 q 653 60 581 60 q 819 71 726 60 q 782 107 799 85 q 759 146 764 128 q 762 319 747 179 q 787 484 764 340 q 808 695 810 628 q 787 747 807 732 q 742 752 768 762 q 696 718 717 743 q 643 621 671 688 q 616 540 628 583 q 688 478 665 522 q 702 387 712 434 q 668 329 694 350 q 614 308 643 308 q 558 325 586 307 q 519 376 531 343 q 520 484 507 412 q 383 439 497 480 q 211 396 269 397 q 118 430 156 395 q 78 540 81 465 q 148 498 102 509 q 248 495 193 488 q 353 514 302 503 q 457 539 405 526 q 536 552 510 551 q 540 564 538 556 q 544 576 543 572 q 601 700 566 644 q 682 793 636 758 q 728 821 702 810 q 784 831 755 831 q 835 815 814 831 q 881 710 874 785 q 880 589 886 654 q 860 439 873 524 q 842 315 846 354 q 841 298 842 307 q 838 270 840 288 q 837 236 837 252 q 838 205 837 220 q 842 181 839 190 q 852 174 846 173 q 859 179 855 175 q 866 194 862 184 q 874 213 871 203 q 885 241 878 223 q 897 273 892 259 q 956 438 917 324 q 1030 636 995 551 q 1106 791 1065 722 q 1251 910 1171 902 q 1333 881 1301 915 q 1348 823 1359 852 q 1347 819 1348 821 q 1315 833 1333 833 q 1279 823 1297 833 q 1240 792 1261 812 q 1203 751 1220 773 q 1168 705 1185 730 q 1237 686 1196 688 q 1322 692 1278 684 q 1422 716 1366 701 q 1527 749 1478 732 q 1636 785 1576 766 q 1741 813 1696 803 q 1815 824 1777 821 q 1893 822 1853 827 q 1961 800 1933 816 q 2002 750 1989 785 q 2003 667 2015 716 q 1693 703 1988 756 q 1717 660 1717 688 q 1701 597 1718 631 q 1577 264 1661 500 q 1527 203 1558 212 q 1491 221 1502 197 q 1487 235 1488 227 q 1423 189 1457 197 q 1369 207 1390 181 q 1356 281 1349 232 q 1366 339 1362 321 q 1378 391 1371 366 q 1382 404 1380 397 q 1385 415 1383 410 q 1387 420 1386 419 q 1350 372 1369 403 q 1309 305 1329 340 q 1272 235 1284 261 q 1219 179 1251 191 q 1181 192 1192 170 q 1181 233 1175 207 q 1185 250 1182 238 q 1190 267 1187 261 l 1190 268 q 1147 213 1165 231 q 1072 200 1103 170 q 1054 303 1040 231 q 1071 373 1059 330 q 1093 446 1082 415 q 1098 459 1095 451 q 1103 470 1102 467 q 1144 515 1117 511 q 1177 496 1166 517 q 1176 449 1187 475 q 1133 334 1146 379 q 1132 265 1108 246 q 1229 414 1160 287 q 1238 431 1234 423 q 1240 438 1239 433 q 1243 446 1242 444 q 1274 524 1259 491 q 1292 545 1280 538 q 1315 550 1303 552 q 1335 540 1326 547 q 1346 519 1344 533 q 1342 490 1348 506 q 1331 465 1333 469 q 1313 425 1323 446 q 1298 393 1304 408 q 1291 374 1291 377 q 1320 420 1302 394 q 1350 463 1340 450 q 1381 498 1360 475 q 1428 528 1405 522 q 1463 522 1450 534 q 1479 486 1476 511 q 1468 422 1483 461 q 1447 361 1458 397 q 1428 252 1415 255 q 1477 303 1439 251 q 1493 325 1485 313 q 1522 372 1503 340 q 1641 693 1550 452 q 1405 641 1632 691 q 1267 621 1311 619 q 1164 699 1179 625 q 1116 616 1133 652 q 1049 467 1082 547 q 975 275 1021 399 q 909 100 929 151 q 905 92 907 98 q 901 82 903 85 q 1279 150 1001 96 q 1446 176 1369 167 q 1584 186 1522 185 q 1680 175 1645 186 q 1713 138 1714 163 q 1695 93 1712 126 q 1664 33 1678 60 q 1655 5 1650 7 q 1702 55 1664 2 q 1787 200 1754 126 q 1854 380 1820 275 q 1862 406 1860 399 q 1832 357 1853 388 q 1817 333 1821 339 q 1799 307 1813 327 q 1775 276 1784 286 q 1751 253 1765 267 q 1724 234 1737 239 q 1698 231 1710 229 q 1662 267 1671 234 q 1666 351 1652 299 q 1686 416 1676 389 q 1712 479 1698 450 q 1731 515 1723 503 q 1768 539 1746 539 q 1800 521 1791 539 q 1797 479 1808 503 q 1780 448 1787 463 q 1754 389 1765 415 q 1740 318 1725 313 q 1792 385 1754 323 q 1829 445 1806 406 q 1864 509 1841 466 q 1894 564 1885 547 m 650 368 q 668 394 663 376 q 670 431 673 412 q 650 467 667 450 q 605 488 633 484 q 611 376 583 411 q 646 366 627 356 q 650 368 648 366 m 2297 313 q 2320 263 2287 262 q 2399 310 2353 264 q 2459 396 2441 351 q 2455 377 2458 389 q 2442 333 2453 365 q 2417 275 2431 301 q 2378 225 2403 250 q 2321 195 2352 201 q 2261 202 2288 187 q 2217 298 2215 227 q 2223 345 2218 325 q 2247 418 2232 384 q 2282 488 2264 456 q 2323 545 2302 522 q 2380 583 2348 574 q 2434 577 2412 591 q 2464 532 2456 564 q 2451 450 2473 500 q 2409 382 2432 406 q 2363 357 2385 359 q 2336 368 2345 356 q 2336 399 2327 380 q 2354 394 2341 391 q 2400 452 2378 401 q 2406 511 2421 503 q 2394 506 2403 513 q 2369 475 2384 498 q 2336 419 2353 452 q 2297 313 2306 364 m 2210 531 q 2230 471 2232 513 q 2213 384 2228 429 q 2168 296 2198 338 q 2105 237 2138 254 q 2063 225 2085 226 q 2028 239 2041 225 q 2024 280 2015 253 q 2063 273 2037 257 q 2111 329 2090 288 q 2153 450 2146 394 q 2144 482 2159 485 q 2098 437 2129 478 q 2047 349 2071 399 q 1933 43 1972 193 q 1900 1 1923 6 q 1867 18 1878 -4 q 1868 87 1854 45 q 1927 258 1887 147 q 1980 410 1966 368 q 2000 469 1988 432 q 2016 516 2012 505 q 2025 542 2020 528 q 2033 564 2030 555 q 2066 591 2043 591 q 2096 569 2088 590 q 2095 534 2102 553 q 2087 511 2090 520 q 2131 544 2107 534 q 2176 548 2156 553 q 2210 531 2195 544 m 1207 547 q 1201 541 1207 547 q 1177 534 1195 534 q 1147 547 1160 534 q 1135 577 1135 559 q 1147 607 1135 595 q 1177 620 1160 620 q 1207 607 1195 620 q 1220 577 1220 595 q 1207 547 1220 559 m 1470 1023 l 1468 983 l 1441 985 l 1447 1091 l 1531 1086 l 1529 1063 l 1472 1066 l 1471 1047 l 1523 1044 l 1522 1021 l 1470 1023 m 1669 976 q 1660 969 1669 976 q 1627 966 1650 962 q 1590 988 1604 969 q 1579 1029 1576 1006 q 1602 1064 1583 1051 q 1644 1074 1621 1078 q 1681 1053 1667 1071 q 1692 1012 1695 1034 q 1669 976 1689 989 m 1660 1038 q 1656 1043 1660 1038 q 1640 1050 1653 1048 q 1618 1045 1628 1053 q 1606 1025 1608 1037 q 1611 1002 1604 1012 q 1631 989 1619 991 q 1653 995 1643 987 q 1665 1016 1663 1003 q 1660 1038 1667 1028 m 1773 1004 l 1759 943 l 1733 949 l 1756 1053 l 1783 1046 l 1814 975 l 1828 1036 l 1853 1031 l 1830 927 l 1805 933 l 1773 1004 m 1908 902 l 1934 980 l 1904 990 l 1911 1013 l 1997 983 l 1990 961 l 1959 971 l 1933 893 l 1908 902 m 815 897 l 779 884 l 744 985 l 781 998 q 828 998 806 1006 q 857 968 849 989 q 852 926 864 946 q 815 897 841 906 m 792 976 l 777 971 l 795 916 l 811 921 q 829 936 824 926 q 831 959 835 947 q 816 976 827 971 q 792 976 805 981 m 1275 982 q 1234 996 1252 981 q 1215 1034 1217 1012 q 1230 1074 1214 1057 q 1270 1092 1246 1091 q 1310 1078 1293 1093 q 1329 1040 1328 1062 q 1314 1000 1331 1017 q 1275 982 1298 983 m 1292 1060 q 1287 1064 1292 1060 q 1270 1067 1282 1068 q 1250 1058 1258 1067 q 1242 1036 1242 1048 q 1252 1014 1243 1023 q 1274 1006 1261 1005 q 1294 1016 1286 1006 q 1302 1038 1303 1025 q 1292 1060 1301 1051 m 1004 949 l 922 930 l 899 1034 l 981 1053 l 986 1029 l 930 1017 l 934 1001 l 985 1013 l 989 989 l 939 978 l 943 960 l 999 972 l 1004 949 m 1080 963 l 1055 959 l 1038 1064 l 1065 1068 l 1103 1018 l 1125 1078 l 1151 1082 l 1167 977 l 1141 972 l 1132 1034 l 1110 974 l 1072 1024 l 1080 963 m 706 902 q 545 825 622 868 l 530 848 q 696 928 612 894 l 706 902 m 2207 848 l 2192 825 q 2030 902 2115 868 l 2041 928 q 2207 848 2123 895 z "},"/":{"ha":2542,"x_min":78,"x_max":2473,"o":"m 1894 564 q 1925 596 1908 588 q 1954 597 1942 605 q 1973 573 1966 589 q 1973 530 1980 556 q 1749 -10 1878 147 q 1734 -27 1744 -16 q 1688 -58 1713 -48 q 1643 -63 1663 -67 q 1609 -45 1623 -58 q 1596 -6 1596 -32 q 1615 50 1597 19 q 1626 67 1617 55 q 1640 89 1634 79 q 1651 110 1647 99 q 1654 127 1656 120 q 1642 136 1652 134 q 1509 131 1608 142 q 1301 92 1411 120 q 1186 59 1272 85 q 1088 30 1124 41 q 982 0 1053 20 q 865 -27 911 -19 q 752 -47 820 -35 q 639 -57 684 -59 q 540 -52 594 -56 q 453 -30 486 -49 q 390 17 419 -10 q 350 88 361 43 q 343 191 338 133 q 407 113 363 142 q 516 71 451 83 q 653 60 581 60 q 819 71 726 60 q 782 107 799 85 q 759 146 764 128 q 762 319 747 179 q 787 484 764 340 q 808 695 810 628 q 787 747 807 732 q 742 752 768 762 q 696 718 717 743 q 643 621 671 688 q 616 540 628 583 q 688 478 665 522 q 702 387 712 434 q 668 329 694 350 q 614 308 643 308 q 558 325 586 307 q 519 376 531 343 q 520 484 507 412 q 383 439 497 480 q 211 396 269 397 q 118 430 156 395 q 78 540 81 465 q 148 498 102 509 q 248 495 193 488 q 353 514 302 503 q 457 539 405 526 q 536 552 510 551 q 540 564 538 556 q 544 576 543 572 q 601 700 566 644 q 682 793 636 758 q 728 821 702 810 q 784 831 755 831 q 835 815 814 831 q 881 710 874 785 q 880 589 886 654 q 860 439 873 524 q 842 315 846 354 q 841 298 842 307 q 838 270 840 288 q 837 236 837 252 q 838 205 837 220 q 842 181 839 190 q 852 174 846 173 q 859 179 855 175 q 866 194 862 184 q 874 213 871 203 q 885 241 878 223 q 897 273 892 259 q 956 438 917 324 q 1030 636 995 551 q 1106 791 1065 722 q 1251 910 1171 902 q 1333 881 1301 915 q 1348 823 1359 852 q 1347 819 1348 821 q 1315 833 1333 833 q 1279 823 1297 833 q 1240 792 1261 812 q 1203 751 1220 773 q 1168 705 1185 730 q 1237 686 1196 688 q 1322 692 1278 684 q 1422 716 1366 701 q 1527 749 1478 732 q 1636 785 1576 766 q 1741 813 1696 803 q 1815 824 1777 821 q 1893 822 1853 827 q 1961 800 1933 816 q 2002 750 1989 785 q 2003 667 2015 716 q 1693 703 1988 756 q 1717 660 1717 688 q 1701 597 1718 631 q 1577 264 1661 500 q 1527 203 1558 212 q 1491 221 1502 197 q 1487 235 1488 227 q 1423 189 1457 197 q 1369 207 1390 181 q 1356 281 1349 232 q 1366 339 1362 321 q 1378 391 1371 366 q 1382 404 1380 397 q 1385 415 1383 410 q 1387 420 1386 419 q 1350 372 1369 403 q 1309 305 1329 340 q 1272 235 1284 261 q 1219 179 1251 191 q 1181 192 1192 170 q 1181 233 1175 207 q 1185 250 1182 238 q 1190 267 1187 261 l 1190 268 q 1147 213 1165 231 q 1072 200 1103 170 q 1054 303 1040 231 q 1071 373 1059 330 q 1093 446 1082 415 q 1098 459 1095 451 q 1103 470 1102 467 q 1144 515 1117 511 q 1177 496 1166 517 q 1176 449 1187 475 q 1133 334 1146 379 q 1132 265 1108 246 q 1229 414 1160 287 q 1238 431 1234 423 q 1240 438 1239 433 q 1243 446 1242 444 q 1274 524 1259 491 q 1292 545 1280 538 q 1315 550 1303 552 q 1335 540 1326 547 q 1346 519 1344 533 q 1342 490 1348 506 q 1331 465 1333 469 q 1313 425 1323 446 q 1298 393 1304 408 q 1291 374 1291 377 q 1320 420 1302 394 q 1350 463 1340 450 q 1381 498 1360 475 q 1428 528 1405 522 q 1463 522 1450 534 q 1479 486 1476 511 q 1468 422 1483 461 q 1447 361 1458 397 q 1428 252 1415 255 q 1477 303 1439 251 q 1493 325 1485 313 q 1522 372 1503 340 q 1641 693 1550 452 q 1405 641 1632 691 q 1267 621 1311 619 q 1164 699 1179 625 q 1116 616 1133 652 q 1049 467 1082 547 q 975 275 1021 399 q 909 100 929 151 q 905 92 907 98 q 901 82 903 85 q 1279 150 1001 96 q 1446 176 1369 167 q 1584 186 1522 185 q 1680 175 1645 186 q 1713 138 1714 163 q 1695 93 1712 126 q 1664 33 1678 60 q 1655 5 1650 7 q 1702 55 1664 2 q 1787 200 1754 126 q 1854 380 1820 275 q 1862 406 1860 399 q 1832 357 1853 388 q 1817 333 1821 339 q 1799 307 1813 327 q 1775 276 1784 286 q 1751 253 1765 267 q 1724 234 1737 239 q 1698 231 1710 229 q 1662 267 1671 234 q 1666 351 1652 299 q 1686 416 1676 389 q 1712 479 1698 450 q 1731 515 1723 503 q 1768 539 1746 539 q 1800 521 1791 539 q 1797 479 1808 503 q 1780 448 1787 463 q 1754 389 1765 415 q 1740 318 1725 313 q 1792 385 1754 323 q 1829 445 1806 406 q 1864 509 1841 466 q 1894 564 1885 547 m 650 368 q 668 394 663 376 q 670 431 673 412 q 650 467 667 450 q 605 488 633 484 q 611 376 583 411 q 646 366 627 356 q 650 368 648 366 m 2297 313 q 2320 263 2287 262 q 2399 310 2353 264 q 2459 396 2441 351 q 2455 377 2458 389 q 2442 333 2453 365 q 2417 275 2431 301 q 2378 225 2403 250 q 2321 195 2352 201 q 2261 202 2288 187 q 2217 298 2215 227 q 2223 345 2218 325 q 2247 418 2232 384 q 2282 488 2264 456 q 2323 545 2302 522 q 2380 583 2348 574 q 2434 577 2412 591 q 2464 532 2456 564 q 2451 450 2473 500 q 2409 382 2432 406 q 2363 357 2385 359 q 2336 368 2345 356 q 2336 399 2327 380 q 2354 394 2341 391 q 2400 452 2378 401 q 2406 511 2421 503 q 2394 506 2403 513 q 2369 475 2384 498 q 2336 419 2353 452 q 2297 313 2306 364 m 2210 531 q 2230 471 2232 513 q 2213 384 2228 429 q 2168 296 2198 338 q 2105 237 2138 254 q 2063 225 2085 226 q 2028 239 2041 225 q 2024 280 2015 253 q 2063 273 2037 257 q 2111 329 2090 288 q 2153 450 2146 394 q 2144 482 2159 485 q 2098 437 2129 478 q 2047 349 2071 399 q 1933 43 1972 193 q 1900 1 1923 6 q 1867 18 1878 -4 q 1868 87 1854 45 q 1927 258 1887 147 q 1980 410 1966 368 q 2000 469 1988 432 q 2016 516 2012 505 q 2025 542 2020 528 q 2033 564 2030 555 q 2066 591 2043 591 q 2096 569 2088 590 q 2095 534 2102 553 q 2087 511 2090 520 q 2131 544 2107 534 q 2176 548 2156 553 q 2210 531 2195 544 m 1207 547 q 1201 541 1207 547 q 1177 534 1195 534 q 1147 547 1160 534 q 1135 577 1135 559 q 1147 607 1135 595 q 1177 620 1160 620 q 1207 607 1195 620 q 1220 577 1220 595 q 1207 547 1220 559 m 1470 1023 l 1468 983 l 1441 985 l 1447 1091 l 1531 1086 l 1529 1063 l 1472 1066 l 1471 1047 l 1523 1044 l 1522 1021 l 1470 1023 m 1773 1004 l 1759 943 l 1733 949 l 1756 1053 l 1783 1046 l 1814 975 l 1828 1036 l 1853 1031 l 1830 927 l 1805 933 l 1773 1004 m 1908 902 l 1934 980 l 1904 990 l 1911 1013 l 1997 983 l 1990 961 l 1959 971 l 1933 893 l 1908 902 m 1669 976 q 1660 969 1669 976 q 1627 966 1650 962 q 1590 988 1604 969 q 1579 1029 1576 1006 q 1602 1064 1583 1051 q 1644 1074 1621 1078 q 1681 1053 1667 1071 q 1692 1012 1695 1034 q 1669 976 1689 989 m 1660 1038 q 1656 1043 1660 1038 q 1640 1050 1653 1048 q 1618 1045 1628 1053 q 1606 1025 1608 1037 q 1611 1002 1604 1012 q 1631 989 1619 991 q 1653 995 1643 987 q 1665 1016 1663 1003 q 1660 1038 1667 1028 m 1275 982 q 1234 996 1252 981 q 1215 1034 1217 1012 q 1230 1074 1214 1057 q 1270 1092 1246 1091 q 1310 1078 1293 1093 q 1329 1040 1328 1062 q 1314 1000 1331 1017 q 1275 982 1298 983 m 1292 1060 q 1288 1064 1292 1060 q 1271 1067 1283 1068 q 1250 1058 1259 1067 q 1242 1036 1242 1048 q 1252 1014 1243 1023 q 1274 1006 1261 1005 q 1294 1016 1286 1006 q 1302 1038 1303 1025 q 1292 1060 1301 1051 m 815 897 l 779 884 l 744 985 l 781 998 q 828 998 806 1006 q 857 968 849 989 q 852 926 864 946 q 815 897 841 906 m 792 976 l 777 971 l 795 916 l 811 921 q 829 936 824 926 q 831 959 835 947 q 816 976 827 971 q 792 976 805 981 m 1004 949 l 922 930 l 899 1034 l 981 1053 l 986 1029 l 930 1017 l 934 1001 l 985 1013 l 989 989 l 939 978 l 943 960 l 999 972 l 1004 949 m 1080 963 l 1055 959 l 1038 1064 l 1065 1068 l 1103 1018 l 1125 1078 l 1151 1082 l 1167 977 l 1141 972 l 1132 1034 l 1110 974 l 1072 1024 l 1080 963 m 706 902 q 545 825 622 868 l 530 848 q 696 928 612 894 l 706 902 m 2207 848 l 2192 825 q 2030 902 2115 868 l 2041 928 q 2207 848 2123 895 z "},":":{"ha":2542,"x_min":78,"x_max":2473,"o":"m 1894 564 q 1925 596 1908 588 q 1954 597 1942 605 q 1973 573 1966 589 q 1973 530 1980 556 q 1749 -10 1878 147 q 1734 -27 1744 -16 q 1688 -58 1713 -48 q 1643 -63 1663 -68 q 1609 -45 1623 -58 q 1596 -7 1596 -33 q 1615 49 1597 18 q 1626 66 1617 54 q 1640 89 1634 79 q 1651 109 1647 98 q 1654 127 1656 120 q 1642 136 1652 134 q 1509 131 1608 142 q 1301 92 1411 120 q 1186 59 1272 85 q 1088 30 1124 41 q 982 0 1053 20 q 865 -27 911 -19 q 752 -47 820 -35 q 639 -57 684 -59 q 540 -52 594 -56 q 453 -30 486 -49 q 390 17 419 -10 q 350 88 361 43 q 343 191 338 133 q 407 113 363 142 q 516 71 451 83 q 653 60 581 60 q 819 71 726 60 q 782 107 799 85 q 759 146 764 128 q 762 319 747 179 q 787 484 764 340 q 808 695 810 628 q 788 747 807 732 q 743 752 768 761 q 696 718 718 743 q 643 621 670 686 q 616 540 628 583 q 688 478 665 522 q 702 387 712 434 q 668 329 694 350 q 614 308 643 308 q 558 325 586 307 q 519 376 531 343 q 520 484 507 412 q 433 456 491 479 q 315 415 374 434 q 212 396 256 397 q 118 430 156 395 q 78 540 81 465 q 148 498 102 509 q 248 495 193 488 q 353 514 302 502 q 457 538 405 526 q 536 551 510 551 q 540 564 538 555 q 544 576 543 572 q 601 700 567 645 q 682 793 636 758 q 728 821 702 810 q 784 831 755 831 q 835 815 814 831 q 881 710 874 785 q 880 589 886 654 q 860 439 873 524 q 842 315 846 354 q 841 298 842 307 q 838 270 840 288 q 837 236 837 252 q 838 205 837 220 q 842 181 839 190 q 852 174 846 173 q 859 179 855 175 q 866 194 862 184 q 874 213 871 203 q 885 241 878 223 q 897 273 892 259 q 956 438 917 324 q 1030 636 995 551 q 1106 791 1065 722 q 1251 910 1171 902 q 1333 881 1301 915 q 1348 823 1359 852 q 1347 819 1348 821 q 1315 833 1333 833 q 1279 823 1297 833 q 1240 792 1261 812 q 1203 751 1220 773 q 1168 705 1185 730 q 1237 686 1196 688 q 1322 692 1278 684 q 1422 716 1366 701 q 1527 749 1478 732 q 1636 785 1576 766 q 1741 813 1696 803 q 1815 824 1777 821 q 1893 822 1853 827 q 1961 800 1933 816 q 2002 750 1989 785 q 2003 667 2015 716 q 1693 703 1988 756 q 1717 660 1717 688 q 1701 597 1718 631 q 1577 264 1661 500 q 1527 203 1558 212 q 1491 221 1502 197 q 1487 235 1488 227 q 1423 189 1457 197 q 1369 207 1390 181 q 1356 281 1349 232 q 1366 339 1362 321 q 1378 391 1371 366 q 1382 404 1380 397 q 1385 415 1383 410 q 1387 420 1386 419 q 1350 372 1369 403 q 1308 305 1323 332 q 1271 235 1283 261 q 1218 179 1250 191 q 1181 191 1191 170 q 1181 232 1175 206 q 1185 249 1182 237 q 1190 267 1187 260 q 1147 213 1166 232 q 1072 200 1103 170 q 1054 303 1040 231 q 1071 373 1059 330 q 1093 446 1082 415 q 1098 460 1095 452 q 1102 470 1101 469 q 1143 514 1116 511 q 1177 496 1165 517 q 1176 449 1187 475 q 1133 334 1146 379 q 1132 265 1108 246 q 1229 414 1160 287 q 1238 431 1234 423 q 1240 438 1239 433 q 1242 446 1241 444 q 1273 524 1258 491 q 1291 545 1280 538 q 1314 550 1303 552 q 1334 540 1325 547 q 1345 519 1343 533 q 1341 490 1348 506 q 1337 478 1341 488 q 1331 465 1334 469 q 1321 443 1328 456 q 1313 425 1315 430 q 1305 409 1310 419 q 1298 393 1300 398 q 1291 374 1291 377 q 1319 420 1307 401 q 1350 463 1335 444 q 1381 498 1364 479 q 1440 529 1412 529 q 1476 501 1468 530 q 1468 422 1485 473 q 1447 361 1458 397 q 1428 252 1415 255 q 1477 303 1439 251 q 1493 325 1485 313 q 1522 372 1503 340 q 1641 693 1550 452 q 1404 641 1626 690 q 1267 621 1310 619 q 1164 699 1180 625 q 1116 616 1133 652 q 1049 467 1082 547 q 975 275 1021 399 q 909 100 929 151 q 905 92 907 98 q 901 82 903 85 q 1279 150 1001 96 q 1446 176 1369 167 q 1584 186 1522 185 q 1680 175 1645 186 q 1713 138 1714 163 q 1695 93 1712 126 q 1664 33 1678 60 q 1655 5 1650 7 q 1702 55 1664 2 q 1787 200 1754 125 q 1854 380 1820 274 q 1862 406 1860 399 q 1832 357 1853 388 q 1817 333 1821 339 q 1799 307 1813 327 q 1775 276 1784 286 q 1751 253 1765 267 q 1724 234 1737 239 q 1698 231 1710 229 q 1662 267 1671 234 q 1666 351 1652 299 q 1685 416 1681 401 q 1712 479 1695 446 q 1731 515 1723 503 q 1768 539 1746 539 q 1800 521 1791 539 q 1797 479 1808 503 q 1780 448 1787 463 q 1754 389 1765 415 q 1740 318 1725 313 q 1792 385 1754 323 q 1829 445 1806 406 q 1864 509 1841 466 q 1894 564 1885 547 m 650 368 q 668 394 663 376 q 670 431 673 412 q 650 467 667 450 q 605 488 633 484 q 611 376 583 411 q 646 366 627 356 q 650 368 648 366 m 2297 313 q 2320 263 2287 262 q 2399 310 2353 264 q 2459 396 2441 351 q 2455 377 2458 389 q 2442 333 2453 365 q 2417 275 2431 301 q 2378 225 2403 250 q 2321 195 2352 201 q 2261 202 2288 187 q 2217 298 2215 227 q 2223 345 2218 325 q 2247 418 2232 384 q 2282 488 2264 456 q 2323 545 2302 522 q 2380 583 2348 574 q 2434 577 2412 591 q 2464 532 2456 564 q 2451 450 2473 500 q 2409 382 2432 406 q 2363 357 2385 359 q 2336 368 2345 356 q 2335 399 2326 380 q 2354 394 2340 390 q 2400 452 2378 401 q 2406 511 2421 503 q 2394 506 2403 513 q 2369 475 2384 498 q 2336 419 2353 452 q 2297 313 2306 364 m 2210 531 q 2230 471 2232 513 q 2213 384 2228 429 q 2168 296 2198 338 q 2105 237 2138 254 q 2063 225 2085 226 q 2028 239 2041 225 q 2024 280 2015 253 q 2063 273 2037 257 q 2111 329 2090 288 q 2153 450 2146 394 q 2144 482 2159 485 q 2098 437 2129 478 q 2047 349 2069 397 q 1933 43 1973 195 q 1900 1 1923 6 q 1867 18 1878 -4 q 1868 87 1854 45 q 1927 258 1887 147 q 1980 410 1966 368 q 2000 469 1988 432 q 2016 516 2012 505 q 2025 542 2020 528 q 2033 564 2030 555 q 2066 591 2043 591 q 2096 569 2088 590 q 2095 534 2102 553 q 2087 511 2090 520 q 2131 544 2107 534 q 2176 548 2156 553 q 2210 531 2195 544 m 1207 547 q 1201 541 1207 547 q 1177 534 1195 534 q 1147 547 1160 534 q 1135 577 1135 559 q 1147 607 1135 595 q 1177 620 1160 620 q 1207 607 1195 620 q 1220 577 1220 595 q 1207 547 1220 559 m 1669 976 q 1660 969 1669 976 q 1627 966 1650 962 q 1590 988 1604 969 q 1579 1029 1575 1006 q 1601 1064 1582 1051 q 1644 1074 1621 1078 q 1681 1053 1667 1071 q 1692 1012 1695 1034 q 1669 976 1689 989 m 1660 1038 q 1656 1043 1660 1038 q 1640 1050 1653 1048 q 1618 1045 1628 1053 q 1606 1025 1608 1037 q 1611 1002 1604 1012 q 1631 989 1619 991 q 1653 995 1643 987 q 1665 1016 1663 1003 q 1660 1038 1667 1028 m 1470 1023 l 1468 983 l 1441 985 l 1447 1091 l 1531 1086 l 1529 1063 l 1472 1066 l 1471 1047 l 1523 1044 l 1522 1021 l 1470 1023 m 1773 1004 l 1759 943 l 1733 949 l 1756 1053 l 1782 1046 l 1814 975 l 1828 1036 l 1853 1031 l 1830 927 l 1805 933 l 1773 1004 m 1908 902 l 1934 980 l 1904 990 l 1911 1013 l 1997 983 l 1990 961 l 1959 971 l 1933 893 l 1908 902 m 1004 949 l 922 930 l 899 1034 l 981 1053 l 986 1029 l 930 1017 l 934 1001 l 985 1013 l 989 989 l 939 978 l 943 960 l 999 972 l 1004 949 m 1080 963 l 1055 959 l 1038 1064 l 1064 1068 l 1103 1018 l 1125 1078 l 1151 1082 l 1167 977 l 1141 972 l 1132 1034 l 1109 974 l 1071 1024 l 1080 963 m 1275 982 q 1234 996 1252 981 q 1215 1034 1217 1012 q 1230 1074 1214 1057 q 1270 1092 1246 1091 q 1310 1078 1293 1093 q 1329 1040 1328 1062 q 1314 1000 1331 1017 q 1275 982 1298 983 m 1292 1060 q 1287 1064 1292 1060 q 1270 1067 1282 1068 q 1250 1058 1258 1067 q 1242 1036 1241 1048 q 1252 1014 1242 1023 q 1274 1006 1261 1005 q 1294 1016 1286 1006 q 1302 1038 1303 1025 q 1292 1060 1301 1051 m 815 897 l 778 884 l 744 985 l 781 998 q 828 998 806 1006 q 857 968 849 989 q 852 926 864 946 q 815 897 841 906 m 792 976 l 777 971 l 795 916 l 811 921 q 829 936 824 926 q 831 959 835 947 q 816 976 827 971 q 792 976 805 981 m 706 902 q 545 825 622 868 l 530 848 q 696 928 612 894 l 706 902 m 2207 848 l 2192 825 q 2030 902 2115 868 l 2041 928 q 2207 848 2123 895 z "}}}
